<?xml version="1.0" encoding="UTF-8" standalone="no"?>
<svg
   xmlns:dc="http://purl.org/dc/elements/1.1/"
   xmlns:cc="http://creativecommons.org/ns#"
   xmlns:rdf="http://www.w3.org/1999/02/22-rdf-syntax-ns#"
   xmlns:svg="http://www.w3.org/2000/svg"
   xmlns="http://www.w3.org/2000/svg"
   xmlns:sodipodi="http://sodipodi.sourceforge.net/DTD/sodipodi-0.dtd"
   xmlns:inkscape="http://www.inkscape.org/namespaces/inkscape"
   viewBox="0 0 16 16"
   id="svg4191"
   version="1.1"
   inkscape:version="0.91 r13725"
   sodipodi:docname="action-manage-notifications.svg"
   width="16"
   height="16">
  <metadata
     id="metadata4199">
    <rdf:RDF>
      <cc:Work
         rdf:about="">
        <dc:format>image/svg+xml</dc:format>
        <dc:type
           rdf:resource="http://purl.org/dc/dcmitype/StillImage" />
        <dc:title></dc:title>
      </cc:Work>
    </rdf:RDF>
  </metadata>
  <defs
     id="defs4197" />
  <sodipodi:namedview
     pagecolor="#ffffff"
     bordercolor="#666666"
     borderopacity="1"
     objecttolerance="10"
     gridtolerance="10"
     guidetolerance="10"
     inkscape:pageopacity="0"
     inkscape:pageshadow="2"
     inkscape:window-width="1680"
     inkscape:window-height="1017"
     id="namedview4195"
     showgrid="false"
     inkscape:zoom="17.583333"
     inkscape:cx="24"
     inkscape:cy="19.450237"
     inkscape:window-x="1366"
     inkscape:window-y="0"
     inkscape:window-maximized="1"
     inkscape:current-layer="svg4191" />
  <path
     d="m 7.1204154,1.3540473 0,0.5008545 C 3.3062168,2.2401741 2.8438897,5.2838281 2.4586175,7.9807361 2.1889265,9.7915175 1.957763,11.679353 0.72489057,12.950753 c -0.23116353,0.269691 -0.3082183,0.616436 -0.19263615,0.963181 0.15410876,0.308219 0.46232709,0.539382 0.80907198,0.539382 l 5.5093989,0 c 0.03853,0.616436 0.5008536,1.078763 1.1172902,1.078763 0.5779092,0 1.0787629,-0.500854 1.1172903,-1.078763 l 5.5479262,0 c 0.346745,0 0.693491,-0.231163 0.809072,-0.539382 0.154109,-0.308218 0.07705,-0.69349 -0.192636,-0.963181 -1.232872,-1.2714 -1.502563,-3.1592355 -1.733727,-4.9700169 -0.385272,-2.696908 -0.809072,-5.740562 -4.6232714,-6.1258343 l 0,-0.5008545 c 0,-0.50085444 -0.3852722,-0.88612665 -0.8861267,-0.88612665 -0.5008544,0 -0.8861275,0.38527229 -0.8861275,0.88612665 z m 0.8476001,2.2345814 c 3.0051275,0 3.3518715,1.5025625 3.7756715,4.623271 0.192637,1.4640357 0.423801,3.0436533 1.155819,4.4691623 l -9.8244528,0 C 3.8070712,11.255553 4.0382347,9.6759354 4.2308709,8.2118997 4.6546713,5.0911912 5.0014162,3.5886287 7.9680155,3.5886287 Z"
     id="path4193"
     inkscape:connector-curvature="0"
     style="fill:#000000;fill-opacity:1" />
</svg>
