<?xml version="1.0" encoding="UTF-8" standalone="no"?>
<!-- Generator: Adobe Illustrator 16.0.4, SVG Export Plug-In . SVG Version: 6.00 Build 0)  -->

<svg
   xmlns:dc="http://purl.org/dc/elements/1.1/"
   xmlns:cc="http://creativecommons.org/ns#"
   xmlns:rdf="http://www.w3.org/1999/02/22-rdf-syntax-ns#"
   xmlns:svg="http://www.w3.org/2000/svg"
   xmlns="http://www.w3.org/2000/svg"
   xmlns:sodipodi="http://sodipodi.sourceforge.net/DTD/sodipodi-0.dtd"
   xmlns:inkscape="http://www.inkscape.org/namespaces/inkscape"
   version="1.1"
   id="Layer_1"
   x="0px"
   y="0px"
   width="16"
   height="16"
   viewBox="0 0 16 16"
   enable-background="new 0 0 36 36"
   xml:space="preserve"
   inkscape:version="0.91 r13725"
   sodipodi:docname="action-search-users.svg"><metadata
     id="metadata4227"><rdf:RDF><cc:Work
         rdf:about=""><dc:format>image/svg+xml</dc:format><dc:type
           rdf:resource="http://purl.org/dc/dcmitype/StillImage" /><dc:title></dc:title></cc:Work></rdf:RDF></metadata><defs
     id="defs4225" /><sodipodi:namedview
     pagecolor="#ffffff"
     bordercolor="#666666"
     borderopacity="1"
     objecttolerance="10"
     gridtolerance="10"
     guidetolerance="10"
     inkscape:pageopacity="0"
     inkscape:pageshadow="2"
     inkscape:window-width="1366"
     inkscape:window-height="709"
     id="namedview4223"
     showgrid="false"
     inkscape:zoom="21.527473"
     inkscape:cx="9.6247914"
     inkscape:cy="7.7166438"
     inkscape:window-x="0"
     inkscape:window-y="26"
     inkscape:window-maximized="1"
     inkscape:current-layer="Layer_1" /><g
     id="search_1_"
     transform="matrix(-0.40708597,0.07151192,0.07151192,0.40708597,13.627927,-0.94226979)"><g
       id="search"><path
         d="m 35.525,31.228 -8.88,-8.882 c 1.444,-2.238 2.298,-4.895 2.298,-7.752 0,-7.909 -6.438,-14.343 -14.346,-14.343 -7.911,0 -14.343,6.434 -14.343,14.343 0,7.911 6.433,14.344 14.343,14.344 2.856,0 5.513,-0.849 7.752,-2.294 l 8.88,8.88 c 0.295,0.297 0.782,0.297 1.076,0 l 3.22,-3.221 c 0.299,-0.295 0.299,-0.78 0,-1.075 z M 4.81,14.593 c 0,-5.396 4.391,-9.788 9.788,-9.788 5.398,0 9.787,4.392 9.787,9.788 0,5.398 -4.389,9.789 -9.787,9.789 -5.398,0 -9.788,-4.391 -9.788,-9.789 z"
         id="path4209"
         inkscape:connector-curvature="0" /></g></g><g
     id="g4211"
     transform="translate(0,-20)" /><g
     id="g4213"
     transform="translate(0,-20)" /><g
     id="g4215"
     transform="translate(0,-20)" /><g
     id="g4217"
     transform="translate(0,-20)" /><g
     id="g4219"
     transform="translate(0,-20)" /><g
     id="g4221"
     transform="translate(0,-20)" /></svg>