<?xml version="1.0" encoding="UTF-8" standalone="no"?>
<svg
   xmlns:dc="http://purl.org/dc/elements/1.1/"
   xmlns:cc="http://creativecommons.org/ns#"
   xmlns:rdf="http://www.w3.org/1999/02/22-rdf-syntax-ns#"
   xmlns:svg="http://www.w3.org/2000/svg"
   xmlns="http://www.w3.org/2000/svg"
   xmlns:sodipodi="http://sodipodi.sourceforge.net/DTD/sodipodi-0.dtd"
   xmlns:inkscape="http://www.inkscape.org/namespaces/inkscape"
   width="16"
   height="16"
   viewBox="0 0 16 16"
   id="svg4175"
   version="1.1"
   inkscape:version="0.91 r13725"
   sodipodi:docname="settings.svg">
  <metadata
     id="metadata4185">
    <rdf:RDF>
      <cc:Work
         rdf:about="">
        <dc:format>image/svg+xml</dc:format>
        <dc:type
           rdf:resource="http://purl.org/dc/dcmitype/StillImage" />
        <dc:title></dc:title>
      </cc:Work>
    </rdf:RDF>
  </metadata>
  <defs
     id="defs4183" />
  <sodipodi:namedview
     pagecolor="#000000"
     bordercolor="#666666"
     borderopacity="1"
     objecttolerance="10"
     gridtolerance="10"
     guidetolerance="10"
     inkscape:pageopacity="0"
     inkscape:pageshadow="2"
     inkscape:window-width="1366"
     inkscape:window-height="709"
     id="namedview4181"
     showgrid="false"
     inkscape:zoom="11.416667"
     inkscape:cx="24"
     inkscape:cy="24"
     inkscape:window-x="0"
     inkscape:window-y="26"
     inkscape:window-maximized="1"
     inkscape:current-layer="svg4175" />
  <path
     d="m 0,-32 48,0 0,48 -48,0 z"
     id="path4177"
     inkscape:connector-curvature="0"
     style="fill:none" />
  <path
     d="m 13.421529,8.7116786 c 0.02919,-0.2335766 0.0511,-0.470803 0.0511,-0.7116788 0,-0.2408759 -0.0219,-0.4781022 -0.0511,-0.7116789 l 1.543796,-1.2080293 c 0.138686,-0.109489 0.178832,-0.3065693 0.0876,-0.4671532 L 13.593068,3.0839411 C 13.501824,2.9270069 13.312046,2.861313 13.147812,2.9270069 L 11.330294,3.6605838 C 10.954382,3.3722618 10.541973,3.1277374 10.096719,2.9416057 L 9.8229957,1.0072984 C 9.7901542,0.83576545 9.640514,0.70073009 9.4580323,0.70073009 l -2.9197086,0 c -0.1824817,0 -0.3321159,0.13503536 -0.3613134,0.30656831 L 5.9032871,2.9416057 C 5.4580322,3.1277374 5.0456237,3.368613 4.6697115,3.6605838 L 2.8521932,2.9270069 c -0.1642342,-0.062049 -0.3540147,0 -0.4452561,0.1569342 L 0.9470834,5.6131383 C 0.8558395,5.7700727 0.89598584,5.9671529 1.034681,6.0802916 l 1.5401451,1.2080293 c -0.029195,0.2335766 -0.051098,0.4708029 -0.051098,0.7116788 0,0.2408758 0.021903,0.4781022 0.051098,0.7116788 L 1.034681,9.9197079 C 0.89599437,10.029197 0.85584803,10.226277 0.9470834,10.386861 l 1.4598537,2.529198 c 0.091244,0.156934 0.2810219,0.222626 0.4452561,0.156934 l 1.8175183,-0.733577 c 0.3759122,0.288321 0.7883207,0.532846 1.2335756,0.718978 L 6.1770103,14.9927 c 0.029195,0.171533 0.1788317,0.30657 0.3613134,0.30657 l 2.9197086,0 c 0.1824817,0 0.332117,-0.135037 0.3613134,-0.30657 l 0.2737233,-1.934306 c 0.445254,-0.186132 0.857664,-0.427007 1.233576,-0.718978 l 1.817519,0.733577 c 0.164232,0.06205 0.354014,0 0.445254,-0.156934 l 1.459854,-2.529198 c 0.09124,-0.156934 0.0511,-0.354015 -0.08759,-0.4671531 L 13.42154,8.7116785 Z M 7.9981725,10.554744 c -1.4124098,0 -2.5547452,-1.1423355 -2.5547452,-2.5547442 0,-1.4124089 1.1423354,-2.5547453 2.5547452,-2.5547453 1.4124085,0 2.5547435,1.1423364 2.5547435,2.5547453 0,1.4124088 -1.142335,2.5547442 -2.5547435,2.5547442 z"
     id="path4179"
     inkscape:connector-curvature="0"
     style="fill:#ffffff;fill-opacity:1" />
</svg>
