<?xml version="1.0" standalone="no"?> <!DOCTYPE svg PUBLIC "-//W3C//DTD SVG 1.0//EN" "http://www.w3.org/TR/2001/REC-SVG-20010904/DTD/svg10.dtd" > <svg xmlns="http://www.w3.org/2000/svg" width="100%" height="100%">
<defs >
<font id="bradhitc" horiz-adv-x="857" ><font-face
    font-family="Bradley Hand ITC"
    units-per-em="2048"
    panose-1="3 7 4 2 5 3 2 3 2 3"
    ascent="1739"
    descent="-815"
    alphabetic="0" />
<missing-glyph horiz-adv-x="2048" d="M256 0V1536H1792V0H256ZM384 128H1664V1408H384V128Z" />
<glyph unicode=" " glyph-name="space" horiz-adv-x="522" />
<glyph unicode="!" glyph-name="exclam" horiz-adv-x="604" d="M350 1079L342 1065Q340 1051 328 1036L342 981L332 963L340 954L336 938L342 926Q324 923 324 907Q324 903 332 868L322 840L336 821Q323 798 322 774L313 584L324 565L313 518L324 475L313 449L324
428L322 406L324 391L313 387Q322 368 322 350Q322 334 303 332Q317 317 317 307Q317 289 299 289Q281 289 281 332V377Q273 440 266 463L276 489L266 518L276 592L258 602L266 627L262 653V672L270 676L258 705L262 719V723Q262 736 274 756L266 774V803L258 807L274
823L262 856L270 887L256 905L270 922L266 952L270 973Q264 982 264 989Q264 995 270 1010L258 1014V1057L242 1075L244 1116L266 1112L295 1120L340 1104L350 1079ZM381 12L356 -8L328 0L303 -10L283 0H262L250 45L258 76L274 92H279Q282 92 287 98T297 109Q328
96 334 96H336Q336 98 330 104H334Q338 104 358 94Q374 70 381 45Q375 42 375 35Q375 27 381 12Z" />
<glyph unicode="&quot;" glyph-name="quotedbl" horiz-adv-x="580" d="M260 928L252 897Q236 862 236 836L242 807Q242 806 234 782T225 719L229 690L217 635L203 633L184 645L188 694Q188 702 184 723Q174 740 174 750V756Q178 760 178 770L176 782Q176 789 178
791L170 803L176 809L168 825L174 844L160 860L168 877L154 891L156 909L152 928L158 942L152 954L156 963L143 979V1006Q156 1030 160 1036L193 1044Q210 1051 215 1051Q236 1051 254 1016L246 979L256 958L260 928ZM430 979L418 963L422 954L416 942L422 928L418
909L420 891L406 877L414 860L399 844L406 825L397 809L403 803L397 791Q399 789 399 784Q399 781 397 776T395 768Q395 760 399 756V750Q399 740 389 723Q385 702 385 694L389 645L371 633L356 635L344 690L348 719L346 762L332 807L338 836L334 870Q313 915 313
928Q313 960 328 979L319 1016Q337 1049 360 1049Q365 1049 414 1036Q430 1016 430 1006V979Z" />
<glyph unicode="#" glyph-name="numbersign" horiz-adv-x="1266" d="M1264 651Q1244 651 1231 639L1215 649Q1208 653 1176 655Q1159 645 1155 645Q1148 645 1143 653L1124 647L1102 657L1081 643L1051 651L973 641L950 649Q899 649 866 641L855 602Q852 594 845
585L827 561L823 485L810 471Q805 465 791 416L770 401L768 379L741 350L756 338L741 322Q771 325 785 321T823 317L834 319Q844 319 852 311L885 309L918 313L946 301L977 311Q983 301 987 301Q991 301 1012 305T1056 306T1096 301Q1109 309 1120 309L1159 305L1178
281H1159L1143 268L1127 278Q1120 283 1087 285Q1074 276 1067 276Q1059 276 1055 283L1036 276L1016 289L995 274L965 283L883 270L864 279L852 281Q830 281 752 264Q745 274 733 274Q714 238 702 201L682 184L670 135L641 66L635 20L616 -18L612 -76L580 -127L553
-215L549 -244Q547 -260 539 -274L518 -311L494 -301L514 -238L512 -199Q512 -198 520 -184T528 -152L543 -145L545 -96L555 -63L567 0Q588 5 592 13T598 86L625 115L626 143Q627 160 632 173L647 209L643 229L672 268L651 266L635 271Q618 276 608 276L518 266L485
274L428 256L375 272H356Q337 238 326 201L305 184L293 135L264 66L256 20L240 -18L236 -76L203 -127L176 -215L172 -244Q170 -260 162 -274L141 -311L117 -301L137 -238L135 -199Q135 -198 143 -183T152 -152L166 -145L168 -96L178 -63L190 0Q211 5 215 13T221
86L248 115L249 143Q250 160 255 173L270 209L266 229L297 272Q260 271 217 252Q208 268 193 268L160 260L129 270L63 264L49 256Q30 266 14 279V301L10 313H20Q82 334 98 334L141 324L178 328L244 319L291 328L313 324V332L328 359Q336 373 340 403H346Q340 419
340 426Q340 437 350 467L367 475L365 516L406 528Q389 548 389 557Q389 570 407 594T428 641L391 643Q386 643 356 638T305 621Q298 639 281 639L246 631L217 641L152 635L135 627Q119 637 102 649V672L96 684H109Q170 705 186 705L229 694L266 698L332 690L381
698L416 692L455 700L463 772L512 870V936L547 954L557 1034Q581 1073 581 1077T635 1116L666 1085L602 928L580 889L563 829L532 756L510 748L516 733L506 690L524 684L553 690L578 688Q584 682 592 682Q593 682 599 685T612 690Q633 682 641 676Q650 688 672
688Q690 688 698 680L831 692L840 772L889 870V936L924 954L934 1034Q957 1073 958 1077T1012 1116L1042 1085L1020 1020L979 928L956 889L940 829L909 756L887 748L893 733L883 690L911 686L928 690Q932 690 940 682L973 680L1006 682L1034 672L1065 682Q1068
670 1082 673Q1106 678 1128 678Q1135 678 1154 675T1184 670Q1189 674 1208 680Q1222 676 1247 676L1264 651ZM805 647H799L787 641Q779 637 739 637L700 647Q692 647 651 641T606 635L575 643L514 627L487 635L479 607Q475 594 451 561L446 485L433 471Q428 465
414 416L393 401L391 379L365 350L379 338L373 332L391 336L436 313L465 322L487 317Q499 313 504 313Q512 313 524 319Q539 317 553 305Q559 317 582 317Q602 317 610 309L688 317L690 332L705 359Q713 373 717 403H723Q717 416 717 430Q717 440 727 467L743 475L741
516L782 528Q764 550 764 561Q764 571 784 595T805 647Z" />
<glyph unicode="$" glyph-name="dollar" horiz-adv-x="1331" d="M1212 340L1202 332L1188 274Q1121 229 1081 229H1073Q1063 228 1046 220T1022 211H979L942 186L932 193L891 178Q852 178 829 162T805 121Q805 114 812 82T819 18Q819 0 812 -40T805 -100Q805 -123
819 -145L807 -150L815 -184L805 -211L815 -240L811 -262L815 -287L805 -315Q819 -342 819 -371V-393L805 -403L823 -510L801 -520L793 -494V-471L786 -328L778 -268L782 -223Q784 -213 784 -195Q784 -168 776 -168L772 -170L778 -109L768 -53L786 -10Q786 14 768
14Q766 26 766 45L768 61V98L770 119Q770 136 764 145L739 154L723 139H676L641 127L633 113L647 98L629 76L643 51Q640 28 627 12L641 -27L627 -119L633 -156L623 -184L637 -211L627 -272L637 -328L627 -360L633 -385Q647 -403 647 -426L643 -455L659 -483Q659
-502 641 -502Q631 -502 629 -474T618 -426L609 -402Q604 -390 604 -354L608 -313V-250L596 -215L590 -150Q600 -139 600 -125L596 -104L594 -43L600 -6L590 45V117L561 113Q543 106 530 106L518 109Q511 109 500 103T479 96Q474 96 451 106L430 96L383 102L313
86L231 98L207 96L197 106L174 102L135 106L117 98L102 117H61L25 139L6 135L-8 154H-14Q-41 154 -41 193Q-41 215 -18 219L43 229L45 242L117 233L150 242Q156 238 156 231Q156 221 135 201L61 190L51 176Q54 164 81 156T119 143Q143 154 162 154H182Q205 154
215 143L332 135Q351 143 371 143H383Q403 158 446 158H465L530 160L596 176L594 217L600 426L590 436V471Q574 487 561 487L553 485Q540 486 528 486L506 487Q498 487 469 500L422 487L414 496L348 520L332 537L291 547Q278 565 254 584L242 672Q242 705 272 741H274Q278
741 283 744T294 753T312 769T334 783T356 788L414 813L455 815L496 831H524L543 846L545 860L571 864L608 860V874L596 895Q604 954 610 1004L596 1036L618 1075L610 1104V1161L602 1210V1237Q608 1239 616 1239Q623 1239 623 1233Q612 1253 612 1286Q612 1319
647 1319Q680 1319 702 1280L684 1249L707 1229Q670 1219 670 1196V1192L674 1137L659 1098L670 1085L666 1053L676 1032V1004L659 985L666 940L647 901Q659 866 680 866Q684 866 694 870L772 901L764 944L772 977L764 1038L772 1069L768 1110L772 1159L760 1217L782
1225V1276L786 1313L784 1327L844 1333L862 1309L852 1282L856 1233L838 1206L840 1174L825 1155L840 1116Q821 1104 821 1085Q821 1076 844 1018Q819 998 819 958Q819 903 850 903L928 920L1004 928L1042 911H1067L1106 901L1159 854L1153 840Q1112 813 1090 813Q1075
813 1067 815Q1044 837 1044 854Q1027 851 1020 846L1008 864L954 856L905 860L895 846L866 860L848 856H846Q838 856 828 817T821 754T825 711V696Q825 682 821 664T817 639Q817 620 829 598L815 563L819 532L811 492L862 479Q883 479 903 485Q924 459 928 456T940
453Q951 453 956 467L975 459L1001 463L1004 453H1044L1069 434L1096 440L1118 422L1161 416L1165 406L1208 354L1212 340ZM774 813Q775 816 767 831T741 846Q730 846 713 831Q671 826 665 821T659 809V801L662 750L647 676L662 580Q641 544 641 528V522Q641 518
647 512L676 514L711 504L739 512H768V547L772 604L768 649L772 682L764 725L772 766L768 782L774 813ZM608 651L594 678L604 741L600 809L592 811Q576 811 563 795L553 799L536 787Q528 782 479 776L469 762H430Q412 746 389 743L379 723H360Q308 687 300 672T291
631Q291 620 297 604T308 586T360 580L375 569L393 571L414 551L479 537L512 545L524 537Q552 537 600 532L596 637L608 651ZM774 217V244L760 262L764 289L758 317L768 340L774 414L764 420L768 455L735 453L723 463Q706 460 698 455Q683 457 647 471L641 430L647
406L649 324L637 262L633 209Q633 195 641 186L676 184Q701 192 721 197L774 217ZM1151 342Q1138 360 1128 381L1106 375L1063 393H1036L1012 420H963L950 434L903 430L866 446H840L834 449Q815 427 815 414L823 356Q811 342 811 307V291Q815 239 817 232T829 217Q870
242 895 242Q938 249 971 264T1012 279Q1018 279 1022 274Q1095 293 1115 300T1143 324L1151 342Z" />
<glyph unicode="%" glyph-name="percent" horiz-adv-x="1407" d="M1202 1350Q1186 1315 1176 1286L1143 1274L1022 1184L993 1141Q981 1105 946 1094L938 1053H920L909 1028L891 1016L888 1001Q887 995 854 950V926Q854 920 836 901T807 866L811 852L784 834V805L750
758V735L686 666L684 637L641 575Q639 563 627 512L618 510L573 434Q567 422 567 414Q567 406 573 406L541 373L535 336Q501 282 483 215L469 209L463 170L424 72V47L395 18L397 -10L358 -98V-131L348 -150Q344 -166 332 -184L336 -213L331 -229Q326 -246 326 -256Q326
-264 330 -276Q340 -294 340 -315L330 -346L334 -362L324 -375L356 -446L352 -473Q364 -483 377 -524L410 -551Q416 -575 436 -584L502 -612L526 -608Q526 -623 545 -623L555 -631L573 -623Q582 -627 592 -627L651 -625L674 -629Q694 -629 708 -621T764 -604Q777
-614 786 -614Q794 -614 807 -604L803 -623L768 -645H700L686 -651L641 -655Q583 -673 569 -670L453 -639Q407 -610 371 -592L365 -567L330 -532L326 -510L305 -492Q290 -439 279 -426L281 -342L274 -303L287 -276L274 -258Q290 -148 304 -127T319 -66V-53Q328
-44 339 -13L348 14L389 102Q395 115 395 125L393 145L395 154H397Q409 154 424 244L455 276L449 297Q482 351 496 387L506 389L549 477L578 545Q615 578 621 598L639 659Q656 688 657 707L698 750L717 823Q740 832 769 896T829 997Q829 1008 817 1028Q826 1029
840 1046T868 1067Q875 1089 909 1137Q913 1145 913 1149Q913 1160 897 1169L854 1151Q825 1119 807 1110Q795 1122 782 1128Q747 1125 737 1120Q716 1102 711 1102Q709 1102 704 1105T692 1108Q691 1108 667 1101T633 1096L567 1108L553 1100Q516 1094 516 1081Q516
1077 520 1067T569 1020L567 1001Q584 989 584 975Q584 963 578 950Q588 932 588 918Q588 883 569 831L544 812Q532 803 506 766L483 758L469 723L410 707L391 688L225 674L186 684L133 729Q112 762 88 786L94 819L82 834V860Q109 922 109 926V958Q124 986 133
1044Q166 1056 166 1071Q166 1077 162 1085Q194 1109 205 1140T224 1174T256 1212L246 1235L281 1245Q299 1257 311 1257Q315 1257 319 1255L422 1212Q440 1155 463 1155L502 1174L555 1161H625L676 1151L724 1159Q773 1168 777 1167T818 1183T860 1202H870Q902
1202 905 1221L924 1217Q989 1237 989 1272L1026 1286L1014 1300Q1017 1303 1029 1309Q1084 1339 1124 1384Q1132 1399 1143 1399Q1171 1399 1178 1389L1202 1350ZM494 823Q535 846 535 932Q535 958 512 969Q516 974 516 987Q516 1003 499 1025T466 1073T428 1103T385
1128Q361 1120 319 1120Q305 1120 299 1131T287 1143Q255 1143 246 1090L227 1081L207 1034L201 1004Q177 968 160 926L166 911L143 874L152 846L143 815L168 758Q212 720 246 721L311 723L348 715Q364 715 385 737T414 766H455Q467 772 494 823ZM1204 365L1202
307L1206 285Q1206 270 1201 258T1196 244Q1196 240 1199 231T1202 215Q1202 195 1186 182Q1190 171 1190 166Q1190 154 1183 140T1162 111T1135 70Q1102 43 1102 35V33Q1096 17 1082 13T1051 -10L1014 -29Q952 -76 934 -76L915 -72L870 -84L811 -76L745 -33L727
37V86L719 113L727 131L723 158Q733 183 742 210T764 279T789 343T821 401T843 445T852 460T881 477V510L901 511Q909 512 950 537H995L1030 526Q1047 520 1087 518L1093 501Q1095 496 1122 480T1159 444L1204 365ZM1159 307L1143 379L1116 422L1092 434Q1081 459
1051 459L1026 455L1008 461Q986 461 963 455L956 430Q930 430 915 426T898 414L891 383L877 373L870 342L829 299L821 256Q802 241 802 238T798 210T784 178V170L786 147Q786 135 778 127Q783 -35 858 -35Q878 -35 915 -25Q944 -10 948 -10H961L1075 76Q1078 90
1092 101T1106 117H1108Q1113 117 1126 140L1139 164L1153 248V266L1159 307Z" />
<glyph unicode="&amp;" glyph-name="ampersand" horiz-adv-x="1198" d="M1096 918Q1092 907 1081 899L1053 907H1028L1020 944L983 946L977 987Q966 988 946 1012L928 1016L922 1028L842 1038L801 1034L766 1038L733 1034L717 1044L700 1030L678 1034Q672 1034
654 1027T594 1016L537 987L505 966Q500 963 471 958L453 932L414 915Q414 894 412 889L389 893V879L360 842L373 786Q367 771 367 758Q367 735 383 723L459 666L528 655Q551 655 590 641L608 651L627 649L649 659L664 655L707 659L721 655Q730 655 758 665L782
674Q799 674 805 655L834 651L849 640Q856 635 885 631Q859 590 834 590H754Q743 586 735 575L717 588L700 584L678 590L580 584L569 571H545L537 565H500L473 551L440 545L397 512L336 500L231 422Q214 410 212 373T190 328L215 250L250 223L328 211L340 197Q364
207 379 207Q389 207 405 196T436 184Q449 197 467 197H485L506 182H537L553 197L575 193L594 201L612 190Q619 200 647 207L674 215H676Q678 215 688 211T707 207Q722 207 735 217Q776 232 805 238T846 262L926 291Q977 327 983 328L977 401L1001 393L1024 401H1032Q1041
401 1053 393T1090 322L1063 276L1077 244L1071 225L1075 190L1071 170L1075 150L1059 113Q1059 97 1090 47L1071 33L1075 -14L1061 -33L1067 -59L1061 -94L1067 -129Q1067 -159 1053 -182Q1053 -205 1047 -226T1040 -254Q1040 -264 1042 -270Q1037 -280 1010 -307L1012
-332L946 -414Q918 -440 899 -453Q836 -477 821 -487L772 -479L758 -487L733 -479L717 -487L711 -477L682 -485L641 -467L627 -473L604 -461L561 -459L496 -446L463 -449L422 -432L393 -408L283 -379Q252 -357 201 -354L184 -336L158 -328L154 -313L119 -309L113
-291L59 -270Q28 -234 12 -225V-199L0 -170Q65 -133 72 -133Q94 -133 94 -147Q94 -153 33 -199Q35 -217 61 -225L70 -244H92L98 -262L131 -276L154 -291L231 -315L242 -336Q244 -344 258 -344Q261 -344 299 -336L315 -348H348L373 -369H397L453 -389Q456 -390 463
-393T475 -397L487 -393Q517 -393 542 -406T571 -420Q581 -420 588 -410Q643 -419 664 -436L700 -434L707 -422Q729 -436 750 -436Q767 -436 786 -422H823Q840 -405 864 -401L885 -381Q895 -371 903 -348L936 -336V-315L961 -281L958 -250L983 -217L977 -205Q992
-189 999 -148T1006 -94L991 -61L1001 61L997 86Q997 124 995 128L973 176L991 215Q991 227 979 236T956 246Q947 246 936 231L911 229Q896 211 870 193L827 190L739 176L723 160H709Q653 160 608 137L590 145L565 131L557 143L485 125Q437 127 414 137L406 131L389
143L387 135L354 160L309 150Q293 150 289 160Q216 186 177 232T137 307V332L127 346L131 358L127 389L197 455Q198 456 206 468T229 485Q229 494 240 507T281 520L291 539H313L315 551L360 561Q399 561 446 618L397 670H373L336 688L332 711Q320 712 313 737T291
776Q303 776 307 791L291 795V823L289 848Q289 849 301 874T322 899H324V903Q324 926 354 926L369 969L434 1001Q479 1024 498 1024H504Q508 1034 546 1047L627 1075L700 1094L711 1100L799 1104Q810 1108 815 1108Q826 1108 836 1100T858 1092Q866 1092 874 1100L898
1088Q911 1081 925 1080L963 1077L979 1053L1020 1034L1051 994Q1057 987 1090 969L1085 958L1096 918Z" />
<glyph unicode="&apos;" glyph-name="quotesingle" horiz-adv-x="410" d="M260 928L252 897Q236 862 236 836L242 807Q242 806 234 782T225 719L229 690L217 635L203 633L184 645L188 694Q188 702 184 723Q174 740 174 750V756Q178 760 178 770L176 782Q176 789
178 791L170 803L176 809L168 825L174 844L160 860L168 877L154 891L156 909L152 928L158 942L152 954L156 963L143 979V1006Q156 1030 160 1036L193 1044Q210 1051 215 1051Q236 1051 254 1016L246 979L256 958L260 928Z" />
<glyph unicode="(" glyph-name="parenleft" horiz-adv-x="819" d="M774 1362Q774 1342 763 1333T738 1310T702 1278Q700 1258 680 1249Q644 1228 623 1180L614 1184L610 1147Q568 1107 558 1075T536 1025T524 1001L528 989L506 954L504 918L477 866V840Q442 735
442 633Q442 607 446 582L436 561L444 543L436 524L444 496L436 440L455 383L485 215Q488 207 498 207Q494 195 494 178Q494 165 505 155T516 137Q516 135 512 127L530 80L550 59Q561 47 565 37L575 6Q579 -8 586 -14L594 -23L618 -88H643V-96Q643 -124 662 -145L717
-211V-233Q704 -263 647 -276L629 -270L623 -252L608 -238L557 -164L518 -88L485 -41L492 -23L461 43L459 61L446 70Q448 77 429 122T404 206T389 262Q391 280 391 303Q391 311 379 324L373 393V446L365 492L373 512L362 535Q362 542 367 576T373 618L360 666L373
690L383 774H393L403 838L418 905L432 944L461 989Q471 1036 478 1055T491 1083L503 1101Q510 1110 535 1122Q561 1220 655 1272L659 1290L684 1298Q715 1333 727 1356L764 1372L774 1370V1362Z" />
<glyph unicode=")" glyph-name="parenright" horiz-adv-x="819" d="M512 430L500 406L492 324H479L471 260L455 193L440 154L412 109Q399 51 392 35T365 -12L340 -25Q313 -126 217 -174L215 -190Q179 -201 145 -256L109 -274L98 -272V-266Q98 -248 114 -231T170
-180Q173 -161 198 -147T250 -82L258 -84L262 -49Q301 -14 313 20T337 73T348 96L346 109L369 143L371 180L397 231V256Q432 380 432 469Q432 495 426 516L436 537L430 555L436 573L430 602L436 657L420 717L387 883Q384 891 375 891Q381 906 381 915Q381 925 356
958L360 971L342 1018L314 1050Q313 1051 307 1070L299 1092Q299 1107 289 1112L281 1120L256 1186H229V1194Q229 1220 211 1243L158 1309V1331Q171 1362 225 1374L244 1368L250 1350L266 1335L315 1262L354 1186L387 1139L383 1120L412 1055L414 1036L426 1028Q426
1014 442 979T465 899T485 836L481 801Q481 785 496 774L500 705V651L510 606L500 586L510 569V563Q510 558 504 523T500 479L512 430Z" />
<glyph unicode="*" glyph-name="asterisk" horiz-adv-x="1090" d="M999 702L956 711L938 723L903 733Q840 762 815 768L811 776L768 786L639 860L578 888Q569 893 541 895L530 911L502 899Q498 879 498 866Q498 850 506 815L496 799L506 776L498 758Q504 742 504
723Q504 710 502 702Q512 690 512 674V618L522 561Q522 543 502 543Q497 543 491 550T483 561L469 659L461 739L465 778L460 827Q455 887 432 887Q422 887 414 879L373 846L334 823L319 799L287 774Q272 762 236 721Q217 717 216 716T199 696Q177 659 129 627Q119
631 119 647Q119 668 156 694L162 715L225 754Q241 773 260 776Q268 801 274 809T300 829T328 851T358 874V885L397 903L406 932Q387 971 367 977Q331 967 283 965L250 963Q236 963 180 946L147 954Q113 940 109 940Q92 940 92 954Q92 961 109 991H137L156 997L199
995L209 983L246 997H268L305 1012Q328 1008 332 1008Q345 1008 348 1020L299 1063L279 1071L272 1094L217 1120V1137L209 1155L236 1169L256 1165Q258 1155 287 1141L332 1108L403 1049L422 1024Q457 1030 457 1057L453 1079Q449 1104 449 1120L451 1143Q451 1166
436 1192Q443 1211 459 1227Q442 1263 442 1278Q442 1284 447 1308T465 1333L475 1331H498Q506 1325 528 1274L516 1231L518 1198L512 1192V1169L508 1151L516 1100L506 1071L512 1057V1038L537 1024L549 1044L563 1049L569 1075Q574 1078 599 1093T635 1149Q665
1165 688 1165H694Q694 1188 713 1188H717Q717 1208 735 1208Q742 1208 778 1192Q778 1188 745 1155L690 1100L667 1089Q642 1077 590 1020H627L653 1028L668 1020Q683 1026 702 1026Q722 1026 743 1020L768 1028H838L850 1024L862 1034H903L928 1042L963 1030L965
1024Q965 1016 938 1016H922Q905 1016 878 1012L856 1008L784 1006L768 997H643L627 987Q621 983 563 979Q553 972 553 961Q553 945 573 928V922L643 889L674 866L698 860Q792 795 838 795H846Q846 777 929 742Q960 729 963 721Q989 721 999 702Z" />
<glyph unicode="+" glyph-name="plus" horiz-adv-x="1706" d="M1452 571H893V0H813V571H254V651H813V1221H893V651H1452V571Z" />
<glyph unicode="," glyph-name="comma" horiz-adv-x="510" d="M340 115L322 80L293 63L279 39L248 8L238 -10L205 -33L137 -113L94 -137Q82 -186 47 -197Q32 -243 20 -250L2 -252Q4 -220 6 -209L14 -199Q17 -165 45 -152Q45 -150 54 -137T70 -104L72 -111Q80 -105
80 -98V-92L96 -76L94 -59Q107 -54 119 -35Q133 -6 154 2V16L168 20Q168 80 190 100L205 94L201 127L209 160Q218 197 256 197Q295 197 313 170L336 164L340 115Z" />
<glyph unicode="-" glyph-name="hyphen" horiz-adv-x="698" d="M616 430L594 401L555 410L471 389L406 399L397 391L362 389L332 393L289 383L274 389L211 377Q194 387 182 387Q168 387 143 373L119 381H102L82 426V457L96 459L104 479L125 463L143 461L168 477Q179
475 188 465Q195 463 207 463Q227 463 229 475L264 465L295 467Q289 461 289 457Q289 449 297 449Q299 449 307 453L313 463L332 457L365 461Q369 463 375 463Q385 463 395 453L426 446L446 455Q467 444 483 444Q503 444 526 455L547 444H590Q606 444 616 430Z"
/>
<glyph unicode="." glyph-name="period" horiz-adv-x="510" d="M332 78L326 72L330 49L319 43V27Q308 25 281 -8Q253 -10 227 -18Q220 -17 217 -9T207 0H201Q201 8 197 8Q194 8 190 4L186 12L178 14L180 25L172 33L178 45L164 49V102Q164 114 188 127T217 154L225
160Q245 151 258 150T286 134T319 111L332 78Z" />
<glyph unicode="/" glyph-name="slash" horiz-adv-x="846" d="M821 1174Q825 1164 825 1145Q825 1137 797 1109T750 1044L717 985L659 909L647 872Q623 844 594 797Q593 792 585 787T571 778T561 763L553 741L469 635L459 602L422 549L346 451L338 428V395L307
391L301 373L250 307L242 281L225 274L178 201V178L143 143L135 127Q99 81 94 63L63 49L70 35L45 16L51 -4L39 -29Q33 -41 14 -55Q10 -88 -4 -88Q-12 -88 -18 -78L-4 -41L43 35Q45 66 59 73T74 82L109 129Q111 165 127 168L137 162L156 225L188 246V264Q225 311
231 334L242 340Q260 384 274 406V436L295 475H313L324 508L356 537V559L383 569L387 604L406 610L436 649L438 668Q438 676 455 705L476 724Q485 733 506 768Q537 771 542 811T563 864Q602 873 602 911Q602 922 600 928L647 979L641 1004L662 1012V1032L680 1065V1112Q705
1124 705 1133Q705 1137 698 1143L723 1157L727 1190L776 1194Q796 1178 821 1174Z" />
<glyph unicode="0" glyph-name="zero" horiz-adv-x="1075" d="M963 666Q977 570 977 524Q977 508 956 487L971 469L950 446L967 426L940 397L918 334L879 299L868 272Q847 253 838 236L803 225V203L776 193L758 173Q750 164 717 147L705 127H682L668 109L645 115L610
78L551 55L508 29L471 23L451 9Q441 3 377 -2L360 -23L307 -12L291 -18L262 -12L246 -16L217 -2H186Q153 28 138 33T121 49L109 72L93 89Q86 96 66 147L72 174L59 186L70 231Q61 245 61 260Q61 275 72 285Q76 301 76 315L74 346L102 406L109 455L127 481L141 537L158
578Q162 607 171 626T219 684L213 700L231 733L225 760L246 758L272 793Q303 801 307 846L332 870L344 864L360 885Q369 895 373 918H410L414 938H430V963Q470 965 485 989L551 1010L590 1026H606L637 1034L659 1022Q676 1038 684 1038Q688 1038 701 1024T723 987L758
967L786 939Q791 934 817 926L848 868L879 848Q889 807 918 793Q934 773 934 737V723L956 698L950 678L963 666ZM926 569L918 594L922 627L901 666L905 700L889 721Q884 748 868 793Q822 811 813 862Q787 873 758 895L721 897Q687 952 651 952Q649 944 627 944L600
946L584 935Q578 930 537 922L524 897L502 885L481 895L469 868L450 861Q442 858 399 823L373 792Q360 776 328 754L317 731L252 649L256 623L217 588L219 561L197 545L184 487V485Q184 473 166 460T147 426Q147 416 141 410L143 383L135 360L137 334L111 317L115
301L111 281L125 272L111 252L127 236L104 225L121 193L115 168Q119 159 129 139Q172 49 215 49H217L252 51L274 33Q305 43 322 43L344 39L358 49Q439 50 465 78L502 76L508 102L520 88L549 117L571 109L600 137Q649 150 662 180Q684 180 684 190Q684 195 682 197H686Q708
197 733 231L791 268Q793 287 809 289Q854 337 854 356V360L874 371Q883 402 911 430Q897 433 897 444Q897 452 909 470T922 496V498L915 524L926 569Z" />
<glyph unicode="1" glyph-name="one" horiz-adv-x="1006" d="M928 37Q948 22 948 16Q948 7 932 6L844 4L768 -12L688 4Q692 0 692 -2Q692 -4 685 -5T674 -10Q649 2 618 2L565 -2L514 0L502 -6L432 4L410 0L406 12L348 0L321 -1Q307 -2 285 -14L272 -2H266Q258
-2 252 -10T242 -18H240L229 -10H201Q194 -16 184 -16Q171 -16 141 0Q145 -4 145 -8Q145 -12 136 -15L127 -18Q109 -18 103 -16T94 -7T86 6L59 16L70 29Q54 44 51 55Q62 66 85 73T115 80Q119 80 124 75T141 70L217 80L256 92L305 88L365 72Q385 68 389 68Q405 68
432 78L426 102L432 115L410 160L414 193Q408 201 408 209Q408 217 416 217Q406 242 406 301Q406 311 428 326L430 344L426 379Q434 392 434 406Q434 425 414 442L410 465L426 471L416 492L432 524L420 561L436 580L449 645V653Q449 666 453 682L469 694L453 721Q449
725 449 733L465 776H436Q424 780 416 780Q401 780 391 775T373 769T345 760T324 750H301Q265 732 242 727L217 700L197 711L164 702Q125 699 98 676Q83 685 66 689T14 709L6 727Q15 748 33 748Q39 748 51 743Q62 727 84 727Q91 727 103 731L115 735Q123 735 133
732T147 729Q154 729 163 743T206 764L231 770H244Q270 770 293 788T324 809Q330 803 336 803Q348 803 354 825Q385 831 385 836Q385 838 377 842H399Q408 842 418 877L410 889L420 895L446 889Q456 889 479 898T498 926T494 952Q494 967 502 983L557 997H612L637
971Q641 950 641 948Q641 942 637 938L573 881Q569 877 569 868Q569 854 590 840L561 823Q561 811 569 803L537 776Q541 772 541 770Q541 767 533 753T524 725Q524 720 528 705L519 676Q515 664 513 654T510 630T507 606T494 578L502 561L481 520L487 485L481 455L471
453L483 420L471 383Q481 356 481 352Q481 340 465 334Q483 316 485 299L465 287Q471 277 471 270Q471 264 469 262Q475 240 475 223Q475 198 461 186Q467 164 485 158Q477 138 477 133Q477 122 487 115Q481 109 481 102Q481 90 506 72Q509 55 528 55H535L545 70L561
61L590 70L594 51L643 70L639 55L690 43Q702 49 717 49Q733 49 752 37H772Q791 39 812 44T840 49Q847 49 869 44T905 37L913 23L928 37Z" />
<glyph unicode="2" glyph-name="two" horiz-adv-x="1165" d="M1143 8L1137 -4Q1130 -7 1121 -17T1081 -41L1067 -37L1038 -39V-51Q1031 -49 1018 -49Q1000 -49 989 -57Q981 -53 973 -53Q967 -53 965 -55L942 -47H922L895 -31H877L870 -41L846 -20L829 -25Q819
-4 805 -4H801L780 -8Q760 -8 760 14Q748 8 735 8Q724 8 690 14Q681 33 680 33L662 29Q653 29 635 39T606 51Q603 47 592 47Q577 47 559 68L530 70L524 68H520Q505 68 492 88L479 80L463 90H449L430 92Q415 67 375 61L369 70L352 45Q337 45 320 40T293 33T270 18L236
12V6Q236 0 229 0Q221 0 209 12Q197 0 184 0H139L68 27Q45 52 45 70Q45 88 43 100L57 117L51 129Q73 151 102 154L127 176L147 174L205 205L215 201Q269 211 281 211Q287 211 293 205H344L383 197Q412 178 438 178L465 182L479 172Q501 197 516 197L524 195L571
215L567 223Q610 235 610 240V242L625 270L659 291L727 322Q717 332 717 336Q717 346 733 352V365Q764 375 768 375Q772 375 776 371Q785 394 817 414L825 455L864 461Q869 494 897 496L913 518L930 522Q937 559 946 581T956 614V621Q959 631 969 631L981 666L965
678Q985 681 985 690L979 723V758L946 813Q941 835 915 850L840 895L827 920L801 909L772 930H745L729 954L700 946L664 954L647 952L625 958L586 952L571 961L553 952L537 961L512 952L473 954Q468 940 453 940Q444 940 438 942L401 920H377L371 905L342 893Q333
899 326 899Q314 899 293 868H262V848L246 844Q240 827 227 827L229 811L195 801V797Q195 784 172 768L168 752L123 748L108 764Q106 766 104 773L90 807V817Q90 844 109 854L115 848Q117 890 131 893L150 877L162 905H190L197 922L270 963L293 954L311 977L332
981V987Q358 1008 395 1008Q418 1008 430 1004Q476 1034 518 1034H532L596 1028L647 1030L674 1024Q679 1018 692 1018H705Q743 1012 782 981L801 987L817 979Q823 958 858 954L877 930L932 905L997 834L1006 807L1004 780L1030 772L1024 756L1036 735L1030 702L1040
670L1030 647L1032 614Q1032 598 1016 576T983 521T947 475T926 461L909 422L889 414L885 403L864 401Q870 396 870 391Q870 388 867 383T851 370T831 360T819 352T798 331T778 307L745 281H735Q700 281 700 262V256L692 258Q674 258 659 231Q653 205 608 184L592
188L586 168Q572 165 569 156L547 137H575L586 119Q591 127 600 127Q608 127 614 123Q622 102 645 102L666 104L672 90L702 96L715 74H741Q764 43 797 43Q807 43 807 47V51L889 20Q901 12 909 16L932 20L948 8L1044 -4L1069 8H1100Q1100 20 1124 20H1135L1143 8ZM389
123Q328 143 313 143H295Q281 143 264 154Q251 145 238 145H229L205 133H199Q171 133 145 82Q160 49 207 49L236 57H252L264 68L328 86L389 123Z" />
<glyph unicode="3" glyph-name="three" horiz-adv-x="1159" d="M1055 225L1033 202Q1028 197 1026 188L1020 164L989 147H973V131L954 127L930 96Q895 87 874 77T842 66Q828 42 774 39Q765 31 726 20T686 8L662 12L571 -14L537 -12L498 -2Q485 -2 455 -12L414
-18L381 -12L360 -18Q346 -10 324 -6L299 -18Q294 -18 287 -8T272 4Q269 -10 254 -16Q246 -15 229 -2Q229 -16 223 -16Q221 -16 206 -9T168 0L164 -6L141 12L119 0L94 10Q91 10 85 4T76 -2L72 0V4Q72 14 50 15T24 31T20 92Q20 131 47 131H59Q61 137 116 145L164
152Q167 152 174 146T182 131Q182 124 176 121T115 109Q90 106 88 78L76 70Q113 53 162 47Q172 39 184 39Q198 39 213 51L217 39L281 51Q301 44 301 20Q341 45 414 45Q431 45 453 39Q459 55 469 55Q472 55 481 49Q487 40 498 37Q526 63 537 63H539Q550 49 580 49L625
59L662 55L698 86Q722 82 729 82Q762 82 786 104Q796 102 815 102Q826 102 829 104L825 125L858 152L889 147Q892 153 926 174T985 225Q993 278 993 285Q993 294 991 300T983 311T969 319T950 325T925 339L901 358L840 371L797 360L782 381L760 377L723 410L705
393Q689 399 674 399Q665 399 649 393Q633 410 616 410L597 403Q574 396 553 393L541 406L485 412L446 430L406 428Q370 447 354 461V492L348 514L383 520Q409 545 455 548T502 563L569 561Q583 569 590 590Q638 600 649 612H694L700 627H713Q754 627 754 645Q754
648 750 659Q754 664 817 674Q817 680 833 689T854 715Q909 729 909 760L907 770Q907 774 911 774Q904 824 840 842L758 864L707 860L691 864Q672 868 655 868L602 862L578 864L545 854L508 864L487 862L471 842Q436 840 431 838T410 823L399 831L373 823L365 829L344
817Q336 801 328 801Q318 801 307 809H301Q279 809 262 786H256Q218 786 193 733Q160 733 158 715L129 727L115 750Q109 763 104 768Q106 772 106 780Q106 791 102 797L127 813Q129 821 141 821L160 819L170 834L188 831H199Q211 831 211 838Q209 840 209 842Q227
854 250 856T289 881H317Q338 897 360 897Q367 890 381 892T410 895T454 903L506 918L541 911Q563 926 598 926H612Q629 918 641 918Q643 920 645 920Q654 920 666 905L705 918L745 915L776 918V911L813 897Q816 891 895 874L915 842L937 824Q950 813 954 803L967
774Q962 771 954 750Q922 665 864 651L853 635Q848 629 809 610L760 600L731 578Q683 563 651 545Q646 553 641 553Q635 553 629 541H606L594 524Q551 515 524 498L514 502Q500 490 500 479Q500 469 514 469Q546 459 553 453L580 461L594 453L623 455Q628 446 641
446H651L684 455L715 436L737 449Q751 446 754 436Q801 416 854 416Q867 399 897 399H905L940 397L971 371H993L1022 338L1032 293Q1034 285 1055 262L1051 246L1055 225Z" />
<glyph unicode="4" glyph-name="four" horiz-adv-x="1292" d="M1126 481Q1124 450 1087 432L1081 412L1087 406Q1063 381 1049 381Q1046 381 1038 385Q1020 381 1010 371Q1002 356 985 356H979L966 349Q961 346 928 344L924 338H891L858 348L838 338L811 354L788
348L756 358L735 348V324L719 301L723 268L717 240L723 217Q711 209 711 197V193L700 174L711 137Q699 126 696 104L707 76L690 33Q696 27 696 20Q696 15 690 12Q688 8 688 2Q688 -6 694 -17T700 -33V-66L719 -78L739 -121Q729 -131 719 -131Q707 -131 686 -125L684
-88L666 -66V-35L651 -18L659 0L647 12L651 23L643 59L651 72L639 88L651 111L643 141L655 193L653 203L655 219L651 225Q651 244 666 256L659 272Q662 280 662 295L657 328Q657 332 664 338V344Q664 371 642 379T554 395L522 399H479L463 410L428 399L408 416L365
414L350 426H326L309 432L291 416L270 420Q234 403 195 393L182 381L160 377L156 365L125 356Q123 354 117 354L84 356Q78 356 74 350T66 344H61L53 360L41 365L31 389Q43 427 76 430L84 453Q116 478 127 479L195 485Q218 491 221 508L264 498L291 502L307 543L326
557H340L336 578L373 588Q385 627 408 641Q408 649 422 661T447 686T471 715L480 730Q483 737 510 754Q513 787 530 793Q539 823 567 848Q582 851 582 860Q582 863 578 874Q620 890 627 905Q615 912 608 934L641 954Q648 1026 684 1026L696 1022Q706 1002 719 993L717
983L719 971L707 956L711 938L686 905L684 881L664 874L643 825V821Q643 813 611 783T555 721Q561 709 561 705Q561 701 546 693T526 679T519 668T504 647T490 629T484 617T446 590L444 573L428 563L362 506L395 485H430L459 471Q466 481 471 481H483Q506 453 530
453Q546 453 575 461T614 469Q629 469 651 446H657L682 444Q700 444 700 471V498L723 524L719 545L727 563L723 594L735 600L727 629Q756 663 756 678Q756 684 754 686H748Q748 691 764 717V768Q774 769 774 788Q774 799 772 807Q780 823 780 838Q780 849 775 859T770
877Q770 887 774 901L793 963L788 1020Q788 1024 796 1034T819 1044Q866 1005 866 956L846 934L850 868L840 842L846 829L831 807L836 776L831 774L823 741L805 694L807 659L768 492Q754 465 752 453Q761 416 774 416Q778 416 786 421T795 426Q810 426 823 410L866
416L903 395L950 406H956Q971 406 979 420L1001 428L1016 418Q1032 434 1038 439T1075 455Q1088 477 1108 489L1126 481Z" />
<glyph unicode="5" glyph-name="five" horiz-adv-x="1169" d="M1325 1028Q1311 1019 1292 1012L1260 1010Q1241 1010 1228 1004L1192 989L1155 997L1075 977Q1063 981 1051 987L1024 977L979 983Q977 985 973 985Q966 985 952 971L801 948L733 954L717 946L707
954L625 940L582 950L545 940L516 946L496 926L459 922V901L428 829V809L412 803Q389 766 387 745Q381 739 381 727L365 717Q356 683 326 662Q325 648 291 633L307 610L319 623Q344 606 365 606Q383 606 383 627L430 631Q453 631 467 616Q497 627 512 627Q528 627
545 616L592 627L702 623L733 610Q739 616 750 616Q760 616 767 611T811 605T870 594L928 569L954 530Q958 524 995 506L1012 436L1024 420L1020 393L1022 365Q1010 352 1004 291L995 285Q967 215 958 208T936 201Q881 130 881 115Q864 115 850 96T807 68Q789 63
778 49T751 30T705 19T655 -1T592 -16L569 -14Q537 -14 518 -33L489 -23L455 -35L412 -29L395 -35Q382 -18 358 -18H350Q334 -10 322 -10Q305 -10 287 -16L254 6L231 -2L195 29H160L127 59L51 88L53 109L20 147L2 229Q-2 241 -2 244Q-2 248 2 250T6 258Q6 260 2
268Q20 281 31 281Q52 281 51 262L47 180Q58 161 67 148T83 128T123 109L143 78L170 74Q182 72 221 49H248L270 33L291 37L307 23L387 18L430 20L461 14L506 29Q517 29 537 20L567 37H602L627 43Q668 75 727 78L723 88L727 104H768Q779 118 799 125L815 137Q825
160 836 160H840Q870 175 878 201T899 252L920 250V256Q920 262 935 284T950 330Q950 338 948 344L954 348L952 381L963 399L948 420V453L936 479L866 518L850 535H831L819 541L793 537L772 551L752 541L727 561L702 553L647 563H602L578 569L537 557L506 569L471
557H428L362 545L342 553L291 537L270 545Q233 518 227 508H178L182 541L166 557L176 563V580L201 578L199 623L221 629Q266 677 266 694V698Q273 701 285 732T311 766T330 771T339 785L346 809L373 872L356 885Q350 877 348 872L373 911Q361 918 340 918H326L317
937Q313 946 293 963L309 987L387 1004L397 993L418 1012L463 1006Q472 1020 498 1020H530L627 1012L635 1020L690 1022L723 1010L881 1028L973 1020Q977 1019 990 1016T1012 1012Q1022 1012 1041 1017L1057 1022L1149 1026L1212 1034Q1278 1039 1284 1044Q1302
1035 1325 1028Z" />
<glyph unicode="6" glyph-name="six" horiz-adv-x="1243" d="M1151 397Q1146 358 1114 334Q1114 318 1104 308T1077 274L1075 256Q1021 234 1020 225L997 219Q968 197 954 193L950 180L926 178L915 164Q907 153 873 140L842 127L770 88Q749 76 720 71T684 55L662
66Q651 42 602 33L514 16Q451 -3 436 -12L393 -6L381 -18Q360 -22 342 -31L313 -20L285 16L262 6L246 23L190 47L139 111Q113 202 113 209L111 229L115 266L104 311Q104 324 121 334L133 373Q142 393 142 405T158 455L162 479L184 518Q195 563 217 578L213 590L252
645L262 684L285 700L274 715Q297 744 312 757T341 785T365 801L371 799Q377 799 383 825L399 829V848L432 858V874L446 889Q465 897 479 911Q479 917 498 926T520 939T524 954Q560 987 586 987H594L610 1008L649 1020Q662 1042 682 1042H688Q713 1049 729 1049L758
1044H793Q833 1000 837 992T842 977Q842 973 832 966T817 954Q811 927 774 918Q754 928 733 954L692 946H674L651 938H616L575 909L551 883L508 858L479 831Q461 821 446 803H440Q416 803 416 776Q408 761 387 739T365 711V709Q365 706 344 688T305 651V623L291
612L289 594Q289 592 283 589Q254 572 242 535T211 463L215 424L201 387L184 358V332Q164 301 164 274V266L158 252L168 193L180 178L184 143L209 127V109L236 78L262 102L250 131L262 143L252 168L266 184L268 197L289 209V219L300 263Q306 287 324 301L399 362L436
381Q439 406 469 406Q474 406 487 399Q506 406 506 428V436H535L537 446Q556 455 610 461L627 487L659 492L715 524L786 535Q801 537 803 551Q809 557 819 557H827L846 561L862 553L963 561L977 551L1014 557L1061 528Q1079 522 1093 510T1115 483T1143 451V418L1151
397ZM1094 393V420L1081 453L1065 461L1059 487L1028 492L1010 508L989 506L946 518L893 509Q868 505 850 504T825 500T817 487H795Q750 487 731 471L700 453L658 444Q649 442 635 430H616L602 416H592Q552 416 541 381L498 371Q474 332 426 317L401 276L371 262L328
201Q328 165 307 137Q301 106 301 86Q301 59 311 59L336 57Q348 55 371 43L399 49Q406 47 412 47Q416 47 437 51T477 55Q491 55 612 88Q633 106 678 109Q691 118 706 123L737 131L807 158L840 166L866 188Q890 197 938 229L940 250L967 246V248Q967 254 988 261T1016
287L1038 301Q1038 304 1049 324T1079 352L1094 393Z" />
<glyph unicode="7" glyph-name="seven" horiz-adv-x="1319" d="M1354 539L1300 528L1237 500L1167 510L1151 492L1118 504L1100 485H1051L1020 496Q971 481 956 481L838 492Q836 492 819 487Q819 474 807 469Q795 445 778 432L768 389L741 371L739 354L723 344L702
289L680 281Q672 256 655 250L653 227L635 213Q606 172 598 168L592 147H578Q568 115 553 111Q537 53 514 53L506 55L496 43Q490 -1 455 -18L428 -76L391 -92L383 -109H362V-125Q344 -141 340 -160L309 -174L301 -193L254 -213Q243 -235 221 -262Q200 -265 193
-281L162 -289Q159 -305 152 -305Q147 -305 139 -301Q131 -323 109 -346L86 -344L68 -365L41 -373L15 -386Q0 -393 -14 -394L-53 -395L-82 -379Q-63 -375 -18 -344L25 -346L35 -328H41Q64 -328 68 -307Q74 -291 86 -291Q91 -291 106 -297Q122 -260 145 -260Q151
-260 160 -264Q189 -225 205 -225Q233 -209 233 -195V-188L287 -150L293 -125H299Q315 -125 318 -113T340 -68Q400 -40 436 27Q448 30 456 38T472 62T494 94T517 124T526 145T539 180Q571 184 584 203Q580 209 580 217Q580 231 608 262H618L634 282Q641 291 659
338L698 367L711 410L723 414L735 442Q756 469 756 473Q756 485 741 485Q738 485 729 479T705 473H696L670 487L647 479L592 485L563 479L516 492Q492 502 477 502Q451 502 430 481H414L391 498H365L352 512L362 520Q365 520 365 524Q365 527 357 536T348 551Q348
565 379 578Q391 575 397 561V563Q397 578 461 578Q469 578 489 563H500Q530 551 592 551L643 557L795 541L805 537L807 569L831 578Q841 635 856 635Q862 635 866 633V639L868 674Q868 685 866 690L895 721L891 758L920 768L928 809Q953 824 969 905L985 915L969
934L915 930L903 911L877 915L866 897L823 905L778 889L768 895L741 864L711 881L676 868L651 879Q590 871 571 858Q535 870 514 870Q508 870 496 867T479 864H436L379 862L364 871Q358 874 313 879Q301 872 289 872Q271 872 250 885L238 879L215 889L205 887L145
897L119 889Q78 889 56 909T33 967Q33 988 35 997L74 989L86 1004L98 977Q112 987 121 987Q133 987 163 963T223 938H233L270 946L324 930L356 938L418 926H530L559 922L584 934L594 918Q620 938 635 938Q644 938 659 926L690 946L741 950L823 963L870 977L891
973L903 989Q907 997 944 997Q959 1010 973 1010H979L985 1008Q998 1008 1018 1032T1047 1061L1083 1075Q1092 1079 1098 1079Q1114 1079 1133 1061L1149 993L1108 989Q1070 945 1040 938V885L1020 868L1008 813L987 803Q972 765 960 752T948 721Q948 717 952 700Q928
690 924 678L891 594L864 561L877 545L930 539L967 547Q982 541 993 541Q1006 541 1016 547Q1023 537 1032 537Q1055 537 1083 551Q1121 548 1153 537Q1166 547 1184 547Q1196 547 1202 543Q1218 549 1244 551T1272 563L1350 553L1354 539Z" />
<glyph unicode="8" glyph-name="eight" horiz-adv-x="1081" d="M1038 831Q1017 791 1004 786Q989 754 965 737T930 700H915L911 688L854 649L817 610L768 590L651 520L633 498L606 492L596 471L578 465V453Q535 446 535 410L612 354L711 272L768 236V225L786 201L809
184L825 152Q856 124 856 90L848 49V45Q848 35 827 6T786 -23Q780 -23 768 -18L752 -33Q750 -35 744 -37L711 -49L645 -43Q631 -43 604 -53L594 -39L573 -49L535 -39L502 -51L471 -43L449 -49Q401 -49 373 -33L358 -35L266 -23L236 6L209 12V29L180 20L174 37L158
39V59Q125 90 125 94Q125 97 131 110T137 137Q166 183 168 203L178 213L180 231L203 246Q230 282 236 289L246 285L266 305L291 307Q289 311 289 317Q289 331 322 334L311 348Q324 358 338 358H346Q357 358 387 385Q389 392 420 416Q416 427 406 432L340 465L311
492Q278 501 266 537L252 541L246 569H229Q221 590 197 606L164 684L141 715Q127 723 127 729Q127 737 137 737Q139 743 143 750T147 760Q147 764 141 782Q156 788 162 827L184 848L187 866Q188 874 209 901H219Q228 940 248 940H250V942Q250 951 273 970T311 989L322
987L399 1051Q431 1053 469 1069L479 1065L497 1085Q499 1087 529 1095T594 1106L602 1098L641 1110L682 1106Q690 1103 705 1102L737 1100L846 1081Q864 1072 874 1059L905 1055Q912 1036 939 1028T973 1004Q1012 945 1028 926L1026 911L1038 879L1028 868L1038
831ZM977 848Q989 866 989 881Q989 893 974 914T954 950Q938 965 912 991T882 1019T825 1022L807 1038L797 1028L741 1055L705 1044L688 1055L674 1051L666 1065L651 1069L637 1038L694 989L688 971L700 940Q687 918 664 918Q657 918 645 922L616 971L596 963L588
973L537 971L518 954L498 963L492 954Q461 954 436 940Q445 927 324 901Q317 879 301 879Q275 879 272 848Q265 843 252 840L240 797L219 786L209 745V721L236 694L252 610L285 594L289 578Q310 549 324 528L346 522Q358 518 367 510L389 487L432 479L485 449L506
455L514 449V479L580 512L590 545L627 551Q633 559 654 576L669 588Q675 593 681 599T697 609L720 616Q733 621 743 631L770 659L809 666V678L842 688Q847 711 862 711L872 709Q877 709 879 711L881 723H897Q904 723 908 747T930 774Q948 783 948 797Q948 805 946
809Q977 834 977 844V848ZM803 88V92Q803 125 760 184L723 203L698 240L633 274L594 322L524 354Q485 393 473 393Q466 393 461 381Q455 381 414 362T358 311Q357 310 340 301L272 266L256 240L262 225L246 217Q224 214 220 193T203 167T190 154Q190 126 194 90T239
35T281 16H324L344 4L389 10L430 0L461 4L498 -2L561 4L588 0L662 4L666 20L688 12Q694 8 707 8Q736 8 797 59L803 88Z" />
<glyph unicode="9" glyph-name="nine" horiz-adv-x="1075" d="M887 471Q890 430 866 383L881 389Q881 374 864 365V354L856 328L860 307Q840 280 840 248V240L831 236L805 158V137H793L795 115L774 96L764 59L739 39L735 6L707 -16L717 -35L695 -57Q684 -68 666
-104H651L647 -131L627 -147L625 -164L592 -180L518 -281L479 -307L387 -387L366 -395Q356 -399 340 -420L313 -426L291 -453L217 -487L188 -494L176 -508L135 -516Q127 -518 109 -535L61 -537Q26 -559 2 -559L-10 -557L-35 -559L-53 -582L-96 -580Q-105 -580 -130
-589T-174 -598L-199 -596Q-217 -596 -229 -602L-266 -608L-293 -602L-328 -604L-356 -599Q-369 -597 -377 -597T-422 -573L-453 -575L-518 -537L-539 -502L-541 -487Q-541 -481 -537 -481Q-537 -483 -535 -483L-502 -514L-469 -518L-444 -541L-410 -535L-371 -553Q-311
-553 -299 -569Q-238 -569 -186 -558T-106 -547Q-105 -547 -86 -551Q-35 -520 12 -520H20Q46 -520 61 -508T113 -487T150 -471V-469Q219 -457 242 -416L279 -412L362 -344Q402 -335 418 -301Q455 -274 465 -274H467L483 -262L504 -225Q530 -205 543 -164L570 -131Q575
-125 598 -115L616 -78L635 -59Q645 -35 655 -33Q655 -7 666 6Q702 43 702 96Q736 128 748 152L741 178L764 186L793 287Q805 311 805 328V348L819 442L827 461L819 528L827 551L819 588V633L799 684Q799 717 778 717Q770 717 741 694L723 641L686 610L680 580L655
569Q623 549 571 524L559 502L485 481L479 469L373 442L279 436L233 442L219 440Q200 440 178 455L176 481Q119 502 119 545Q119 564 129 588L119 625L129 674V700L140 722Q145 731 150 776Q171 797 182 831L211 854L215 879L227 881Q245 924 264 940Q280 946 287
963Q301 969 330 1006H358Q375 1045 397 1051Q414 1042 418 1042Q428 1042 430 1069Q488 1069 510 1106L526 1100L614 1106L625 1118L639 1122L655 1118L719 1051L758 971L795 918L805 881L823 864L819 846Q833 825 836 793L850 774Q844 759 844 748Q844 732 856
717T870 694L866 676L881 659L872 635L877 590L883 573L881 557L887 471ZM735 791L727 831L733 862Q733 871 720 890T702 915Q695 955 625 983Q616 1038 582 1038H578L489 1012Q458 1009 436 977L397 971L362 938L340 926L303 866L283 862L267 830Q264 825 238
807L231 791L233 774L207 745L199 717Q187 702 176 674L193 659L176 600L182 578L178 557Q174 553 174 547Q174 540 195 537Q186 534 186 526Q186 513 202 504T287 485Q299 492 313 492H326Q338 495 360 495T397 501T433 510T512 537L522 557H539L555 580H578Q617
612 627 612H631Q639 649 659 649H664Q687 679 711 700L719 741L735 791Z" />
<glyph unicode=":" glyph-name="colon" horiz-adv-x="510" d="M340 666Q340 633 272 569H221Q203 588 184 590L178 610L166 618L164 647Q164 649 186 698H201L209 713V721L231 713L248 715L246 723Q262 729 270 729L293 723L307 694L340 666ZM340 61L328 29Q310
22 291 6T256 -10H252Q248 -10 231 -18Q219 -3 193 12T166 35Q166 37 170 37L174 84L186 98L184 115Q183 122 236 160Q256 153 291 150L313 119L328 113V98L338 92L334 70L340 61Z" />
<glyph unicode=";" glyph-name="semicolon" horiz-adv-x="510" d="M369 678Q360 672 360 666Q360 664 365 645Q365 620 341 606T291 571L256 575L244 565L225 584L211 582Q211 599 201 604Q174 614 174 629L184 645L193 649L182 674V700L193 692L197 725L225 735V754Q240
739 254 739Q273 739 289 748Q297 733 303 733Q307 733 309 735Q365 691 369 678ZM340 115L322 80L293 63L279 39L248 8L238 -10L205 -33L137 -113L94 -139Q89 -159 82 -172T65 -188T47 -197Q32 -243 20 -250L2 -252Q4 -220 6 -209L14 -199Q14 -167 45 -152Q45
-150 54 -137T70 -104L72 -111Q80 -105 80 -98V-92L96 -76L94 -59Q118 -49 124 -21Q125 -16 154 2V16L168 20Q168 80 190 100L205 94L201 127L208 158Q211 176 223 186T256 197Q295 197 313 170L336 164L340 115Z" />
<glyph unicode="&lt;" glyph-name="less" horiz-adv-x="1706" d="M1442 98L264 580V641L1442 1124V1034L397 610L1442 186V98Z" />
<glyph unicode="=" glyph-name="equal" horiz-adv-x="1706" d="M1452 752H254V831H1452V752ZM1452 389H254V469H1452V389Z" />
<glyph unicode="&gt;" glyph-name="greater" horiz-adv-x="1706" d="M1442 580L264 98V186L1309 610L264 1034V1124L1442 641V580Z" />
<glyph unicode="?" glyph-name="question" horiz-adv-x="766" d="M637 874L623 831L635 813L623 801L627 780Q609 766 594 748T568 719T545 684H539Q486 641 487 635L461 618V608L434 602Q426 594 426 584Q426 581 430 569L393 561V545L373 532L375 520L336 487Q322
450 299 408Q308 370 313 324L346 299Q372 295 378 289T385 270L383 258V250L358 254Q344 256 335 263L309 281L289 307Q270 319 270 332Q270 335 274 346L244 354V360L256 397L238 420L256 422L242 440L244 477Q257 482 265 493T276 504Q302 526 307 557H315L332
588L348 594Q356 608 372 621T389 641V645L408 649L430 682Q471 688 471 702Q471 704 470 706T467 711L496 729V743L520 758L524 782Q554 789 565 809Q562 866 553 881L561 907Q557 907 528 965L510 963L500 969L496 983Q464 1012 453 1024L436 1012L438 1022Q438
1042 414 1042L401 1034L346 1042L340 1030Q320 1034 315 1034Q312 1034 282 1027T248 1020H209L131 997Q124 993 121 993Q112 993 102 1006Q135 1040 178 1042Q193 1045 193 1055Q193 1059 190 1061L215 1067L238 1094H258Q281 1109 303 1114L340 1100L358 1110Q383
1107 401 1094L406 1104Q421 1092 434 1092Q443 1092 446 1094L473 1085Q476 1076 485 1067Q493 1071 498 1071Q512 1071 569 995Q603 935 612 928L616 899L637 874ZM389 16L383 -2L322 -18L274 0L266 20L256 16L266 37L260 80H268L272 96Q305 87 307 86L315 88Q327
86 373 55L389 16Z" />
<glyph unicode="@" glyph-name="at" horiz-adv-x="1403" d="M1354 729L1348 694V686Q1348 680 1351 668T1354 651Q1354 623 1346 602L1335 578L1337 547Q1300 515 1295 495T1286 453T1278 420L1239 383Q1231 341 1190 314T1120 240L1085 246Q1068 221 1052 212T973
188L958 201L930 199L924 186H913L903 180L895 186L887 180L852 209L856 238L846 248L852 291V381L862 414L852 428L864 436L858 449L862 461L870 467V483H877L881 528L891 530L885 539L862 530Q852 513 840 506L838 492L821 483L817 463L807 455L805 446Q792 437
784 422L772 416L750 377L713 342L677 303Q666 293 659 276L614 248L565 193Q542 187 526 174Q511 178 506 197Q457 220 457 258L467 262L461 291V317L455 326L463 336L469 375L485 428V436L489 455L487 465Q487 467 492 483L500 485Q512 498 512 510Q512 521 506
530L512 537Q504 537 504 545Q504 553 520 553Q520 573 541 602L530 604L553 633V639Q553 673 586 688V713L592 717Q588 727 588 729Q588 735 594 735H598L600 758Q606 760 606 768V774Q613 783 629 800T651 825H657Q670 825 670 831Q670 834 666 838Q699 840 698
848L723 860L788 862V858L848 844H854Q866 844 866 831L872 834Q873 825 893 825L905 811L934 805V791Q955 806 987 813L985 791L991 784L987 780L995 743L981 729Q969 690 961 678L965 659Q948 643 948 627Q948 622 952 606L946 598L948 588L942 573L944 561L934
549V518L930 514L934 508L930 506V502Q930 497 926 485L930 477Q919 464 913 444L918 426L901 408Q905 399 913 391Q903 374 893 334L903 332L901 324V317Q901 305 889 287H897L901 262H930L936 242Q968 248 989 256L1004 240L1022 254H1034Q1065 254 1073 287H1092L1098
303Q1110 299 1114 299Q1132 299 1139 319Q1162 324 1173 365T1214 410Q1220 448 1241 453Q1237 468 1237 477Q1237 509 1260 522Q1268 531 1272 541T1276 559T1290 600L1278 618V647Q1272 647 1272 653Q1272 662 1290 680L1294 735L1270 756L1288 801L1257 825L1247
907L1221 903L1188 961L1167 965L1139 1004L1118 995L1096 1012H1079L1065 1028L1044 1032L1016 1061L981 1059L942 1087L938 1077Q925 1081 897 1081Q874 1081 862 1077Q825 1073 819 1073Q811 1073 800 1078T784 1083Q777 1083 766 1075L742 1057Q739 1055 719
1055Q697 1055 676 1061Q662 1056 649 1050T621 1038L588 1022Q568 1012 564 1007L553 991L518 989L502 977Q468 972 455 936L438 938Q422 907 369 879L356 836L338 842Q302 802 298 775T264 745L262 733L238 723Q244 705 244 694Q244 676 213 657L212 629Q211
612 204 597L186 557L141 434Q150 423 150 410Q150 401 143 389L154 373Q145 355 145 326L158 270L154 229L168 204Q174 193 180 152L190 156Q207 115 207 109L205 90L219 76L258 20L287 10L295 -4L307 -8Q336 -59 387 -59L403 -74L428 -70L446 -88H471L500 -111L510
-102L543 -113L561 -106Q569 -102 575 -102Q582 -102 616 -118T668 -135Q688 -135 758 -117Q765 -121 784 -121Q805 -121 823 -111L858 -100L893 -98L932 -74Q1005 -62 1071 -20L1084 -9Q1090 -4 1135 16L1180 6H1192Q1223 6 1223 -33Q1223 -37 1214 -48T1188 -63L1182
-70Q1160 -72 1131 -97T1079 -123L1067 -121Q1058 -121 975 -160Q971 -158 961 -158Q944 -158 926 -170L889 -180L827 -190Q807 -195 797 -195Q784 -195 766 -189L750 -184H688Q672 -172 647 -172L621 -176Q605 -175 592 -175T547 -164L531 -155Q524 -152 500 -150Q495
-145 487 -143T462 -140T436 -133L414 -121Q406 -123 393 -123Q367 -123 358 -108T338 -92L326 -96H307L299 -66L252 -45L238 -18L203 -4L193 25H186Q165 48 141 86L133 127Q131 135 117 152L113 174L98 182L100 199L92 221L94 242Q96 246 96 256Q96 271 86 295L78
334L86 395L84 422Q106 460 106 481L102 500L117 524L121 575L168 674L199 762L236 795L274 852L319 901Q331 913 354 943T392 986T444 1016L508 1044Q580 1100 596 1100H621L637 1115Q647 1124 658 1128L686 1137Q692 1124 702 1124Q706 1124 720 1134T752 1145H762L780
1135L793 1159Q837 1152 870 1139L887 1153Q908 1147 920 1147Q932 1147 938 1153Q953 1150 963 1139Q986 1139 1004 1128L1040 1116Q1082 1110 1105 1096T1147 1073T1182 1044Q1190 1029 1207 1026T1228 1018T1260 965L1286 954L1292 918L1310 902Q1321 893 1325
882L1337 852L1327 834L1343 803Q1333 789 1333 782L1335 750L1354 729ZM903 672Q901 717 895 723L877 733Q839 768 831 768L821 766L815 774H795L791 780L774 776L768 780H758Q736 778 721 770L690 752Q686 749 674 745L672 737Q654 730 604 637L612 633L596 618L600
606Q584 587 584 561L573 549L571 524Q562 514 561 502L555 498L553 473L547 467Q545 457 537 432L543 416Q531 408 524 401L530 393L520 381L528 354L514 340V311L508 295L516 293V281L526 279L535 268L563 276Q572 292 592 295V305L612 311Q612 317 621 324T659
362H653Q678 383 690 387L702 412Q716 415 731 436H739L754 455L752 465L762 467V471Q762 474 770 485Q770 488 786 508L793 506Q793 519 807 530Q807 537 829 553H838L840 565Q844 565 844 569Q844 571 840 580L868 606L870 621L883 625L881 641Q887 648 891 662L903
672Z" />
<glyph unicode="A" glyph-name="A" horiz-adv-x="1442" d="M1376 506Q1376 491 1362 485L1329 496L1292 467L1249 473Q1223 455 1192 455Q1168 455 1161 444Q1136 455 1114 455Q1093 455 1087 440Q1091 430 1102 422L1096 401L1102 332L1128 293L1133 256L1178
190L1171 160L1202 131L1249 51Q1286 8 1292 -10L1329 -29L1343 -61L1358 -72L1331 -92L1298 -66H1278L1251 -45H1231L1212 -10L1192 0Q1168 48 1139 76V96L1120 113L1118 145L1087 178L1044 281L1030 299L1023 350Q1022 358 997 397V440H973L946 422L905 430L877
412L866 422L844 408L838 422Q833 422 818 416T784 410L758 412H723L688 389L651 397L600 393V383L582 393L557 379L539 393H506L473 379L446 408L432 397L403 408Q369 393 309 303L276 295Q194 169 188 168L170 158L113 84H102L53 4L0 -29L-41 -18L-33 0V29L-18
47L-25 61L12 66L37 80Q70 94 78 131Q120 142 127 178Q176 206 193 270L221 281L287 383V412Q273 423 266 442L305 477V492L352 487L379 504L385 496L412 532Q403 534 403 541Q403 546 432 565L440 553Q442 578 461 612L455 616L479 618L487 645Q512 648 512 666V690Q561
732 561 768V772L588 776L594 805L608 809L629 852L643 842L633 864Q663 867 666 903L680 895V936H694V965Q698 969 717 985T741 1030L764 1053L750 1085Q778 1122 803 1122H807L819 1141L833 1120Q838 1114 851 1107L885 1090L889 1038Q903 1026 915 997L932 991L936
946L952 885L979 838L997 772L1001 729L1030 690L1022 674L1044 649V618L1049 590Q1049 582 1040 569Q1071 496 1112 496L1151 504H1198Q1220 498 1235 498Q1261 498 1275 510T1294 522Q1300 522 1331 504L1376 506ZM987 557Q974 591 954 602L965 631L938 645L930
723L905 762L901 795L887 823V834H881L877 878Q877 885 866 900L852 922Q848 928 836 937T797 958L774 946L760 922L711 852L699 829Q694 819 651 776L643 743L600 721Q585 643 539 631L520 569L479 553V532L473 506Q509 495 524 485L549 487L590 477Q602 473 608
473Q617 473 637 477Q639 479 645 479Q648 479 660 475T684 471L711 477L791 483L856 492Q919 483 936 483Q983 483 983 504Q983 517 965 539L987 557Z" />
<glyph unicode="B" glyph-name="B" horiz-adv-x="1356" d="M1292 332L1280 299L1286 281Q1262 249 1249 223L1227 217L1206 193L1161 172Q1151 168 1142 157L1118 127L1069 145Q1052 146 1024 96L995 109L946 92L936 96Q908 75 881 64T831 52T806 49T772 20L754
33L733 18L694 29Q674 12 651 12L602 18L584 -10L553 4H543Q541 2 535 2Q530 2 522 4T510 6Q497 6 473 -14Q470 -20 453 -20Q435 -20 408 -14L379 -47L348 -35V-27Q348 -15 340 -10Q335 -18 322 -18H313L287 45L289 76L283 119L295 158L289 203L301 242L295 274L299
303Q301 309 301 319Q301 328 297 343L287 375L281 440Q243 443 230 453T209 473Q216 497 236 514T262 532Q269 532 274 524L283 551L295 557L283 598L299 604L287 651L295 664L281 700L295 729L283 739L281 765Q281 780 274 793L258 827L266 866L250 874L254 911L242
936L225 995L193 1028Q176 1026 160 1010L145 1020L127 1010L113 1024L98 1010V1020L66 1028L18 997Q-41 1029 -41 1061Q-41 1073 -31 1073Q-22 1073 -18 1071Q-3 1106 18 1108L47 1094L61 1100Q118 1100 150 1095L176 1090Q186 1090 199 1095L211 1100H225L242
1085Q248 1089 266 1094L313 1075L440 1057Q457 1061 465 1061Q477 1061 504 1053L537 1061Q543 1061 563 1044Q606 1020 649 1020H659L688 1028L700 1012Q710 1018 719 1018Q728 1018 732 1008T746 998L801 995Q833 958 881 958L898 953Q905 950 928 928H963L969
911L1010 885L1018 846Q995 800 986 789T962 769T934 756T899 739L881 743L838 711Q826 715 823 715Q807 715 801 690Q790 698 782 698Q775 698 772 690H754L727 659L690 651Q680 641 667 636T635 628T596 618L584 602H563L539 587Q524 578 510 574L471 565L461
553Q433 547 425 541T397 532Q383 511 383 504Q383 498 389 498H414Q450 498 477 496L588 487L610 496L717 477L735 485Q761 463 768 463Q774 463 774 473H778Q780 473 795 467T836 461H852Q884 446 909 446Q930 446 944 455Q973 446 1028 446L1051 430L1075 436L1141
408H1165Q1187 386 1217 383Q1233 364 1260 351T1292 332ZM932 852L895 871Q889 874 866 903H834L819 911Q773 914 772 932L754 918L733 936L711 941Q700 944 682 958L662 946L635 963Q627 961 610 961Q594 961 571 965L551 969L518 965L492 991L461 983L440 995L426
979L397 991L367 977L334 983L319 965L348 936V885L360 848L348 815L365 762L358 715L369 684L360 651V602L358 590Q358 575 383 569Q394 595 418 599T466 612T492 627L520 631L524 645L569 649L578 674Q588 666 602 666Q618 666 637 684L662 682Q680 717 721 727T774
743L813 758H838L848 780L889 786L905 805V815H909Q932 815 932 852ZM1192 256Q1200 267 1200 287Q1200 297 1199 302T1174 342L1141 346L1126 369L1102 360L1061 383L1028 379L1010 393L969 389Q946 406 928 406Q912 406 899 393Q886 400 881 408H860L729 414L682
436Q679 438 668 439T649 444Q608 438 584 420L557 440L520 436L518 422L477 426Q456 444 430 444Q362 444 362 379L365 358L360 328L373 301L365 274L367 256L365 217Q370 207 375 196T381 162L365 117L375 98L367 80L379 76L383 45L408 33L483 37L516 47L563
45Q579 41 584 41Q606 41 643 68L666 61L766 84L805 104L834 98L889 131H944Q988 147 1042 178Q1046 176 1057 176Q1069 176 1075 178L1085 201L1159 225L1171 250L1192 256Z" />
<glyph unicode="C" glyph-name="C" horiz-adv-x="1245" d="M1239 360L1202 338L1210 307Q1210 281 1159 281L1143 238L1075 193Q1056 164 1036 143Q1006 143 975 119T933 87T909 73T883 62T845 45T815 30T799 29H786Q748 29 688 -18L657 -12L632 -20Q606 -29 596
-29Q583 -29 567 -25T545 -20H541Q527 -31 516 -31Q506 -31 494 -18L459 -14Q450 -14 438 -20L410 -10L391 -18L350 0L332 14Q324 20 285 33L274 59Q225 72 221 73T213 98T197 129T178 148T165 178T149 212Q136 232 130 251T123 289V295L127 358Q115 380 115 401L127
436V471L139 477L143 510L168 604L186 649L195 651L199 682Q209 685 213 717T237 772T258 807Q258 823 250 834L274 842Q294 871 313 885L324 928L350 944L358 977Q401 986 417 1012T457 1044L470 1057Q475 1063 512 1075L518 1071L541 1094L555 1077L575 1073Q606
1085 641 1085L682 1078Q685 1077 697 1071L761 1047L905 956Q914 928 934 913L946 874Q965 828 965 811L963 766Q958 745 958 723Q958 721 961 719Q961 713 948 698T928 674L891 666L878 676Q870 682 868 686L862 697Q858 702 856 714T850 737V768L844 803V852L852
889Q814 956 755 970Q743 973 743 977V979Q742 983 734 987T723 997H680L651 1020Q621 1020 621 1008L602 1020L582 1006L555 1010L535 995Q527 997 510 997Q495 997 479 991L446 944L391 889L348 823L330 815L313 762L285 739V711L250 651L233 584H219L227 545L207
506L213 492H201V461L193 455L195 375L186 315Q210 280 209 262L227 248V223L242 201L233 178L272 137L274 117L338 92L332 66L416 59L442 33L485 47L508 20L555 37Q572 51 582 51Q588 51 588 45L618 47L635 33L668 45H678Q709 45 721 60T764 76Q773 76 793 72Q798
94 836 96Q851 114 887 125Q902 125 946 145L961 170Q972 173 1018 195L1040 223L1075 238L1184 352L1221 373L1239 360Z" />
<glyph unicode="D" glyph-name="D" horiz-adv-x="1278" d="M1198 401L1192 387Q1188 379 1186 364L1184 348L1147 295L1137 274L1112 262Q1100 256 1085 238Q1035 224 1010 205H991L973 201L965 184H932L928 176L915 178Q912 178 902 167T879 154Q869 160 862
160Q847 160 819 145L782 154L758 137Q754 139 745 139Q737 139 717 133T684 127H670Q659 127 630 118T580 109Q564 109 551 113L520 104L487 117L467 104L455 109L440 80L422 96L397 84L389 98Q382 94 354 92L348 51L324 20L316 -1Q313 -10 283 -51L276 -45H266L270
-10L268 41L238 61Q227 72 217 72L176 51H145L129 63L125 80L143 98L145 113L217 131Q225 135 238 135Q250 135 250 141V143L238 184Q236 188 236 195Q236 202 240 212T244 223L238 322L248 346V393L262 426L238 471L262 524L250 664L256 711V754L238 801V874L215
911V932L160 938L117 920L51 915Q42 927 40 945T29 997Q60 1020 82 1020L98 1018Q103 1018 113 1030Q143 1038 184 1038Q209 1020 233 1020Q241 1020 256 1024Q262 1012 268 1012Q272 1012 303 1024L328 1012L358 1020L420 1006L455 983L500 991L514 965L539 958L575
936L598 932L627 918L643 920Q663 920 682 903Q720 902 772 842H791Q815 818 856 809L903 772L956 723Q972 711 981 711Q984 711 997 721L1006 715L1012 682Q1064 637 1092 603T1123 553T1151 524V498Q1151 477 1169 459Q1169 439 1183 424T1198 403V401ZM1122
389L1116 446L1034 557H1020L997 612L973 614L946 635L938 664Q919 682 862 700L846 729L684 827L655 825Q640 825 618 838Q607 852 594 852Q588 852 580 848L569 872L539 870Q535 873 515 876T479 889L471 885Q471 899 453 899Q411 932 340 932Q334 932 326 928L332
905L322 874Q317 868 317 858Q317 841 336 825L315 791Q316 786 326 765T336 729Q336 725 333 712T330 694Q330 689 340 664L326 659L332 616V537L340 524L317 487L332 473L313 422L322 375L301 328L322 289L317 248L326 225L313 195L332 145L459 160Q461 160 470
165T487 170Q498 170 523 165T563 160Q612 160 659 193Q680 195 709 195L758 193Q782 193 801 209Q822 211 841 222T866 233Q877 233 885 225Q905 225 918 238L954 242L958 262L973 256L995 266H1010L1028 289H1042L1120 348L1122 389Z" />
<glyph unicode="E" glyph-name="E" horiz-adv-x="1227" d="M1167 1053Q1164 1038 1157 1030H1135L1120 1020L1092 1030L1059 1028Q1035 1028 1031 1035T1016 1042Q1008 1042 989 1030Q976 1038 963 1038Q950 1038 923 1027T883 1016Q873 1016 855 1018T827 1020Q814
1020 811 1008Q795 1020 778 1020Q749 1020 719 995L698 1006L680 995L633 1010L600 991H563Q530 983 511 979T461 958L442 971L406 942L369 944L342 895L352 856Q332 851 332 803L334 786L332 743L338 735L324 723L332 711Q317 679 317 655Q317 610 371 610Q379
610 396 615T432 615T465 610L496 623L528 612L549 618L569 616L600 623L618 618H623Q635 618 659 631Q677 622 701 624T737 629L764 635L809 627Q815 627 821 639Q872 629 883 629L905 631L975 627L1012 635Q1015 647 1036 647L1083 641L1102 645L1128 635L1155
641L1149 616Q1113 602 1096 602Q1091 602 1075 606T1044 612L991 586L946 590L920 580L901 584L868 565L846 571L764 569Q750 569 737 557L709 565L694 551L668 559L653 545L614 563L586 545L553 553Q549 555 537 555Q522 555 495 547L471 539L397 532L381 541Q370
533 319 524L303 485L322 379L311 365L324 332L322 295L329 285Q332 281 340 225L358 205L348 170L369 176L406 119Q483 59 541 59L578 53Q588 53 621 61L629 72H647Q668 72 675 72T719 96Q747 96 752 104L774 110Q786 113 797 121L825 143Q837 160 856 176L883
178L934 223Q996 241 1008 289L1022 281L1028 313L1055 315L1059 346H1065Q1084 346 1092 322L1022 231L997 225Q961 170 948 162L897 127L864 96L850 98L825 72L731 33L709 4L676 14L666 -2L657 0L641 -14L586 -2L518 -33L469 -14L385 29Q349 48 321 87T263 212T233
307L240 336L225 375L240 393L221 504Q194 538 190 542T186 563Q186 600 203 608T221 618V631Q221 645 240 649L246 678L240 690V748L233 772L256 834Q266 872 272 889L246 922L201 918H197Q186 918 177 926T168 946Q168 965 195 995Q205 999 209 1006Q245 1020
250 1020Q257 1020 264 1010Q270 1024 281 1024Q311 1024 311 1042Q311 1048 305 1057L373 1053L385 1030Q417 1053 451 1053L465 1051L508 1061Q524 1061 549 1075V1061Q567 1077 600 1077L635 1075H641L836 1094L881 1075L895 1100Q900 1085 911 1085Q914 1085
930 1090L952 1077L967 1090L1004 1075L1028 1081L1040 1071L1106 1077L1116 1071Q1165 1060 1167 1053Z" />
<glyph unicode="F" glyph-name="F" horiz-adv-x="1116" d="M997 1053H1051Q1077 1061 1083 1061Q1102 1061 1102 1042Q1102 1028 1081 1028H1073L1044 1012L1008 1024L956 995L934 1006Q920 1014 901 1014Q893 1014 876 1010T850 1006H846L821 1010L778 995L760
997L752 991L657 989L633 993L625 979L592 989L570 978Q559 973 528 973L500 979Q479 979 461 974T395 965L377 946L365 950Q358 941 358 922Q358 897 389 827L373 780L389 768L373 743Q389 740 389 721L379 680L373 598L377 567L451 557L506 571L524 561Q530 557
571 557Q591 557 602 571L641 580L688 563Q737 573 745 573Q757 573 778 580L803 571L836 580L854 569Q901 571 908 573T924 575Q930 575 942 573T958 571Q970 571 979 584L1030 590L1051 584Q1059 588 1065 588L1087 580H1098L1094 569Q1071 568 1036 545H1008L989
532L942 537L902 523Q856 510 840 510L807 520L799 510L737 518L713 506L676 510L647 503Q617 496 600 496H586Q573 496 553 485L530 500L520 502Q508 502 461 481L422 487L406 481L377 487Q364 487 352 369Q352 335 348 307Q360 284 356 274L334 209L346 184L332
158L338 125L330 109Q332 105 332 94Q332 68 316 7T287 -117L264 -104H250L254 -80V-61L264 -51L266 -26Q266 -14 281 18L266 29V51L256 61L272 92L254 98Q258 116 265 134T272 156V160L264 170L266 184L260 215L272 248L266 328L281 408L272 440V477Q272 493 256
500L201 477L160 500L121 494Q117 492 109 492Q94 492 94 520Q94 547 104 559T145 571Q172 571 193 569L254 563H268Q293 563 301 598L291 625V721L281 723L289 834L266 895L264 936L207 963L160 932L141 958Q123 962 119 977Q129 989 129 1030Q160 1030 181 1045T217
1061L274 1055Q280 1055 313 1057L414 1063L483 1053L553 1057Q562 1061 570 1066T580 1071Q582 1071 591 1067T602 1063H606Q611 1063 684 1075L686 1063Q693 1073 700 1073Q710 1073 723 1057L737 1063L791 1069H795L915 1053Q944 1061 973 1061Q985 1061 997
1053Z" />
<glyph unicode="G" glyph-name="G" horiz-adv-x="1485" d="M1376 389L1305 274Q1298 265 1298 258Q1298 254 1325 217L1311 209L1305 137L1284 84L1311 61L1280 45V20L1298 4L1290 -35L1298 -80L1290 -109L1305 -125L1290 -141L1298 -190L1280 -240L1305 -262L1298
-315L1325 -362Q1322 -389 1305 -389Q1297 -389 1286 -377T1274 -362L1264 -297L1239 -289V-262L1217 -207V-174L1206 -160L1208 -137L1194 -131L1202 -113H1186Q1189 -102 1194 -102Q1200 -102 1206 -109L1192 -76L1202 -47L1194 -20L1208 -2L1194 4Q1206 20 1206
39L1194 127L1208 168L1202 178Q1194 180 1194 201Q1190 217 1178 231L1159 217Q1143 196 1122 187T1051 178T983 160L965 143L891 127L858 109H811L778 92L735 96L707 76L680 84L662 66Q649 66 633 70T610 74Q591 74 575 61Q567 70 555 70Q547 70 543 66L535 63L524
66L492 47L461 72L436 59L371 80L358 72L334 84H283L258 104L215 125L137 205L127 266L104 295L119 328L102 348L113 360L98 383L104 393L131 397V422L150 455L154 446Q180 473 180 500L178 510Q221 516 231 584L215 557Q236 612 258 612H262L254 598Q272 607 272
625V631L295 635L291 627L305 631L309 659L319 651V666H342L358 678Q365 684 379 715L422 723Q464 766 465 776L496 786L506 805L545 809L578 842Q611 846 641 864L647 874L651 870L670 885L666 889Q684 901 690 901Q694 901 707 895Q725 932 750 932H793Q810 932
840 965L858 963L891 983L905 979Q919 989 943 994T969 1006L979 1012L989 1010L1034 1012L1042 1028L1067 1024L1110 1030L1114 1038L1147 1024H1178L1214 993Q1233 990 1266 969Q1257 923 1192 911L1128 944L1110 936L1075 950L1051 936L1016 946L956 915L932
928Q869 912 858 905T840 889Q811 866 793 866Q786 866 774 870Q634 790 610 795L604 776H588L567 748L539 743Q515 712 473 693T422 666L371 616L338 590L305 545L240 492V446L229 436L193 342V307Q193 282 212 266T231 229Q231 221 229 217L254 190L309 160L367
143L436 145L518 129L530 131L547 127L666 137Q718 157 811 160L807 168L905 178V184L1016 211Q1037 231 1095 237T1178 250L1174 266H1186V274L1217 283L1208 303L1231 328V365Q1218 371 1217 375Q1223 390 1223 408Q1223 426 1217 444L1280 446L1298 430H1317L1348
393L1376 389Z" />
<glyph unicode="H" glyph-name="H" horiz-adv-x="1503" d="M1516 682L1475 645L1442 649L1413 627L1391 641L1311 618L1296 590L1264 616L1217 553H1233Q1230 519 1206 492H1210Q1219 492 1219 477Q1219 424 1206 389L1217 379Q1217 362 1211 354T1204 338Q1204
326 1212 299L1200 289L1202 190L1184 80H1188L1180 47L1188 33L1184 0L1191 -17Q1198 -37 1198 -57Q1198 -67 1184 -78L1186 -88Q1186 -109 1167 -125L1165 -104Q1137 -61 1137 -45V33L1128 59L1143 72L1128 80L1122 113V143L1128 145L1122 168L1128 248L1126
322L1141 375L1128 393L1137 412V539L1143 604L1104 590L1094 602L1077 590L1057 598Q1023 581 1002 584T973 588Q958 588 946 584L866 557L772 569L762 565Q735 575 721 575Q710 575 687 566T655 557L623 565L610 537L575 563L524 551L504 563L487 547L463 550Q451
551 426 565L424 551L408 557Q369 557 340 548T311 487V412L303 358L311 322L293 283L311 248L297 158L307 125L303 72L317 37L311 20L315 -14L307 -18Q272 -13 270 20L266 117Q225 165 225 176Q225 199 256 209L242 223L244 256L236 281L225 444V496L217 524L182
545L178 604L225 635Q246 696 246 737Q246 748 242 768L260 760L250 780L244 856L256 903L244 983V1028L254 1081L291 1104Q313 1084 338 1077L340 1044L356 1024Q342 974 342 967Q342 951 352 946Q354 940 354 926Q354 893 332 768L346 735L332 715Q331 685 322
635H365L387 627L440 635L473 631L518 635L557 616V621Q557 635 569 635Q577 635 588 627H623L702 631Q724 631 733 627L748 645L762 635Q808 630 819 627Q831 633 838 633L846 631L1069 655L1159 649L1141 678L1151 690L1141 735L1151 768L1137 856L1151 889L1110
1010Q1106 1022 1106 1028Q1106 1043 1119 1053T1137 1063H1151L1143 1100H1174L1184 1077L1221 1085V1053L1245 1061V1024L1231 997L1249 944V918L1260 889L1245 848L1249 815L1237 651L1286 659L1331 662L1407 682L1442 678L1468 682H1516ZM1567 682L1534 659Q1520
662 1520 674Q1520 690 1544 690Q1559 690 1567 682Z" />
<glyph unicode="I" glyph-name="I" horiz-adv-x="537" d="M348 1030L340 1028L328 997L340 991L334 946Q328 937 328 926L334 899V874L324 864L334 852L319 815L324 780L291 715L299 711Q295 701 295 686L299 655V651L276 641L299 590H285L291 571L276 545L295
510L291 496H281Q274 496 274 483Q274 460 299 444Q279 435 277 387L274 365L285 332L274 307L276 231L266 178L287 168Q283 147 278 138T272 119Q272 102 293 76L279 72L305 45L295 29L324 20Q318 -9 301 -29Q283 -23 283 -2L256 33L240 37L248 72L215 109L229
127L209 158L215 201Q211 212 207 221L199 238L215 262L207 289L215 307L188 328L209 358L207 496L221 602L215 707L225 735L215 743L221 768V805L229 819L215 823L225 870Q202 870 197 885H225L229 918L215 922L225 946Q242 960 242 975Q242 990 229 1006L242
1010V1028H262L274 1057L291 1063Q340 1063 348 1030Z" />
<glyph unicode="J" glyph-name="J" horiz-adv-x="537" d="M340 645L326 631L330 588L324 537L332 477L326 461L330 426L301 397L311 383L297 379L313 369L311 336L313 313L293 299L307 270Q287 246 287 205L293 160V109H307L281 96V66L279 37V0L254 -33L264 -47L250
-61Q246 -86 246 -109L231 -127L233 -145L221 -152V-170L207 -190L193 -193Q193 -202 199 -211H184V-248L156 -264L152 -283L109 -360L23 -422L10 -428V-422L-43 -461L-63 -459L-78 -473H-96L-111 -485L-176 -477L-246 -506L-307 -487L-354 -494L-377 -487L-403
-510L-420 -485L-451 -487L-508 -469L-559 -485L-569 -446L-649 -455L-672 -428L-713 -426L-717 -410L-741 -414L-766 -401H-788Q-799 -396 -799 -381Q-799 -369 -772 -369Q-744 -369 -698 -388L-653 -408H-641Q-607 -408 -573 -418T-528 -428H-512L-496 -444L-432
-434L-403 -444V-455L-371 -444L-313 -459V-446L-305 -444Q-266 -444 -226 -440L-190 -436H-117L-100 -428L-92 -410H-63L-51 -393H-37L-16 -379Q-2 -374 10 -362L23 -369L27 -346L55 -322L63 -289L94 -272L109 -211H113Q124 -211 129 -205T135 -166L156 -152L141
-125L160 -104L156 -80Q164 -66 172 -66Q181 -66 188 -76L180 -49L193 4V47H207L213 117V127H219Q227 127 227 131L213 170L227 176V205L221 211L233 248L227 283L242 446L254 487L242 557L260 590L242 618L254 674L231 762V856L213 911V946L199 950L217 1057Q225
1100 268 1100Q278 1100 281 1094L291 1073Q297 1063 311 1053L297 1028L313 995L311 950L326 944V922L332 895L313 870L332 864L326 819L332 711L326 666L340 645Z" />
<glyph unicode="K" glyph-name="K" horiz-adv-x="1497" d="M1499 209L1485 184L1430 109Q1389 76 1354 55T1237 14L1219 20L1190 12L1157 18L1120 12L1110 20L1087 14L1061 20H1026L999 47L952 59L934 80L915 76L887 106Q881 113 870 116L840 125L811 158H752L737
184H717L709 201L680 211L676 250L651 231L635 250L598 276L574 303Q563 315 538 332T496 366T455 395Q437 430 406 430H395L391 446L362 440L358 459L344 455L313 461L291 436L301 365L279 360L297 303Q297 270 272 211Q293 202 297 178Q281 149 281 125V78L266
45L262 16Q258 -17 209 -96L188 -80L197 -51L199 -29Q201 -18 211 -2L203 18L221 29Q201 29 201 47Q199 49 199 51Q199 62 221 76L209 92L225 113L233 109Q228 145 217 168L233 205L221 201Q213 214 213 229Q213 238 225 270Q220 302 220 330T214 362T209 375L221
389L209 430L227 455L217 473V520L209 571L233 598Q221 604 221 631L223 649Q223 662 221 666L227 690L217 696V715Q229 718 229 727L225 748V844L227 856Q233 864 233 899Q217 924 217 954Q217 986 233 1024Q246 1030 262 1030Q278 1030 301 1020L330 981L324
932L338 915L330 895L338 870L311 827L326 760L311 711L315 643L297 612L313 598L340 550Q342 546 372 540T428 524L440 532L461 524L479 537L512 532L522 524Q573 565 596 565Q614 565 633 557V571H651Q679 602 709 602H717L729 616V618Q729 623 739 623H758L825
651Q843 685 853 689T868 694Q874 694 879 690L883 715H897L901 729L928 735L946 768H967Q976 768 981 797T1012 827Q1026 850 1040 856V870L1069 874Q1081 930 1102 936Q1116 956 1121 973T1171 1036V1049Q1171 1079 1192 1079Q1215 1079 1237 1044L1225 1042V1020Q1217
1004 1190 977L1186 950L1167 944L1149 881L1126 854Q1109 825 1105 822T1089 813T1059 793Q1063 772 1069 762Q1022 762 1008 729L985 723V707L961 696L920 651L864 621L825 592L788 584L756 563L700 551Q628 502 596 492L537 471L496 465L553 422L563 408H586L606
375L655 332L715 297L723 274L778 256L825 223L887 190L924 156L963 145L1018 104L1094 80L1153 72L1251 84H1290Q1306 84 1316 96T1335 109Q1338 109 1344 106T1356 102H1360Q1367 127 1386 127H1393L1397 150Q1421 180 1446 195L1448 211Q1471 217 1485 231L1495
225L1499 209Z" />
<glyph unicode="L" glyph-name="L" horiz-adv-x="1257" d="M1247 178H1266Q1290 178 1290 166Q1290 145 1251 145Q1249 145 1238 137T1212 127L1139 117H1092L1072 104Q1061 96 1048 95L1014 92L997 76L901 72L846 45Q803 42 791 23Q765 23 737 33L694 18L645
16L600 0H492L424 18L381 14L365 29L326 33L264 96Q224 139 209 219Q203 250 184 295L201 365L193 436L207 446L209 545L220 574Q225 588 231 641L246 651L233 674V791Q257 831 256 848L254 918L287 958L256 979L268 1016L291 1028L279 1061L305 1071L311 1090L326
1094L348 1090L373 1032Q340 1006 340 991Q340 989 338 987Q338 983 349 979T362 969L340 903V827L319 760L313 694L281 551L291 537L283 518Q279 508 273 470T266 426L272 365L264 342L281 250L279 242L311 168V145L414 80L494 72V66L569 70L647 84H705V76L727
96L836 98L862 115L938 119L973 129L1102 137L1157 154Q1173 150 1196 150Q1219 150 1219 164V168Q1237 168 1247 178Z" />
<glyph unicode="M" glyph-name="M" horiz-adv-x="1747" d="M1642 -33Q1637 -39 1612 -47L1569 -18L1513 51L1497 92Q1491 131 1481 158Q1458 184 1458 270Q1458 284 1462 291T1473 358L1452 401L1458 422L1452 461L1454 506L1440 520L1452 551L1440 569L1452 588L1438
631V696L1421 735Q1420 761 1419 780T1380 823L1354 791L1331 780L1262 684L1202 612L1182 569L1124 504L1047 446L1040 412L999 397L993 369L946 346L930 307L897 295L850 211Q822 211 817 160Q809 158 803 158Q795 176 770 211L774 238L760 256L774 274L761 289Q756
295 745 332L717 358Q709 361 696 381T675 412T657 461L635 487L596 565L555 612L541 641L502 684L461 748Q426 801 406 801Q392 801 380 796T365 791H362V766Q362 698 344 664L301 584L311 532L297 496L256 358L240 313L233 283L207 217L174 160L178 115L143 31Q143
13 162 4Q122 -45 109 -45Q104 -45 93 -30T82 8Q82 12 90 33T104 85T121 128T133 143V193Q133 236 174 256V289L186 336Q184 340 184 348Q184 358 195 389Q209 406 209 426V471L227 504L264 627L254 682L272 696L279 721L281 809Q291 864 291 887Q291 909 264 963L281
997L272 1012Q281 1016 281 1030Q311 1030 319 1044L338 1042L362 1024V1006L385 991L391 944L410 928L418 899H428Q424 891 424 885Q424 867 457 864Q470 858 485 842L489 815L512 791L526 743L618 645L635 590L666 565L694 485L764 360Q786 323 817 295L821 322H858L881
373L924 403Q935 419 961 444V461Q983 476 1006 488T1030 504Q1030 506 1028 506Q1028 520 1040 539H1061L1079 565Q1086 555 1090 555Q1092 555 1092 561Q1092 563 1087 598Q1132 659 1167 659V684Q1167 705 1202 715L1214 711L1219 723L1262 791L1266 805H1280Q1310
837 1325 881Q1338 891 1356 891Q1363 891 1366 885L1380 915L1372 977L1360 1006Q1382 1038 1389 1071Q1411 1068 1421 1063Q1426 1056 1448 1053L1452 1020Q1486 991 1487 988T1489 975L1487 958V903L1499 885L1487 874L1499 870L1495 848L1503 838L1509 795L1520
786L1499 758L1509 754L1503 711L1518 674L1513 627L1532 553Q1537 531 1542 492Q1530 467 1518 455L1530 430Q1538 425 1538 420Q1538 415 1531 401T1520 375L1536 360L1530 248L1550 178V96L1565 80Q1577 50 1585 39T1616 4T1642 -33Z" />
<glyph unicode="N" glyph-name="N" horiz-adv-x="1550" d="M1386 864L1360 823L1364 791L1374 795Q1374 781 1360 748L1348 721V616L1327 569L1331 539L1313 446L1321 422L1305 348L1309 315L1294 262L1309 211L1276 160L1284 131L1266 96L1276 76L1284 -20L1298
-51Q1283 -61 1276 -76L1257 -72L1247 29L1233 33Q1231 51 1231 69T1229 106V146Q1229 168 1223 179L1210 205L1171 211L1149 238L1139 225L1120 248L1087 238L1047 270L1026 266L985 274L961 299L946 295L821 375L807 393L764 412L737 446L713 459L680 492L588
532L522 616L494 618L479 641Q451 653 414 696H424Q405 713 391 743L377 748H373Q351 748 345 734T330 674L311 569L330 506L301 401Q313 338 313 332V324Q313 299 300 284T287 262Q287 257 313 248L301 205V154L291 98L301 76L291 61Q287 0 264 -35H250Q225 -35
225 4V12L250 92L240 125L254 168L240 184L256 217L233 248Q238 272 238 287Q238 303 233 332L242 328L250 348L233 379L250 426L240 487L254 553L242 598L256 696L254 772L264 842L254 864L256 963L279 969Q252 995 252 1016Q252 1028 264 1038L301 1030L311 1044Q330
1029 330 1012Q330 1000 319 983H348L352 936L377 915L381 885L414 864L425 822Q431 798 446 786L514 737V733Q514 717 535 696L582 664L633 604L793 471H811Q833 453 839 438T850 422L915 401L967 358L997 348L1055 315L1110 299Q1161 248 1196 248L1227 256H1233L1237
313L1266 375L1251 389L1257 485L1280 520L1277 543Q1276 553 1257 584L1280 664L1270 739L1290 885L1266 911L1294 995L1284 1006L1298 1024L1294 1038L1325 1053L1331 1038L1360 1044Q1354 1023 1354 1006Q1354 986 1364 971T1374 950L1360 911L1386 864Z" />
<glyph unicode="O" glyph-name="O" horiz-adv-x="1427" d="M1346 551L1327 506L1321 444L1303 426L1282 360Q1279 347 1276 341T1263 331L1241 322L1120 225L1092 211Q1079 205 1051 178V190L967 125L930 109L842 61Q823 70 805 70Q791 70 784 60T768 47L750 51L717
20L700 29L692 18H657L639 0L578 4L479 -14Q473 -12 461 -12L430 -16L395 -10L387 -2L301 12L260 33H242V72L213 61L199 81Q190 92 179 98L147 113Q131 158 129 217L119 231L115 313L143 401L139 444L158 461L143 496L178 524V553L190 580V602L205 627L199 635L209
641L252 739L332 866Q350 872 358 887T401 928L397 946H422L416 958Q439 982 479 995L494 1012H492Q492 1013 531 1018L625 1030L684 1022L729 1024H782Q803 1020 811 1020Q839 1020 854 1038Q864 1028 877 1028Q883 1028 887 1030Q888 1010 907 1010Q915 1001
952 997L967 983L997 979H1036L1092 950H1079L1117 923Q1124 918 1137 895L1167 881L1182 856L1217 842L1285 729Q1292 718 1309 672L1336 599Q1346 573 1346 565V551ZM1280 604L1262 651L1264 666Q1264 676 1259 688T1217 723L1202 762L1190 768L1184 791L1126
852L1075 895L1059 889L985 936Q975 942 943 947T893 963Q893 961 887 961Q883 961 856 965L846 958L815 969L795 958Q768 967 758 967Q752 967 741 963T723 958Q713 958 709 963Q688 952 676 938T635 911L606 918L578 899L545 903L533 898Q527 895 522 891T510
880T492 867T469 850T441 832Q434 827 414 791L416 762L379 746Q373 743 354 721Q339 687 317 666V641Q293 631 289 616L270 557L236 535Q229 410 215 390T195 354T187 318T172 262L184 238L190 201L209 176Q213 170 215 161L219 137Q258 93 316 75T383 59L449
76L463 61H496V47H528L537 72L569 76L651 66Q662 86 676 86L684 84Q729 113 750 113H758L799 139Q807 143 842 145L868 168Q942 170 953 178T972 195T1012 211L1026 250L1032 248L1036 262Q1060 269 1075 289L1094 283L1104 303L1137 328L1192 389L1225 401L1241
436L1268 455L1262 492L1276 524L1268 584L1280 604Z" />
<glyph unicode="P" glyph-name="P" horiz-adv-x="1126" d="M1114 723L1102 698Q1096 684 1084 672L1053 641V627Q1030 622 1018 605T995 588Q977 555 907 539Q882 504 834 504H823V492H782L758 473L735 471Q735 455 721 455L702 440H655L627 414L543 397L532 389L485
393Q483 386 467 358Q458 365 408 369L389 358L360 348Q339 334 315 328L303 289L324 250L313 201L328 145L315 137L332 113V72L340 51V14L387 18Q397 9 397 -4Q397 -35 354 -35H342L309 -47L281 4L244 84V168L223 209L238 225L229 266L233 295L219 313L135 328L113
360L215 369L205 375Q209 379 217 379Q228 379 231 375V422L244 446L250 569L262 584L258 678L266 729L270 842L283 874L299 885L295 915Q295 936 319 936Q389 936 389 889Q389 876 373 844T356 795Q356 777 379 739L360 721L358 666L332 641L340 598L324 551L332
506L324 471L328 444L313 422Q316 388 342 383L393 414H436Q465 442 506 442L520 455Q530 451 549 451Q590 451 631 485L664 487L690 510H717L723 520L831 551Q860 554 860 565Q868 573 870 584Q880 582 893 582Q921 582 928 618Q960 622 963 631T979 645L991 635L1001
666L1016 678L1024 723Q1007 769 979 805L958 809L922 842L846 874Q773 929 690 936V922L655 946L608 944L580 963H547L518 979H489Q468 979 455 995L375 1006Q353 999 313 983L266 1012L238 995L215 1010L172 997V991H154L113 969L85 965Q72 963 45 946Q18 980
12 1020L33 1049V1063Q38 1072 69 1074T125 1090Q148 1085 154 1085Q164 1085 172 1094L190 1085Q207 1090 211 1090Q223 1090 229 1077H328L387 1075L455 1063Q460 1056 472 1052T485 1042L500 1057H508Q530 1057 530 1049Q530 1044 528 1042H557Q612 1026 649
1024L655 1012H711L748 987Q754 983 791 979L801 963H811Q864 963 885 922L911 936V911Q930 906 963 881H987L1006 852L1071 809V786L1114 723Z" />
<glyph unicode="Q" glyph-name="Q" horiz-adv-x="1462" d="M1642 80Q1643 75 1648 70T1653 61Q1653 47 1638 33L1613 24Q1602 20 1573 -2L1559 4L1485 -18L1462 -47L1448 -45L1446 -51L1427 -47L1409 -61H1386L1288 -98Q1285 -84 1260 -84L1219 -98L1190 -84L1165
-98L1133 -94L1118 -109L1081 -80L1069 -92L1034 -72L1001 -66Q971 -42 930 -20L905 20H877L860 41Q852 51 829 61Q819 93 814 97T791 104L745 76H723L694 47L668 51L641 33L614 37L578 18H549L506 -10L471 4L438 -10L399 4L379 -2L315 14H281L260 37L236 33L227
45L217 76L201 92L147 158L127 176L135 205L115 238L123 289L119 375L135 412Q158 417 158 446Q158 463 155 476T152 494Q152 516 180 524L170 532L184 537V571Q221 593 221 659L217 664L236 678V666L248 674L256 711L307 776H299L315 801Q322 788 324 788Q326
788 326 801Q326 806 324 816T322 831Q322 842 342 842Q350 842 356 840Q390 888 412 889L408 905L422 911L424 903L438 944L457 946L590 1006L575 983L594 997L694 1006Q697 993 707 993Q717 993 731 997L844 1030L946 1042Q1085 1030 1132 1021T1184 991H1194Q1232
991 1241 965L1251 963V950Q1261 927 1290 897T1334 843T1348 776V723Q1338 654 1335 604Q1298 575 1294 568T1288 543T1284 518L1264 510L1255 477L1231 471L1237 461Q1227 455 1210 435T1190 412L1165 365L1150 353Q1143 348 1133 328L1073 299L1040 250L1020
242L1009 227Q1004 221 924 190Q904 148 895 145V113L961 47V33L973 16L1008 29L1051 -2L1128 -29L1245 -35L1264 -20L1274 -33L1364 -14H1395L1409 0L1554 37L1561 33V47Q1593 47 1593 72L1642 80ZM1270 588V602Q1298 657 1298 723Q1298 778 1260 850T1176 922L1114
969L987 991L946 977L924 979Q915 983 907 983Q903 983 891 979L885 991L852 977L819 983L780 968Q772 965 754 946Q722 946 703 935T676 915L651 918L623 911L600 915L575 885L561 887Q534 887 506 842Q506 850 502 850Q500 850 476 830L455 815L412 748L389 678H373L356
711H346Q291 686 291 635V618L260 588V571Q238 547 217 485Q214 448 209 436L184 379L188 295L170 266L184 248L201 176L250 125V109Q267 96 280 96H293L367 61Q372 72 379 76Q398 59 412 59H563V66L586 76Q596 80 651 84L668 104Q668 96 672 96Q678 96 684 109Q741
110 745 131Q768 137 768 154V158H778L733 242L707 274L700 307L641 446Q635 465 635 524Q667 527 676 551Q715 529 717 518L739 412L758 383L772 328L819 266V258Q819 201 848 201Q857 201 877 209L881 217H897L918 227L930 256L973 266L975 274Q987 277 988 286T997
295Q1004 295 1008 289Q1018 296 1018 305Q1018 311 1016 315H1036L1051 346H1067L1096 365Q1114 369 1118 401L1143 412Q1148 435 1151 439T1169 449T1184 467V471Q1202 480 1204 500T1214 520L1223 518L1219 524H1225Q1241 524 1241 551Q1251 556 1251 569L1270
588Z" />
<glyph unicode="R" glyph-name="R" horiz-adv-x="1509" d="M1573 137Q1581 115 1581 109Q1581 100 1563 86T1520 51L1497 59L1470 18Q1437 16 1407 0L1348 14L1315 0L1305 -18Q1276 4 1268 4Q1264 4 1264 -2L1253 0L1235 -18L1217 4L1202 -2Q1185 12 1169 12H1104L1085
33L1063 29L1030 47L1010 37L995 61H965L946 84H922Q919 84 910 99T881 125L819 158Q765 184 735 248H711L678 289L618 336L551 414L532 420L501 453Q496 459 459 471Q445 463 434 463Q425 463 414 471V469Q414 467 410 467H389L369 496Q380 508 383 537L408 545V557L434
563Q447 573 459 573Q467 573 476 568T487 563Q490 563 494 569Q503 532 580 532Q647 532 684 545V551L838 557Q891 584 950 584L963 580L997 592L1006 604L1030 602L1061 614H1083Q1100 614 1104 617T1108 633V641Q1133 644 1133 649Q1210 669 1210 717Q1210 740
1188 762L1120 827H1104Q1057 856 1044 856H1024L983 874H958L932 895H885L866 903L754 911L735 922L723 915L700 922L678 915L618 922L557 911L524 922L487 918L455 922L430 911L412 918L375 895L346 899Q332 869 315 848L328 819L322 700L336 598Q314 527 313
510L299 248L315 98L303 18V-2Q303 -18 264 -18H256L266 61L256 92L238 176L250 184Q225 215 225 225Q225 244 248 266L231 299H229Q225 299 225 301Q225 312 250 358Q236 373 236 397L242 430V446Q256 472 256 489Q256 508 242 537L256 571L250 602L262 612Q256
621 256 633Q256 648 270 682L250 678L238 733L248 772L238 856L248 866Q216 899 199 899H193L178 885L131 889L100 850Q79 867 61 870Q45 891 45 903Q45 913 49 922T65 940L92 958L154 965L238 969L256 983V989Q256 1020 303 1020H328Q339 977 365 977Q371 977
408 995L459 983L539 995L645 983L795 979L870 965H928L950 946Q953 958 963 958Q971 958 983 946Q983 932 991 922L1012 918V944L1094 911L1122 889L1126 895Q1144 884 1180 881L1194 864L1212 860Q1245 809 1262 784T1280 739Q1280 702 1249 674T1180 604L1159
603L1143 602Q1137 602 1108 588L1100 571H1042L1026 557Q1022 553 1007 548L977 539Q925 539 885 496L852 518L823 504Q814 510 807 510Q795 510 776 492L748 504L721 492L711 504L674 483L625 489Q610 489 594 485L614 457L664 414L678 389L758 328L776 295L789
280Q795 274 815 225L870 223L932 160L965 145L1010 117L1053 104L1114 80L1137 84L1147 76L1151 80L1159 66L1188 72L1194 51L1217 66L1241 59L1311 66L1339 59L1438 76L1511 96L1516 84L1530 109H1561L1573 137Z" />
<glyph unicode="S" glyph-name="S" horiz-adv-x="1475" d="M1239 422L1255 397L1325 342Q1356 316 1356 248L1358 217Q1358 201 1333 167T1272 117Q1266 104 1247 104H1241Q1213 76 1169 76Q1156 59 1133 47L1090 51L1053 18L1036 29L1010 20Q966 18 963 12L899
18Q857 0 838 0L782 4L743 -14L721 -10Q715 -4 709 -4Q699 -4 692 -14H627L608 -2L594 -14L496 -10L449 -2Q428 -12 416 -12Q394 -12 358 14L324 0L313 12H291Q253 12 219 24T176 37Q172 37 164 33L92 84L47 96Q0 155 0 190Q0 202 14 248L29 246Q48 246 53 270L84
274L70 281L92 283Q109 303 117 303Q139 303 139 266Q112 260 92 238Q92 230 76 221T53 205L59 193V158Q93 139 121 104L146 100Q158 98 186 80L223 84L219 96L274 92L262 84L307 76L313 66H408V59Q421 70 436 70Q444 70 455 66T500 59L504 47L532 45H563L584 37L575
45Q603 57 621 57Q631 57 641 47Q659 59 684 59Q706 59 733 51Q746 61 762 61Q777 61 793 51L866 72L881 92L944 84L995 96L987 98Q991 102 1057 104Q1063 111 1067 111L1081 109L1133 131L1143 127V137H1178V141Q1178 160 1210 160H1225L1233 168L1227 176Q1243
193 1251 193Q1274 193 1274 209Q1300 248 1300 262Q1300 310 1143 375L1053 412Q1018 412 954 436Q926 459 885 459Q859 459 846 455L834 471L805 459L782 485L750 477L692 506H655L631 524H598L584 545L580 535H557L528 569Q430 570 401 604L379 598L365 631L332
666Q305 731 291 748L299 809L332 852Q351 860 360 889Q391 909 408 911Q413 903 420 903L440 932L449 918L453 932L528 958L506 963L526 961Q561 961 569 983Q616 983 674 997L664 1006Q669 1010 682 1010Q697 1010 702 1006L696 1012L713 1010Q733 1010 739 1028H750L774
1030Q780 1030 780 1028V1020Q794 1030 807 1030H819L940 1042L946 1030V1044L973 1061Q983 1040 1014 1040H1024Q1073 1040 1090 1030L1075 1028Q1114 1028 1187 1005T1260 928Q1260 889 1208 881L1200 899L1133 922H1104L1081 950L1038 944L1024 958L1006 936L977
958L915 950L846 969L827 958Q762 955 750 946Q746 948 735 948Q720 948 707 932L659 928L532 881L500 889L453 852H426L406 823L354 786Q346 782 346 778V776Q356 743 358 721L379 711L389 690L420 682L443 666Q453 659 500 641L504 631H551L612 590L637 598Q660
591 685 574T721 557Q730 557 743 565V551L813 545L834 532V539H848L879 518Q934 518 954 506Q966 508 985 508Q1011 508 1030 490T1059 471H1063L1085 477L1100 471H1128L1184 430L1239 422Z" />
<glyph unicode="T" glyph-name="T" horiz-adv-x="1210" d="M1341 991L1331 969L1305 965H1243L1214 958L1190 965L1063 954L1020 965Q967 944 944 944H883L846 958Q846 948 831 944Q803 944 777 936T727 928L686 944L651 928L647 915H629L618 895L610 762L618
743L614 721L616 662L610 602V584Q610 571 605 565T596 532L612 506L608 473L594 463Q594 451 606 432L594 412V389L578 365L588 307L584 223L569 170Q573 162 573 158Q573 152 570 145T568 130T571 117Q571 111 561 91T554 65Q555 63 561 33Q551 6 551 -8Q551
-22 555 -53Q543 -53 534 -50T522 -47Q506 -47 506 12L510 43Q510 60 506 92T502 139L514 283Q498 310 498 313Q498 324 508 332Q500 342 500 350Q500 356 512 362Q504 382 504 389Q504 400 511 418T518 440L516 473Q516 479 535 518Q518 518 518 545Q518 592 530
598V682L518 723L530 809L518 870L530 918Q522 946 502 946Q491 946 483 936L454 933Q438 932 422 922L397 924L373 922V915H356Q322 915 301 928L297 915L254 928L135 932L88 918Q35 964 35 979Q35 983 43 1012H76L221 983L256 995L352 991L442 983L502 1006H518L535
1053L563 1044L569 1024L582 1030Q598 1009 629 995L662 1006Q695 1006 719 979L731 995L807 1010L854 1006Q874 997 891 997H901Q920 1004 932 1004L961 999Q970 999 973 1006L1014 1012L1061 1001Q1071 991 1089 997T1114 1004L1151 997L1253 999L1298 991H1341Z"
/>
<glyph unicode="U" glyph-name="U" horiz-adv-x="1460" d="M1501 -18L1495 -66L1442 -84L1436 -104L1407 -94L1372 -117L1350 -119Q1301 -119 1282 -98T1260 -76L1249 -84Q1206 -61 1180 -14L1188 -10L1147 37L1133 92L1108 131L1094 184L1075 223L1044 412L1042
492Q1028 522 1024 551Q1022 553 1016 553Q1007 553 1006 551L963 492L922 461Q921 450 885 412L865 399Q856 393 823 358Q823 338 801 332L776 303L743 289L715 250L557 127L487 84L462 63Q446 51 435 48L401 37L397 14L389 12L393 4H346L332 -2L342 -10L299 -14Q267
23 256 29V66L238 84L217 209L211 225L205 307L217 348L211 379L217 412L209 518L201 537Q207 546 219 554T231 580L217 598L225 641L209 674V696L225 723L217 762L231 823L223 903L231 950L223 958H238Q238 983 248 983H254Q254 985 248 991Q309 981 322 922L307
899L283 776Q279 752 279 741Q279 722 299 678Q272 549 272 483Q272 465 273 455T289 426Q282 398 281 336L266 313L289 295L270 281Q264 266 264 252Q264 227 275 205T292 149T313 98H346L393 96L397 109Q410 113 412 113Q417 113 422 109V111Q422 121 436 125L440
154L477 145L492 176L524 190Q531 209 547 209Q553 209 565 205L569 225Q607 251 627 254V270L649 274L659 285Q677 285 683 290T696 328L754 358L762 383L776 379L791 414L827 430L834 444L856 461V487L874 496L895 524L928 539L932 557H944L936 565Q949 588 971
588H977V612L991 618L1036 707Q1042 729 1053 762L1061 809L1073 834Q1079 846 1085 881L1088 917Q1090 936 1100 963L1120 979L1151 963Q1166 943 1194 922L1184 903L1188 866Q1188 842 1159 842L1151 834V815L1137 791V754L1122 715L1126 664Q1106 636 1106 629Q1106
616 1118 606T1133 588L1120 584L1108 557L1120 524L1114 461L1133 430H1126Q1112 430 1116 417Q1126 381 1126 342Q1141 328 1141 317Q1141 312 1133 307L1147 262Q1161 196 1198 98L1221 66Q1233 36 1249 20L1307 -35L1382 -51L1391 -35L1411 -45Q1425 -31 1436
-29Q1445 -14 1464 -14L1501 -18Z" />
<glyph unicode="V" glyph-name="V" horiz-adv-x="1294" d="M1210 981Q1224 978 1227 960T1229 936L1223 905L1202 879L1188 836L1167 815L1143 774Q1125 754 1122 717Q1116 688 1096 674T1074 643T1060 614T1037 590T1019 569T1012 557L963 504L934 436L895 389L870
346L854 332L831 299L760 209L727 154L684 119Q683 99 659 61L666 -10Q657 -35 651 -41T631 -47Q615 -47 606 -26T584 19T565 51L545 102Q510 152 502 176L479 242L457 281L455 322L422 403L373 496L319 580L297 649L266 666L240 723L221 739L188 793Q179 809 168
828T147 848H145Q113 866 78 913L76 936Q76 950 90 979L109 985Q140 985 152 977Q157 963 174 963L199 913L221 893Q253 843 260 829T297 791L305 762L324 745L326 721L362 659L365 641L391 598Q417 573 421 542T446 489L459 459L471 414L506 358L502 332L518 307L543
231Q562 169 610 129Q620 129 629 144T666 186L690 205L719 240Q732 250 743 264T763 296T778 320T793 344Q794 342 799 342Q804 342 809 349T826 382T845 416L864 436L877 471L897 496L920 532Q951 561 971 588Q978 591 983 600T995 631T1009 663T1016 678Q1016
682 1014 682Q1016 689 1026 699T1036 717L1034 723L1047 735L1055 768V784L1071 801L1083 834Q1100 850 1100 864V870L1108 911L1119 932Q1124 942 1126 973Q1161 992 1161 1004L1178 997Q1181 999 1190 999Q1204 999 1210 981Z" />
<glyph unicode="W" glyph-name="W" horiz-adv-x="1958" d="M1952 1018L1929 979Q1942 964 1942 956Q1942 953 1940 948T1934 935T1923 898T1907 844T1892 805T1881 784T1876 776L1855 727L1831 684V678L1747 565L1735 520L1694 473L1667 412L1638 401L1626 375Q1599
355 1593 328L1581 299L1561 281L1548 256L1497 184L1489 160Q1485 145 1476 135L1454 109V72L1436 37L1450 -47Q1438 -59 1409 -66Q1403 -72 1391 -72L1364 -59L1337 18L1292 96L1290 154L1249 190L1227 242Q1214 259 1205 290L1191 332Q1184 358 1169 379L1155
400Q1147 412 1145 425L1141 459L1120 473L1104 553L1071 627L1075 641Q1036 699 1036 737V748Q1022 742 1006 707L983 686Q965 677 915 635V633Q915 616 895 605T866 588Q853 588 842 580T812 550T785 519L762 498L715 436L666 358Q636 335 629 329T604 289Q598
259 594 258L571 250V225L553 217L539 176Q524 155 518 129Q502 121 502 109L506 98V92Q506 74 518 61L504 59L512 39Q507 21 492 12L496 -2V-12Q496 -45 471 -45Q453 -45 444 -33L389 47L379 76L322 178L299 262L262 336L256 383L231 430L211 506V532L160 700L168
727L157 739Q156 741 153 747T146 764T137 786V823L127 911L113 932L125 965Q137 980 137 997V1006Q143 1038 160 1038Q184 1038 203 1015T223 954V946L217 932L225 922L217 889V856L242 682L240 664L262 618L283 487L295 461L313 375L328 369V342L338 322Q342
313 346 270L358 266L369 211L383 205Q409 145 428 143Q450 194 455 201H471L506 244L514 269Q518 281 539 303V322Q539 329 582 356L590 393L635 440L649 473L678 485Q680 532 719 537L725 555Q754 555 754 565V571L768 590Q777 611 793 614Q834 636 834 659V664L856
666Q874 686 881 721H895L915 758H932Q943 758 958 776V815L976 839Q981 846 984 863L991 905Q1026 927 1026 938Q1026 942 1024 944H1057Q1088 907 1104 903L1108 874L1102 821L1108 758L1159 631L1155 602L1168 580Q1174 569 1180 532L1198 520L1221 406L1237
372Q1245 356 1251 319L1276 297L1311 209Q1375 92 1384 92V94Q1384 96 1382 100L1391 160L1417 178L1421 201Q1428 209 1460 227L1479 266L1483 286Q1485 295 1509 324Q1534 333 1534 360V369L1563 375L1587 422L1638 477L1683 559L1714 604L1739 659L1766 688Q1782
705 1798 748L1829 827L1817 842L1837 885L1831 903L1847 911V928L1849 946L1831 965Q1833 998 1849 1024L1843 1038H1858Q1866 1075 1884 1075Q1897 1075 1909 1063L1952 1018Z" />
<glyph unicode="X" glyph-name="X" horiz-adv-x="1292" d="M1186 127Q1255 87 1255 63Q1255 37 1224 21T1171 4L1130 18L1098 12H1096Q1092 12 1078 20T1044 29H1040Q987 29 965 76Q963 74 958 74Q949 74 918 86L895 117Q850 145 831 168L705 322L662 389L653
426L631 446H614Q591 423 567 379L549 375L471 307L428 274L403 225L260 109L233 66L188 48Q180 45 160 20L135 18L88 -35L63 -45Q30 -69 16 -72Q-11 -113 -23 -113Q-35 -113 -35 -98L-4 -72Q2 -68 23 -33Q46 -30 49 0Q109 20 127 72L143 80L156 76L188 113Q190
115 199 123T216 140T230 158T274 188L301 217Q321 227 332 256L356 262L414 328V342L438 358L455 393L475 397L502 436L535 446L537 473L567 496V506Q567 566 502 635Q482 652 471 674L455 707L422 735L348 815Q332 842 301 877Q231 910 200 941T168 1010V1030L209
1047L250 1042L279 1010H313V995L344 979L356 944L389 932L406 899L438 885V848L508 776L522 735H537L561 700L586 641L605 626Q614 618 631 590Q659 626 688 647T717 672Q717 674 715 676L733 688V707Q780 750 789 758T799 774L821 805Q842 843 854 856L897 905L909
932Q933 956 935 972T937 994T960 1028T995 1069L1026 1075Q1036 1075 1047 1057T1059 1012Q1059 1006 1039 973T1013 923T981 874Q962 863 946 842Q926 835 926 819Q907 792 905 768Q889 761 883 743Q853 729 840 702T821 668Q799 658 793 641L774 612L741 580L723
551Q694 532 691 527T688 514Q688 505 694 496L711 470Q719 459 737 412L746 405Q752 401 760 390T782 358L829 299L836 266L895 217L938 170L979 154L1022 109H1040L1102 84Q1112 82 1128 82Q1157 82 1167 95T1184 109H1186V127Z" />
<glyph unicode="Y" glyph-name="Y" horiz-adv-x="1350" d="M1337 1085L1321 1071V1038Q1287 1032 1273 1013T1243 991Q1240 969 1225 969L1174 924L1153 889H1135Q1115 852 1102 842Q1069 828 1061 819L1018 768L987 745Q971 733 942 723L922 684L894 667Q881
659 850 627L829 573L758 485Q727 440 711 401L723 379L711 346L721 307L707 262L715 209L729 193Q705 159 705 125Q705 96 696 80Q704 24 702 12L688 -84L690 -131L682 -152L696 -225L678 -256L690 -295L678 -315Q703 -357 697 -374Q682 -420 682 -426L694 -481L674
-532L696 -565L690 -639Q687 -675 664 -682L651 -612L635 -551L631 -494L616 -485L627 -461L616 -426L627 -362L612 -295L618 -238L616 -225L618 -180L610 -84L618 -39L612 14L627 109L608 143L616 184Q616 233 602 266Q618 296 618 319Q618 335 588 442Q562 461
545 492Q530 494 516 510L455 584L424 602L397 651L319 729L305 758L266 807L217 848V870L193 888Q178 899 172 911L154 944Q149 954 121 965Q61 997 61 1071L63 1090H82Q84 1104 100 1104Q118 1104 152 1094L162 1061L201 1044L233 991L279 958L281 915Q281 899
311 895L332 862L362 838L461 690L457 674L479 666L508 627L610 528Q621 519 633 500T651 481Q652 481 669 498T713 565Q719 602 727 602H741Q750 602 750 614V621Q750 633 778 655L776 662Q776 680 821 700L840 729V733Q840 755 887 758Q903 766 903 776Q903 783
901 786Q933 792 945 806L979 846Q999 885 1025 908T1057 932H1061L1079 957Q1087 969 1116 989L1124 1020Q1130 1016 1143 1016Q1161 1016 1161 1047V1049Q1161 1057 1192 1063L1186 1075L1210 1085H1233L1245 1120L1294 1114L1309 1120L1321 1094L1337 1085Z"
/>
<glyph unicode="Z" glyph-name="Z" horiz-adv-x="1804" d="M1520 76L1542 94L1573 158L1583 225L1595 242Q1616 281 1634 281Q1645 281 1654 273T1663 260L1659 215L1638 150L1606 70Q1592 58 1585 35T1573 4L1552 -2L1542 -25Q1502 -34 1493 -61L1468 -45L1446
-51L1430 -39L1421 -61L1409 -51L1384 -66Q1365 -51 1350 -51Q1335 -51 1319 -59Q1318 -49 1278 -49L1217 -51L1161 -25H1141L1135 -39L1108 -18L1085 -33L1055 -10L963 -2L924 14L903 4L836 23V25Q836 31 825 31Q811 31 770 20L756 33L705 29L676 47L582 59H553L469
80L461 76L455 84L424 76L397 84L381 66L361 75Q352 80 311 84L301 92L279 84L266 96L250 84L233 92L209 66L152 59L100 14L82 20H61Q58 35 37 61V86L45 104Q82 119 86 133L143 154Q202 209 221 209Q239 227 260 231L266 250H281Q295 260 309 282T326 307H340L344
328Q377 328 389 346T418 365H422Q430 367 430 389Q444 389 457 397L487 436Q494 444 510 452L549 471L553 504Q592 539 602 539H614L657 594L675 597Q682 598 711 621L719 641L741 649V664Q749 672 758 672Q761 672 767 669T776 666Q781 666 784 676Q784 698 811
707V721L825 715L836 739L854 743L891 799L934 827L946 864Q959 869 993 911H1008L1022 936H1028L1022 946L1042 954L1040 977L1042 997H981L967 1012Q955 986 928 983L913 997L868 991L850 997L836 995H803L788 1006L756 977L741 995L731 997L705 995Q692 993
664 993Q624 993 602 997L555 979L541 991L518 979L485 995L471 991Q465 977 459 977Q455 977 449 983T438 991L424 981L410 995L381 997L365 979L326 995L297 983H291Q257 983 254 1061L281 1075Q298 1073 330 1073L397 1077L416 1069L465 1081L569 1069L592 1081L635
1079Q633 1077 633 1075Q633 1074 639 1072T647 1063L664 1075Q683 1067 700 1067Q719 1067 727 1081Q770 1073 856 1073L885 1079L901 1071Q940 1075 958 1075L991 1073L1034 1079L1090 1073L1143 1081H1153L1176 1079Q1182 1079 1184 1083Q1200 1100 1214 1100Q1217
1108 1221 1108Q1227 1108 1243 1104Q1268 1079 1274 1042L1266 1028L1220 1013Q1210 1010 1196 995L1163 991Q1153 978 1153 973Q1153 966 1163 963L1139 950L1100 911L1059 881L1047 864Q1005 816 995 795L963 791L948 756L915 735V723H905Q903 707 887 700Q858
695 858 678V674L846 666V651Q800 628 794 615T783 596T756 584L745 557Q706 542 690 510H657Q625 500 611 465T594 429L549 414V397L522 379L475 358L422 283L348 238L330 205Q304 193 301 185T297 172Q297 158 311 158H340L422 160L516 154Q530 133 549 133Q554
133 569 137Q597 127 616 127H625L651 143Q659 134 666 113H684Q717 117 731 117Q779 117 807 92L831 96L870 84L883 92L901 76L915 84Q945 80 980 77T1028 61L1044 53L1184 51L1233 37L1323 33L1352 20L1446 29Q1515 55 1520 76Z" />
<glyph unicode="[" glyph-name="bracketleft" horiz-adv-x="819" d="M838 -166Q812 -182 780 -182Q743 -182 711 -160L674 -170L655 -164L618 -176Q601 -176 571 -160Q569 -178 543 -178H510Q502 -174 498 -174Q487 -174 473 -184H470Q421 -188 405 -212L387 -240Q338
-223 315 -207Q262 -227 248 -227Q232 -227 229 -211L295 -174L291 -127Q307 -109 307 -82Q307 -32 295 -29L322 12L313 47L322 59V92L309 98L332 143L324 182L336 209V244L342 266L336 307L340 324L336 365L343 400Q346 416 348 440Q358 447 358 494Q358 507 354
539Q350 542 350 551Q350 559 360 589T375 645L389 754L375 799L387 879L379 936V954L393 973L371 1053Q378 1054 382 1066T387 1081L379 1108V1184L365 1200L373 1206L365 1225L369 1235H346L336 1249L315 1235L242 1253L262 1282Q290 1278 299 1278Q334 1278
348 1300L369 1298L375 1282H393L406 1274L440 1290L461 1282L473 1290Q529 1290 551 1305L575 1298L602 1319L618 1311L637 1319H670L707 1325L717 1315L715 1303Q715 1290 729 1272L696 1267Q690 1266 670 1249H649Q637 1249 616 1239Q589 1233 580 1233L551
1239H545Q522 1239 513 1236T494 1233Q475 1233 461 1241L426 1225L393 1235L406 1194V1167Q434 1096 434 1065V1057L426 1044L434 1038L436 969L444 918L436 883L444 823L436 799L444 743L434 715L440 688L430 678L436 651L426 571L430 510Q422 502 422 494Q422
489 430 473Q414 414 414 393V387L420 332L415 310Q410 288 410 270V258Q401 242 401 221V145L395 111V51L406 12V-53Q406 -152 430 -152Q444 -147 460 -142T489 -136L519 -134Q537 -133 549 -128L580 -117L598 -123L649 -117L666 -104L674 -117L743 -119Q758 -104
774 -104Q790 -104 806 -115T823 -137V-152L838 -166Z" />
<glyph unicode="\" glyph-name="backslash" horiz-adv-x="846" d="M842 -76L827 -84Q807 -76 807 -51Q791 -41 772 0L776 20L754 37L758 51L729 68L717 92L688 129Q677 149 645 180V205L598 279L580 285L571 311L520 377L514 395L485 397V430L477 455L365 606L354
639L270 743Q269 768 251 781T229 799L201 846L176 877L164 913L106 987L74 1047Q52 1087 27 1116Q-2 1134 -2 1149V1155Q-2 1157 2 1178Q28 1182 45 1198L96 1192L98 1159L125 1145Q119 1142 119 1137Q119 1128 143 1116V1069L160 1036V1014L182 1008L176 983L223
932Q221 926 221 913Q221 876 258 868Q276 850 276 831Q276 775 317 770L336 737L357 718Q367 709 383 680L386 660Q387 651 416 612L436 608L440 573L467 563V541L500 512L510 479H528L547 438V410L580 344L592 338Q598 315 635 266V250L666 229L684 166L696 172Q710
158 713 133L750 86Q762 80 767 76T776 60L780 37L827 -37L842 -76Z" />
<glyph unicode="]" glyph-name="bracketright" horiz-adv-x="819" d="M590 1296L524 1260L528 1212Q510 1191 510 1157L512 1133Q512 1123 524 1114L498 1073L506 1036L498 1026V993L510 987L487 942L496 903L483 877V840L477 819L483 778L479 760L483 721L477
690Q471 658 471 643Q461 637 461 575Q461 569 465 545Q471 536 471 530Q471 527 460 502T444 438L430 332L444 287L432 207L440 150V129L426 111L449 31Q438 29 432 4L440 -23V-100L455 -115L446 -121L455 -139L451 -150H473L483 -166L504 -150L578 -168L557 -199Q526
-195 516 -195Q485 -195 471 -215L451 -213L444 -199H426L414 -190L379 -205L358 -199L346 -205Q293 -205 268 -219L244 -213L217 -233L201 -225L182 -233H150L113 -240L102 -229Q104 -226 104 -217Q104 -201 90 -186L115 -182Q127 -180 150 -164L170 -166Q181
-166 203 -154Q224 -147 244 -147Q259 -147 268 -154H276Q297 -154 307 -151T328 -147Q341 -147 358 -158L393 -139L426 -150L414 -109V-82L397 -41L389 -4Q383 8 383 16L385 27L393 39L385 45L383 117L375 168L383 201L375 260L383 287L375 340L385 371L379 397L389
406L383 432L393 512L389 575Q397 583 397 592Q397 602 389 610Q406 669 406 692V698L399 754L406 782Q409 795 409 810T414 836T418 862V938L424 973V1034L414 1073V1139Q414 1237 389 1237L358 1227Q342 1223 327 1222L297 1220Q283 1219 240 1202L221 1208L170
1202L154 1190L145 1202L76 1204Q61 1190 45 1190Q27 1190 13 1201T-2 1223V1237L-18 1251Q7 1266 39 1266Q75 1266 109 1245L145 1255L164 1249L201 1262Q218 1262 248 1245Q248 1264 276 1264H315L329 1266Q351 1269 372 1273T404 1288T432 1325Q481 1306 504
1292Q550 1311 571 1311Q588 1311 590 1296Z" />
<glyph unicode="^" glyph-name="asciicircum" horiz-adv-x="2048" d="M1632 897H1548L1022 1362L492 897H412L946 1462H1098L1632 897Z" />
<glyph unicode="_" glyph-name="underscore" horiz-adv-x="819" d="M819 -297H0V-217H819V-297Z" />
<glyph unicode="`" glyph-name="grave" horiz-adv-x="1024" d="M627 1016L612 991L586 999L567 1020H549L545 1038L530 1036Q515 1057 508 1059T467 1065L451 1092L438 1096L434 1120Q408 1125 397 1149Q357 1164 356 1202H340L319 1225H311Q306 1225 296 1247T268
1284L254 1280V1292Q261 1299 274 1329Q306 1341 315 1356Q331 1347 350 1341L365 1313L406 1262L426 1217L442 1201Q449 1194 463 1159L492 1145L506 1120L535 1104L543 1092Q556 1085 575 1061Q610 1049 612 1016H627Z" />
<glyph unicode="a" glyph-name="a" horiz-adv-x="1014" d="M834 18L805 4L799 -14Q782 -18 768 -25L758 -18L743 -25L711 14V59L696 72L700 135L688 266L696 309L682 332L700 342L688 360L692 379L702 387L700 412H711V453L715 473Q707 475 696 492L664 477Q651
452 637 444L635 422L612 412L608 383L594 373V358Q574 343 565 322L551 313L520 258L471 209L455 182L412 137L401 113L342 72L276 -6L254 -12Q244 -14 223 -33H217Q200 -33 190 0Q113 30 109 86L125 96Q111 135 109 176L98 184L105 195Q109 201 111 215T117 256L131
332Q129 336 129 346Q129 357 135 369Q131 384 131 391Q131 399 135 412L143 414Q160 437 160 453Q160 463 154 469T147 477Q147 484 158 487Q143 490 143 500Q143 510 164 510V514Q164 536 176 554T190 580L176 584L203 627V637Q203 680 231 711L229 748L238 754Q231
763 231 774Q231 780 244 780V813Q254 816 254 823Q254 830 252 834Q258 843 280 867T309 907H315Q338 907 338 918Q338 922 332 928Q373 928 375 944L412 963L518 954V946L604 928H612Q631 928 631 911L641 915Q646 897 664 897L674 899L692 881L735 870V852Q764
871 809 885V852H799L819 842L815 838L831 786L813 766L805 732Q801 715 786 690L799 664Q797 661 788 648T778 602Q784 599 784 592L780 575L782 561L776 539L780 520L768 506L772 461L766 455L772 446L766 440Q768 438 768 432Q768 423 762 414L768 401L758 383Q750
378 750 354L758 328L739 303Q749 282 758 276Q743 255 733 197L750 193L748 182Q750 179 750 168Q750 152 735 127H748L754 96L795 92L809 66Q803 62 803 59Q803 51 823 39H821Q817 39 817 37Q817 32 834 18ZM729 754L717 791L684 801L627 852Q614 860 606 860Q601
860 590 856L580 866H547L537 879L514 870L504 879L487 874L455 879Q432 879 383 856L387 848L369 842L365 834L342 831V819Q322 807 295 754Q278 692 258 649L274 641L248 618L256 602Q238 575 238 539V528L223 506V471Q207 453 205 434L197 426V389L190 379Q190
359 182 324L193 299Q180 294 164 274L172 258L160 242L176 201L158 176L160 127L154 104L164 98L168 84Q185 77 197 61L244 72Q257 102 289 104L285 119Q316 127 317 127T322 139T340 160H344Q350 160 350 168L387 211H379L401 231Q412 242 434 250L449 289Q487
305 492 332H504L524 358L520 375L539 379Q535 386 535 389Q535 392 549 411T571 444L580 440Q583 464 602 477Q606 493 618 502T635 512H649L651 537Q655 541 655 545Q655 551 649 557Q667 587 678 594L682 616L696 627L692 645Q704 664 707 682L725 700L729 754Z"
/>
<glyph unicode="b" glyph-name="b" horiz-adv-x="952" d="M821 309L807 291L811 242L768 182V158L741 127L752 109Q732 90 709 45L668 20Q658 4 642 1T610 -6L606 -18L600 -10L582 -18L569 -10Q557 -10 541 -20L545 -29L516 -25L508 -35L494 -25L457 -45L438 -25L397
-29L363 -19Q326 -9 311 12L287 20L274 59Q272 73 246 80L227 72L199 84L168 154L174 170L162 193V231L154 248L162 281L147 299L154 322V387L162 408L166 539L174 590L166 598L180 645L174 674V702L184 717Q180 775 174 782L193 848L180 918L193 926L184 950V987L180
1049L186 1067L178 1104L186 1108Q176 1113 176 1120Q176 1123 181 1131T186 1149V1155L178 1174Q182 1190 182 1200Q182 1222 166 1245Q166 1260 178 1260L166 1290L174 1315L158 1356L180 1358L178 1376L193 1384Q201 1375 207 1348L227 1331L213 1319L240 1286L227
1268L213 1264Q229 1247 229 1245Q229 1238 221 1235L231 1221L221 1212L240 1198Q231 1190 231 1178L250 1137L242 1114L250 1108L240 1104Q250 1090 250 1083Q250 1074 233 1061L254 1057Q249 1032 247 1014T231 973Q246 967 246 936L240 911L246 893L227 809L246
782L227 748L233 717L227 696L240 678L221 659L227 645L225 627L227 616L221 598L231 580L221 565L231 545L221 537Q227 521 227 512Q227 499 213 487L225 477L221 446V365Q238 348 240 348Q254 348 254 379V387Q263 394 275 411T287 430V444L297 455Q300 495 313
512L311 551L324 553L326 565L332 561L338 590L352 618V631L365 655L362 674L381 700L395 707V721Q411 730 414 754L436 780L446 776V786L457 795Q458 813 483 846Q475 851 475 856Q475 862 485 864L489 874Q499 876 526 895L537 926H549L545 936Q564 950 602 950L586
954L606 965H614L606 973L618 977L614 983H635L633 977L684 969L695 949Q700 940 705 895L723 893L727 864L745 848V823L752 813L750 795L774 782L778 743V735Q778 714 803 674Q796 654 788 649Q798 637 807 637Q815 637 821 641Q821 617 803 608L815 524Q821 521
821 514L817 496L815 387L821 369L815 336L821 309ZM774 459L768 504V539L752 645L733 721L705 791L657 870Q653 881 641 893L610 885L596 889L582 870L555 864V838Q555 834 540 832T516 801Q491 779 484 765T461 735H451L438 688L422 664L395 598Q395 567 383
547T356 500L358 467L330 426L313 358L293 342Q295 340 295 338Q295 334 293 332Q297 322 297 299Q297 270 287 250L272 244L281 211L264 205L266 184L260 168Q242 156 242 145Q242 135 254 135Q246 127 246 121Q246 116 254 109L297 127L326 125Q326 119 330 119H332Q356
119 358 102L362 113L365 96Q387 92 395 86V59Q409 53 428 33H498L555 47L559 59L571 51L588 64Q596 70 633 80L629 92H647V102H653Q667 102 674 126T684 154L741 217V244L764 291V348L770 408L768 436L774 459Z" />
<glyph unicode="c" glyph-name="c" horiz-adv-x="844" d="M782 326L750 291Q749 274 746 263Q744 251 739 241Q733 231 724 222Q719 217 704 187Q693 166 680 149Q667 131 652 117Q636 103 617 91Q589 76 567 55L550 52Q543 51 512 27L489 25L442 -10L426 0L383
-20L342 -10L330 -25L305 -20L281 -25L274 -18L246 -13Q229 -10 217 0L184 27L154 72Q133 95 133 127V135L111 170V201L102 213L106 254L98 287L111 319L102 334L123 367L117 410L122 428Q126 452 141 469L143 516L158 528L152 541L166 561Q172 599 209 690L244
725L254 750L270 778Q275 802 291 823Q312 823 332 840Q330 874 393 874Q402 874 432 864T471 831Q502 831 502 809L561 807L563 788L575 774L573 750L588 731L586 705L590 690L586 649L596 635V614L602 571L561 549L518 600L514 666L506 690V715L482 744Q471 758
436 780L408 768H383Q360 765 340 751T293 692T250 635L248 606L231 592V551L211 524L203 496Q192 474 187 448T176 420L178 387L160 344L164 313L156 311L154 233L150 231L154 213L145 205L175 170Q180 164 186 137L180 131L201 102L217 96L219 76L328 51Q342
66 354 66Q359 66 375 61Q393 74 403 74L418 72Q419 72 432 80T471 90Q488 125 514 125Q524 125 530 123Q582 145 582 162Q593 184 625 184H633Q717 277 713 285Q736 305 748 342L766 354L768 381Q782 370 782 326Z" />
<glyph unicode="d" glyph-name="d" horiz-adv-x="1120" d="M973 96Q951 17 918 -10Q894 -2 885 12L848 70L834 102L807 197V289L801 369L807 414L801 453V510L782 537L774 520L758 518L727 446L690 393H674L669 372Q666 360 658 345T637 309L582 248L539 184L492
135Q476 108 455 84L427 62Q414 51 393 20L358 8Q352 6 334 -14L310 -19Q299 -20 268 -39L250 -35L244 -47L221 -45L156 4Q140 26 132 63T109 102L98 98L119 131L109 164L117 190L113 229L127 291V348L141 369V420Q156 449 156 467L164 473V510L182 543L184 571Q197
590 203 612L213 674Q216 695 236 711L238 733Q240 743 251 760T262 791Q292 822 313 834L309 842Q322 845 324 852Q327 850 336 850Q344 850 348 852L338 856L426 881Q445 883 461 884T477 891V893L510 895L528 885L539 889Q542 879 555 879Q559 879 563 881L596
879V870L604 874L635 848L666 856L684 823L717 796Q723 791 735 766L768 748Q784 731 793 731Q799 731 801 739L815 809L831 846L825 899L834 995L825 1020Q840 1038 840 1063L831 1081L838 1137L831 1194L840 1206L831 1212Q842 1222 842 1229Q842 1233 838 1241Q844
1256 844 1270Q844 1285 838 1300H848Q844 1308 844 1319Q844 1332 864 1343L856 1348L866 1350Q877 1350 881 1333Q896 1330 899 1307H889L891 1274L889 1255H877L899 1231L891 1202L905 1169L895 1155Q905 1131 905 1118Q905 1106 899 1094L915 1081Q905 1075
905 1069Q905 1059 922 1053V1047Q922 1034 905 1024V1006Q905 956 889 834Q891 830 891 819Q891 804 881 780L889 762L877 715L871 665Q870 655 858 631L864 608L852 571L864 543L848 479L858 430L852 401L856 375L844 369Q864 336 864 334Q864 325 852 322L856
309L852 303L866 289L856 256L870 211L864 197L870 182L858 145L868 135H885L899 117L928 125L938 109L973 96ZM778 655L766 659L745 678L728 688Q724 690 713 714T684 754Q673 758 666 766V780L635 786L605 803Q596 809 581 813T539 823L477 815L459 805L440 819L408
809H367L360 791L348 786Q348 769 356 766Q345 748 305 721L291 684L272 674L254 618L248 557L229 539V504Q207 484 207 471L211 422L178 358L170 313L168 244L174 229L160 201L170 184L154 150Q171 118 182 76L201 66L197 53H217Q238 39 242 39Q244 39 251 49T283
59V51Q296 61 299 70Q315 70 315 84L334 92L342 86L348 109L389 125L393 143L422 160V170L444 193L451 190Q459 190 459 205H473V217L506 231L498 262L520 276L506 291Q510 289 518 289Q529 289 543 299L545 307L567 309L590 369L610 389L618 426L643 434Q671 482
688 496V524L707 532L758 635L778 655Z" />
<glyph unicode="e" glyph-name="e" horiz-adv-x="735" d="M655 184Q670 161 670 150Q670 142 652 116T623 61L608 59L586 16L561 12L506 -25L496 -47L479 -45L461 -66H432L426 -76L412 -74Q390 -74 373 -94L360 -84Q339 -94 326 -94Q303 -94 289 -84Q279 -86 262
-86L250 -76Q195 -73 176 -45V-20L143 -2L135 19Q131 29 113 45V61L90 158L94 227L102 266V309L113 346L109 373Q120 382 123 395T135 426Q131 444 127 477L145 492L127 512Q141 535 141 541L131 602Q131 624 137 645Q149 627 164 627Q172 627 203 635Q201 641
201 649Q201 663 217 674Q233 724 262 768Q281 783 281 809H291L301 829L313 834Q317 847 334 864Q357 871 389 911Q393 909 406 909Q409 909 422 932Q457 944 459 944Q468 944 477 932L496 936L506 928H518Q529 895 559 895H565Q568 881 578 874L569 870Q604 853
604 791L598 768L604 711L594 702L571 641L530 590L528 561Q455 501 408 479Q404 467 395 467Q391 467 379 471L334 440H307L268 422L251 432Q244 436 209 440Q178 411 178 365L164 348Q160 310 154 295L143 289L154 215L143 205L145 182L143 154Q143 147 148 116T164
80Q159 66 183 46T236 18V6L289 -2L365 -6L416 0Q447 22 461 27L477 51H496L498 61Q542 76 546 81T551 92Q557 104 569 104L575 117Q620 124 631 176Q641 184 655 184ZM487 651Q495 652 514 676L520 700Q545 742 549 753T553 782Q553 799 539 842L498 856Q482 852
477 852L465 856Q450 856 444 838Q426 838 389 823L383 809Q379 811 375 811Q372 811 370 810T365 807T361 803T358 796T355 788T352 779T339 761L324 743L295 688L280 675Q273 669 269 649T215 553L229 545L236 528L270 518Q299 538 332 545L338 557Q349 553 354
553Q364 553 373 565L397 569L412 594H426L436 616Q463 616 487 641V651Z" />
<glyph unicode="f" glyph-name="f" horiz-adv-x="807" d="M944 1251Q944 1237 932 1225L924 1233L905 1221L889 1260Q870 1315 857 1331T836 1348L821 1337Q798 1353 764 1356L741 1339Q725 1348 709 1348L659 1341Q651 1328 651 1315Q646 1307 643 1307Q641 1307
638 1311T633 1315Q618 1315 551 1192Q543 1138 535 1122L524 1120Q513 1078 496 1044L512 1004L487 993Q480 941 467 924L469 891L440 815L444 776Q444 762 430 733Q420 721 420 694Q420 659 453 659H465Q480 672 496 672H504Q515 672 535 676Q538 679 557 677T592
674H608Q629 682 633 682Q641 682 676 668L721 678Q722 678 731 674T752 670Q768 670 778 674Q789 659 797 659Q814 670 823 670Q829 670 829 659Q829 655 825 635L768 616L707 629Q693 616 657 610Q642 627 631 627Q624 627 590 602Q581 602 553 608L547 598L516
584L494 596L479 594H463Q456 592 443 579T414 565L391 539L397 512L389 479L397 446L375 397L381 311L369 279L375 250L356 201L367 156V154Q367 150 360 127T352 72L350 18Q350 -11 365 -25L356 -51L369 -98L360 -129L383 -240L389 -362L422 -408L408 -418L401
-449Q426 -482 426 -510V-520Q432 -542 432 -555Q432 -581 408 -584L397 -561L381 -551L379 -528L338 -410V-379L324 -362L336 -342L326 -297L334 -262Q334 -261 330 -247T325 -213T324 -190L309 -84L317 -80L307 -29L311 8L301 27L309 41L307 150L315 160V244L324
262L319 332L324 352L342 489Q343 498 347 514T352 539Q352 540 334 580L301 565L270 575L250 563L227 578L221 569L188 563L154 571L96 561L66 567L57 561Q23 573 11 581T-10 621L0 651Q3 664 18 664Q27 664 55 655L61 641L127 649L209 643L266 657L307 655Q335
655 346 641Q346 648 371 657L365 676L375 717L378 755Q379 774 391 805L383 856Q384 859 390 869T397 893V903L416 922L426 989L438 1006L432 1036Q449 1064 455 1085Q453 1089 453 1096Q453 1105 461 1127T472 1159T485 1184T494 1210L492 1221V1227Q492 1241
508 1251L502 1262Q502 1270 520 1282Q542 1315 555 1350Q572 1352 588 1397L618 1407H645L659 1425L696 1413Q729 1430 750 1430L791 1421Q814 1413 817 1413Q826 1413 846 1421Q854 1416 864 1391L895 1370Q912 1329 938 1303L944 1257V1251Z" />
<glyph unicode="g" glyph-name="g" horiz-adv-x="1186" d="M1008 256L991 178L995 160L987 150Q999 128 999 106L995 86L997 45Q997 7 988 -52T977 -131L974 -161Q973 -174 952 -217H963L958 -248L946 -263Q940 -270 933 -297T915 -342T890 -384T855 -424T801
-471L770 -485Q746 -505 733 -506L723 -518Q651 -532 649 -532H645L641 -539Q613 -551 575 -551H502L449 -539L416 -545L401 -532L342 -524L318 -502Q307 -492 266 -469Q212 -447 201 -403L209 -393L201 -356Q208 -346 219 -346Q225 -338 231 -338Q234 -338 254
-342T303 -348L301 -369Q312 -369 330 -381Q330 -389 326 -398L322 -408Q322 -431 340 -434Q340 -447 343 -448T358 -453L444 -481L467 -477L471 -485H516Q532 -485 551 -492Q570 -477 659 -469Q677 -466 692 -453Q730 -449 737 -436H743Q753 -436 762 -432T779
-420L848 -348L887 -289L889 -262L911 -229L915 -199L926 -174L938 -113L954 -53L952 -10V6Q952 51 967 80L954 125V231L940 270V332L922 375L926 444L901 520Q895 526 887 526Q875 526 860 506L864 485L836 473L821 434L795 408L758 348L709 313L651 248Q625 224
604 206T560 172T533 149L523 134Q518 127 496 113L463 98L445 79Q436 70 401 51Q393 37 375 37H369Q328 2 279 2Q259 2 250 4L233 -6Q222 0 190 4Q114 80 106 127L94 207L98 258L121 336L119 360L127 394Q136 429 146 446T158 496L160 528L201 608Q203 612 213
622T248 676L270 700Q286 738 303 748T330 795Q340 807 372 813T416 852L430 848L467 874Q486 897 504 897Q508 897 520 893L580 915L618 907H645L666 893H678Q683 883 717 850T756 809Q755 781 743 762H711L684 805Q647 820 641 831L631 827Q603 840 588 840Q554
840 518 813L504 815L500 801H481L455 795Q444 766 420 766Q396 741 381 733L369 707L350 702L348 688H330L297 631L270 612L258 575L230 532Q225 524 223 485L201 461L178 369L158 346L160 309L135 225L143 197L139 158Q148 150 155 127T176 98L182 78Q203 72
209 66Q224 72 238 72L258 68Q262 68 283 72Q297 89 381 98Q391 109 405 127T432 153T466 175T496 193Q532 202 532 231Q582 251 588 274L604 279Q610 281 625 295T672 354L684 346L692 365L715 373Q713 376 713 383Q713 396 725 408Q733 408 739 410T749 421L756
436L795 487H803L809 528Q821 535 864 659L879 664L868 696L861 729Q856 748 848 760L827 795L840 827L831 864Q841 885 854 885Q860 885 865 882T887 848L907 838L905 801L914 774Q918 762 919 753T927 725T934 696Q934 688 928 688Q937 659 954 635L948 594Q971
564 971 557Q971 545 958 532L963 506L977 500L971 473L979 420Q989 397 989 375Q989 374 987 371Q981 360 981 324L995 313L1008 256Z" />
<glyph unicode="h" glyph-name="h" horiz-adv-x="1051" d="M889 12Q891 2 891 -14Q891 -61 846 -61Q816 -61 805 -10L791 53V72Q793 86 793 106Q793 130 772 160L786 193L778 242L786 266V299L791 328L782 360L791 379V455L793 553L778 618L786 645L768 723V748L735
762L698 728Q690 721 678 715L643 700L586 618L563 612L512 528V518H498L492 500L470 479Q458 466 451 440L430 369L399 329Q393 322 385 295L365 276L356 223L313 182L309 125H301L287 86L254 27Q215 -17 207 -33L197 -29H184L178 -18L160 51L156 164L150 197L156
238L154 309L164 313L178 487L184 520L182 545L193 551L188 565L197 637L207 666L201 696L207 711L201 723L207 791L197 801L203 815L201 893L188 928H201V946L182 1030V1071L174 1090L164 1155Q152 1200 131 1239L154 1272L150 1278Q174 1278 174 1253L203 1227L211
1203Q215 1192 236 1169L231 1151L244 1114L231 1096L250 1081L248 1028L250 926L262 874L254 852L256 813L248 780L254 729L240 678L248 664L244 539L248 520L240 510L231 434L221 412L229 387L225 375L221 307L201 248Q223 222 223 213L207 184Q217 164 217 135L236
150L244 176L276 242L291 289Q324 299 324 332Q330 335 354 381L363 407Q367 420 383 440L385 467L379 473L393 485L397 479L430 520Q446 528 446 545V553Q473 557 473 590L479 594V604L496 608L498 635H512L510 651H524V664Q538 674 541 674Q543 674 543 670V666L545
684H551Q575 684 575 723L600 743L604 735Q619 752 623 776L637 782L643 799L659 801Q668 809 682 811T698 815L694 823Q736 846 745 846Q758 846 778 819Q793 817 793 801L811 786Q811 772 844 717V557L840 473L848 453V303L844 276V225L848 182L840 131Q848 123
852 70L872 45V20L889 12Z" />
<glyph unicode="i" glyph-name="i" horiz-adv-x="623" d="M391 1300Q384 1282 356 1266V1253L338 1233Q329 1221 322 1221Q319 1221 311 1225L256 1159L242 1137L193 1122L168 1085L145 1075Q135 1071 100 1036L88 1044L86 1069L133 1090Q143 1140 158 1146T174
1155V1163L184 1169L188 1167L193 1182H201L193 1200H225V1229L240 1233L250 1249L266 1255L281 1282Q289 1282 293 1294H305L307 1315Q328 1333 332 1356Q381 1340 391 1300ZM594 270L590 250L571 236L563 211L535 203Q522 163 506 152L481 143L459 119Q451 115
424 82H410Q396 62 365 59Q343 32 340 27Q325 17 302 13T272 6L264 -6H231L213 -20L162 18L133 84L129 190L123 211L143 379L156 389L150 494Q150 513 155 529T166 575L174 580Q174 608 160 637L168 664V702L178 715Q176 729 171 747T166 768Q166 784 174 784Q176
782 178 782Q164 814 164 823Q164 838 178 838Q182 838 191 833T207 827Q209 827 217 831Q217 848 231 848Q243 848 244 844T250 805L272 795L254 772L233 641L250 608Q250 585 231 569L225 543L231 520L207 436L209 426L199 358V309L184 276L188 248L184 201Q184
145 201 109L199 98L217 86L238 92L262 82L291 96Q302 105 326 111L340 125L344 119L356 135L377 141Q400 161 428 168Q435 181 457 184L469 203L492 205L487 227H496L500 238L543 260L547 285L586 283Q590 278 594 270Z" />
<glyph unicode="j" glyph-name="j" horiz-adv-x="522" d="M348 1446L319 1430L311 1413Q295 1410 289 1395T272 1372L264 1376L209 1305L180 1286L174 1268H166Q163 1240 135 1212L129 1282L156 1337L188 1366Q229 1469 240 1470L233 1475H250L256 1501L266 1497L272
1507H279L291 1511V1503Q308 1503 313 1500T319 1483Q325 1489 330 1489Q338 1489 344 1483L348 1446ZM297 -6H291L281 -94V-178L287 -193L281 -256L291 -307L281 -332L287 -356Q278 -377 275 -433T259 -510T242 -551Q230 -596 195 -625L199 -633H195Q169 -633
166 -664L156 -659Q133 -669 123 -690L96 -696L86 -707L76 -702L55 -715L20 -707L12 -717H4L2 -707L-10 -721L-16 -711H-31Q-66 -687 -82 -688L-92 -678Q-106 -674 -135 -670L-147 -655L-168 -645L-233 -604L-250 -580Q-290 -556 -300 -543T-319 -502L-340 -488Q-352
-479 -357 -470L-371 -444L-385 -440L-406 -389L-420 -381V-356L-406 -360L-362 -420V-428L-346 -439Q-338 -444 -326 -467L-305 -477V-500L-281 -510Q-279 -518 -242 -539L-246 -545Q-239 -545 -209 -557L-199 -575L-162 -592L-166 -604L-133 -608V-618H-117L-102
-633L-82 -631L-68 -639Q-66 -637 -61 -637Q-55 -637 -49 -649Q-45 -647 -41 -647Q-37 -647 -37 -651L-18 -655Q8 -655 55 -645L51 -639Q78 -623 82 -623H102L109 -608L123 -598H135L143 -567L166 -545H178Q174 -536 174 -528V-520L184 -524L178 -510L184 -500L190
-502Q192 -499 201 -477H193L209 -434L199 -410L225 -336V-289L231 -281L213 -262Q236 -204 236 -193Q236 -185 217 -178L227 -164L225 -141L233 -117L221 -104Q221 -75 240 -51L221 -2L233 27L217 66L233 80V92L221 113V131Q229 131 229 137Q229 143 227 145L233
176L217 229Q213 242 213 250Q213 271 227 291L225 307L227 375L207 444L217 477L207 524L217 539L199 651V739L207 743L188 782L193 809L184 815L193 823L195 838L209 842Q209 881 227 881Q242 881 242 864L256 870Q256 848 273 843T291 831V813L281 815V799L279
768L281 733L279 721L287 696L274 649L281 612L274 551L281 467L274 422L293 406Q274 378 274 365L291 242V217L279 135Q298 110 297 96L293 14L297 -6Z" />
<glyph unicode="k" glyph-name="k" horiz-adv-x="1239" d="M1223 135L1212 113Q1212 67 1196 45Q1171 24 1171 12Q1165 -2 1153 -25L1135 -40Q1126 -47 1118 -68L1051 -104Q1018 -114 979 -117L948 -102H924L903 -86L881 -84L807 -45L643 104L602 168L569 197Q563
211 537 242Q520 256 498 287T442 332L403 410Q404 420 418 473L457 446L479 422Q489 412 541 379H567L578 369Q585 371 598 371Q609 371 621 365Q643 381 678 389T735 406L745 426H791Q792 435 803 440T815 446H821Q852 446 864 496Q895 512 901 517L914 530Q922
537 942 575H946Q966 575 987 651H997L1001 666L997 700L1001 735Q1001 758 942 786Q933 805 915 805H909L897 815Q854 818 809 824T754 831Q719 831 672 801Q646 801 618 795L621 791Q609 789 598 785T577 776T553 762T528 749L502 739L430 680L358 602V588L324
520L307 475Q274 421 274 391Q274 378 283 365Q283 347 272 342Q258 322 258 299L260 281Q260 265 254 250Q235 227 231 215L240 178L231 135L236 104Q221 76 221 41V29Q225 17 225 14Q225 -10 188 -20Q170 -15 162 19L154 45L160 80L154 160L160 178V256L162 283V307Q162
361 166 402T170 444V477L174 496V553L180 575L174 604L180 674V758L174 786L184 805L180 827L174 944L160 1012V1028L170 1104L162 1137L160 1188Q156 1216 156 1227Q156 1268 203 1268L209 1253L221 1260L217 1227L227 1169L213 1108L217 1028L227 995L221 963L225
907L217 864L227 823L221 809L231 780L225 729L217 584Q221 560 221 553L217 524L221 485Q221 463 213 446Q228 431 242 426L266 477L264 487Q264 499 303 587T389 729Q403 732 403 739Q403 743 399 748Q448 777 456 785T471 799T488 810T505 817T519 825T539 838T582
856Q599 880 666 889L745 899L889 889L911 876Q922 870 946 866Q1022 793 1026 793Q1026 796 1020 805L1049 739L1044 723Q1059 706 1059 690Q1059 674 1036 645V627L1014 557L983 512L969 510Q967 500 953 484T936 459Q914 459 895 436Q876 430 872 414Q844 408
825 383Q829 383 831 385H834Q834 377 643 315Q623 326 612 326Q596 326 596 303V299L594 289L610 270L617 240Q621 219 651 205L686 135L739 102L741 92L764 80L772 59L784 61L846 0L922 -31L969 -45L1008 -41L1026 -33Q1058 -27 1088 -8T1120 14L1157 84L1172
103Q1180 113 1190 143Q1202 147 1206 147Q1216 147 1223 135Z" />
<glyph unicode="l" glyph-name="l" horiz-adv-x="623" d="M569 250Q582 241 582 231Q582 206 569 203Q545 164 520 164Q520 155 453 96Q433 91 427 85T399 59Q371 58 362 35L342 29L334 33L328 16H322Q307 16 279 4T244 -10L223 -18H209L197 0L178 16Q166 47 147
70L141 119L143 143L133 156L135 215L133 266L135 291Q141 300 141 307Q141 321 127 344Q135 429 135 438Q135 456 119 475L135 483L141 561L137 594L152 631L141 672Q158 694 158 725V793L164 809L162 909L168 1008Q154 1044 158 1085L164 1147L158 1169L168 1262Q179
1266 191 1272T207 1278Q209 1278 215 1274L225 1241L246 1223L231 1202V1194Q231 1182 238 1169Q236 1135 223 1135L229 1124Q232 1061 240 1038L223 985L236 967Q213 927 213 889Q213 869 231 864L217 825Q225 806 225 801Q225 791 217 774L221 750L211 684L210
653Q209 639 193 588L203 545L197 467L186 459L199 434L190 395L182 334L190 319L182 313Q195 297 195 264Q195 258 186 240L195 217L190 186L199 164L195 147L217 80L242 70Q278 88 289 88L301 86L329 110Q334 115 354 121Q364 139 389 141L399 152L414 150L418
160L438 166L457 180L477 186Q479 187 496 204T528 229Q528 238 541 244Q544 240 549 240Q556 240 569 250Z" />
<glyph unicode="m" glyph-name="m" horiz-adv-x="1763" d="M1729 174L1718 158L1704 154Q1704 134 1691 123T1677 106V102L1671 98Q1665 84 1650 74T1630 63L1612 66L1610 45Q1593 29 1591 29Q1589 29 1565 33Q1543 20 1520 20Q1504 20 1452 29Q1445 39 1438 39Q1431
39 1421 33Q1416 47 1389 61L1393 76Q1370 86 1370 117L1372 135L1348 154L1335 215L1317 248V262L1303 328L1305 354L1290 426L1288 457L1292 520L1284 600L1257 571L1214 496L1196 453Q1156 425 1145 387Q1124 387 1124 342Q1112 329 1103 314T1089 289T1083
279V274Q1049 243 1040 205Q1035 201 1020 174T967 104Q948 96 936 67Q928 48 915 44T901 23V14Q885 14 840 -6Q822 -4 815 18L811 47L799 72V96L782 164Q784 170 784 178Q784 188 774 205L782 274L774 289L782 322L778 340V354L770 373L784 403L774 467L778 485L784
561L770 608L774 645L764 674Q745 721 741 735T727 750Q725 752 719 752Q712 752 668 723L639 684L614 659L559 584L555 561L522 524L508 485Q496 474 489 450T472 423T446 408L444 371Q435 358 426 339T404 308T385 266Q362 266 362 238Q356 217 340 217Q332 197
332 188V182Q307 161 307 156Q307 150 313 143Q290 132 277 105T256 72V63Q256 49 248 43T221 18T188 -2Q173 -2 166 45Q168 49 168 57Q168 73 154 84V113Q154 129 162 145L152 190L154 223L152 258V266Q152 288 162 299L166 315Q166 323 163 346T160 373V406Q166
426 178 438L162 459Q170 466 167 473T164 485Q164 492 174 509T188 545L174 584L180 604L168 674L174 702L162 758L166 795L152 827Q173 875 193 874L201 870L207 842Q233 836 233 809L229 766Q229 753 246 750Q227 721 227 707V700L238 596L233 518L225 496L233
471L227 461L236 446Q221 435 221 420L225 403Q225 388 213 379L221 322L213 301Q204 279 207 264T211 242Q211 229 207 225Q217 205 217 203Q217 195 207 182L227 168L266 219L274 248Q285 254 292 265T302 290T326 332Q330 332 338 342T359 371T389 408Q392 418
398 428T411 446T428 487L451 528L454 543Q457 551 474 570L512 610Q519 610 536 646T574 701T596 735Q614 738 614 754Q636 763 639 782L645 780Q655 780 668 819Q698 846 711 846Q712 846 760 834Q764 826 764 821Q764 817 760 809L774 805Q774 795 803 754V721L821
700V674Q844 625 844 594L836 561L844 532L825 510L836 446Q829 425 829 397L836 342L831 324L836 303L829 295Q844 230 844 184L840 168L831 160Q846 138 846 113L881 102L975 217Q981 223 993 251T1016 297Q1027 297 1031 326T1055 360Q1055 375 1059 381T1094
408V412Q1094 440 1133 471Q1142 502 1159 528Q1187 556 1195 572L1216 612Q1229 635 1235 659Q1268 671 1290 739Q1313 745 1321 782L1354 797L1382 782L1372 772L1386 758Q1370 752 1370 743Q1370 734 1380 729L1366 702L1354 608Q1363 603 1368 594Q1352 570
1352 524L1354 487L1350 473L1356 446Q1354 443 1349 438T1343 426Q1343 420 1350 408Q1362 404 1362 381Q1362 375 1356 369Q1360 364 1360 358Q1360 355 1354 346Q1354 307 1373 263Q1381 244 1389 190L1415 176L1425 131Q1448 119 1454 104L1479 94L1509 88Q1525
84 1532 84Q1543 84 1561 91T1590 105T1628 125Q1645 147 1659 174L1686 186L1698 207L1726 205Q1726 177 1729 174Z" />
<glyph unicode="n" glyph-name="n" horiz-adv-x="1276" d="M1282 311Q1286 295 1257 279L1260 272Q1260 262 1233 230T1206 180L1184 174Q1183 132 1147 125Q1144 113 1137 113H1133Q1130 96 1110 96L1098 72L1069 66L1045 50Q1040 47 1032 45L987 37L971 39L956
37L950 45L932 47L909 76H899Q891 84 891 98Q858 134 858 154V170L844 197V209L854 215L846 244L831 281L834 336L813 369V420Q784 569 784 602V610Q780 626 780 633Q780 641 782 645Q759 680 758 702L748 711L705 666L684 637L612 551L584 500Q569 467 560 452T520
406L526 387L512 348L496 346V328H485L446 281Q444 247 420 242Q411 229 404 204T381 178L373 170Q354 137 338 120T291 80Q284 46 266 39L264 29Q263 15 254 3T205 -20Q190 -18 182 14T158 53L152 66L168 92L166 117L176 127L166 145L168 170L152 215L166 242L158
270Q172 298 172 354V365Q172 370 160 389Q176 402 176 414L172 446L184 524L176 539L178 571L168 590L176 655L172 678L178 715L172 768L186 795Q223 784 226 780T231 762T233 715L250 688L244 649L252 565L238 520L244 467V442L225 412L238 369Q232 360 223 313L233
289Q216 234 217 209L219 135L225 125L250 137H270L281 182Q304 189 309 205Q312 229 340 229Q343 252 354 260Q362 260 373 289Q394 310 406 332V360H408Q416 360 426 374T453 389Q460 415 471 426L500 461L526 518Q522 534 522 539Q522 545 528 545Q569 572 569
598V623Q600 635 600 645Q600 649 597 656T594 666Q594 676 602 676Q609 676 618 670Q633 725 664 725Q670 725 682 721Q682 750 700 768Q704 781 748 799L758 815H766Q783 792 795 786L799 772L809 768L813 729L840 713L831 678L846 614V555L860 485L866 412L887
344L891 276Q892 274 901 257T915 211L924 205V174L942 154L938 139L952 131V121Q971 109 985 109Q1002 109 1016 117Q1023 113 1026 113Q1035 113 1044 129Q1073 132 1073 145V150Q1076 157 1114 170Q1124 182 1135 190L1133 195Q1135 200 1140 206T1160 224T1179
246L1190 268Q1203 286 1229 326L1257 340H1276L1282 311Z" />
<glyph unicode="o" glyph-name="o" horiz-adv-x="836" d="M745 487L731 444L739 426L732 378Q731 369 717 346V322L702 281L690 263Q684 256 670 211L655 205L647 178L625 164L608 127L578 113L575 86L549 76Q530 51 525 44T498 30T469 18Q464 -14 412 -18Q400
-33 383 -33Q378 -33 367 -29Q339 -54 315 -59L299 -84L272 -68L266 -80L236 -68L164 -61Q146 -25 111 12L119 39L90 113L102 137L90 193L102 225Q102 230 99 251T96 279Q96 300 117 313V324Q117 347 129 369H141Q156 386 156 408L150 422L156 453V473Q174 495
174 518L168 551Q168 566 174 575Q205 591 205 606Q205 616 197 627L217 662Q221 670 229 675T240 682L236 702Q268 705 268 735Q268 753 262 772Q330 772 352 842H365Q379 856 385 856Q387 856 402 851T451 846L483 860V846Q504 844 535 823H563Q573 803 582 803L586
805Q609 769 633 754L643 729L662 721L694 674L727 580V561L745 487ZM680 430Q692 445 692 455Q692 462 685 469T678 479H690Q687 491 676 500L680 506L666 539L670 584L651 616Q629 630 629 637V643Q629 651 622 653T614 662V664Q614 667 623 690L610 700L590
702L582 717L590 729L563 743L543 762L485 786L461 791Q402 791 403 758L406 690L365 688L301 649L295 627L272 612L262 553L242 539Q236 536 236 510Q236 487 240 473L215 459Q207 455 207 420Q207 404 188 389V369L170 340V322L164 309L168 281L141 215L150 193V145L141
111L143 61L173 22Q178 14 209 0L215 -10L229 -6L242 -10L266 0L315 -2L338 4L344 18L365 16Q397 16 397 37L426 29L432 45L451 47L461 70Q483 87 485 98H518L528 119L563 150L576 169Q584 180 594 186L623 201Q628 229 641 258L637 276L666 289L662 299Q674 316
684 328H674Q682 339 682 346Q682 352 679 361T676 373Q676 386 682 401T688 420Q688 427 680 430Z" />
<glyph unicode="p" glyph-name="p" horiz-adv-x="920" d="M805 211L786 184L799 176Q787 157 772 145L768 119L743 117L736 102Q733 96 702 76L688 80Q676 67 631 61L618 70L616 53L569 76Q565 76 547 61L539 70L477 76L440 70L422 86L379 80L358 98Q338 88 326
88Q312 88 295 98Q285 88 285 76Q285 73 289 57T293 33Q293 21 283 -6L291 -33L274 -53Q281 -96 281 -133L274 -190L281 -262L262 -289L274 -328L262 -375L281 -381V-403Q266 -406 266 -424Q266 -428 270 -444L276 -446Q258 -473 258 -485L254 -647Q253 -682 238
-682Q233 -682 209 -678L211 -639L201 -553L217 -520L223 -459L211 -389Q227 -378 227 -367Q227 -361 215 -322L229 -295L215 -250L229 -215L223 -178L242 -166Q213 -159 213 -133Q213 -119 229 -59L217 -35L225 -2L217 6L225 18L217 92L229 190L215 211L244 225L229
229L217 250L205 256L215 262L217 256L223 266L215 274L238 270L229 283L238 281V291Q223 298 223 305Q223 319 229 332L223 354Q211 357 211 365Q211 369 221 369H225V375H238L223 393L229 420V444L231 459L223 492L231 528L223 557L231 594L223 608L225 641L223
664L225 696Q214 707 211 743H193L176 754L145 729V735L131 729H102L96 717L72 715L53 696L29 700L12 670L-14 682L-20 666Q-61 689 -61 711Q-61 717 -50 723T-39 737Q-39 742 -45 758Q-8 776 27 776L33 772L51 791Q59 799 106 819L113 813L131 834L176 831L209
842L215 838L223 881H242Q261 840 291 827L299 842L313 831L324 838Q358 835 382 821T428 803T461 786L473 795L477 780L504 766L506 772L524 766L539 746Q547 735 560 727L594 707L598 696L623 688V682Q648 669 651 645L674 631L690 594H700V575L712 563Q717 557
723 528L739 524Q742 486 766 471V444L782 422L780 397Q780 396 790 374T801 328L791 324L795 307V291L805 289L791 248L805 211ZM750 274L748 291L750 303L739 340L748 360L735 387L733 412L715 446L707 473L670 539L649 557L635 602L608 612L580 651V659L557
666L537 664L510 700L496 696L485 715L455 721H430L426 729L412 721L401 733L387 729L379 743L360 739L295 750Q276 741 276 723Q276 719 279 713T283 678L276 635L291 590L307 575L291 539L295 504L283 430L291 414L281 389L299 365L289 358L291 332L307 322L291
303L303 283L283 256L291 215L289 182L299 145L375 150L379 137Q392 154 393 154Q394 154 414 131Q420 132 429 135T442 139Q453 139 477 131Q483 143 492 143Q497 143 500 135H532L557 131L588 143L590 135Q663 144 678 158H684Q700 158 700 176L715 170L717 193L735
197L739 217L733 238L748 250L743 262L750 274Z" />
<glyph unicode="q" glyph-name="q" horiz-adv-x="1192" d="M1192 -592Q1168 -610 1167 -618Q1165 -613 1135 -604L1110 -623L1096 -612H1055L1051 -600L1036 -608Q990 -573 983 -557L969 -553L956 -518L942 -510L938 -479L915 -455L895 -379L899 -369L889 -346Q899
-330 899 -326Q899 -322 891 -309L881 -281L877 -217L866 -166L872 -141L866 -125Q873 -96 871 -77L866 -45L877 -2L870 18L872 84V154L877 176L870 193L881 348L872 420Q869 436 862 440Q848 427 840 412H829L819 387L791 373L778 346Q770 342 759 319T727 291V283L680
242L667 225Q659 215 647 209L614 193L610 178L590 164L561 137L543 130Q535 127 516 109H498Q482 96 446 86L430 61L397 53L389 33L379 51Q359 39 352 27L338 33L328 27L311 29L283 27L268 37L256 14L254 20Q241 20 221 37H211V45H184Q158 73 141 76L131 104L119
127Q109 163 104 170L109 201L98 231L109 270Q112 332 123 332L127 346V350Q127 357 125 369Q143 385 143 420V430L160 449L156 459Q163 463 174 496H184L197 532L207 528L211 569L217 575L231 569Q227 577 227 582Q227 596 250 608Q264 635 277 641Q297 650 297
664Q297 670 295 674Q314 676 319 684Q338 690 338 715H346V721L389 754V772Q398 766 406 766Q413 766 422 772L418 780Q437 788 455 788L483 786L496 823H549L561 852L575 838Q581 842 596 842Q619 842 651 834L662 846Q687 831 694 831Q700 831 713 838L723 815H731L727
823Q731 827 739 827Q748 827 761 822T783 811T793 786Q811 786 811 772Q832 754 844 754Q848 754 852 758L856 739Q851 748 846 748Q844 748 840 743L856 729H872L858 670L825 666L807 696L750 733L731 758L713 750L688 758L674 748L655 758L627 750L594 758L571
739L557 754L516 723L506 733L502 723L483 721L455 690L440 702L432 678L422 682L389 649L365 637L342 604L315 580L236 467L223 422H211L168 313V276L156 256L160 168L170 127Q182 117 221 117Q230 109 236 109L291 127L283 113L346 119L342 127H356L352 119L365
127L360 135Q384 135 397 143T451 168L455 184L485 193Q494 207 516 207Q524 207 530 201L524 217L535 223V242Q556 242 572 247T601 270T618 293T643 309L647 322L659 315L662 336L688 342L690 354Q708 363 717 383H731L750 412H758L764 426L774 430V444L793 455Q793
477 799 477Q803 477 807 473L815 500Q819 496 821 496Q825 496 825 512L834 520L840 512V532L856 545L848 561L862 557V584L885 608L877 641L891 651V688L903 702L899 743L905 766V791H918L924 819L938 805Q950 809 954 809Q961 809 967 805T975 799L983 768L979
733L983 711Q983 693 970 657T954 598L946 520L950 459L938 444L942 422V348L932 315L936 256L918 168L924 125Q932 111 932 86L922 84L928 61L924 51L928 12L918 -29L924 -61L918 -104L932 -133L928 -152L932 -178L924 -199L936 -215L932 -256L942 -270L954 -348L965
-360L963 -387L973 -389V-428L989 -436V-461Q1023 -491 1040 -543L1051 -532L1094 -553L1118 -551H1133Q1141 -547 1157 -547Q1177 -547 1192 -557V-592Z" />
<glyph unicode="r" glyph-name="r" horiz-adv-x="764" d="M803 801L797 776L737 768L698 739L672 735L639 715L606 700Q582 679 567 674V664L537 649L516 616H494L483 584L460 569Q446 561 438 547L418 510Q395 498 391 455L381 459L377 446L362 436L348 401Q326
370 326 354L307 346V303Q301 296 297 281L301 274L281 266L287 250Q284 230 256 176L266 150L246 117Q250 97 250 86L246 53L255 17Q256 14 264 5L279 -10Q266 -35 254 -45L227 -35L231 -53L186 -45V-18L180 0L186 33L180 47L184 117L180 164Q166 169 166 176Q166
184 180 201V231Q180 255 178 266L186 276L178 315L184 346L178 365L184 420L174 436L180 455L168 496L172 528Q172 541 168 565L174 575L162 645L147 655L162 690Q141 719 141 758V786Q132 796 129 805Q143 824 180 838L195 834Q199 809 217 786L213 735L233 580Q233
565 221 553L231 510L225 479L231 446L227 420L242 389L233 383L240 336L256 332L263 372Q264 379 287 408Q313 431 313 459V471L326 477Q329 477 331 484T338 492H344L356 532L387 553L389 565H403L397 588L428 602L430 627L459 631Q481 649 489 670L508 674Q512
682 545 711Q552 711 555 717L588 735L596 750L614 760Q667 799 686 799H694Q712 799 723 809L741 803Q755 813 764 813Q801 805 803 801Z" />
<glyph unicode="s" glyph-name="s" horiz-adv-x="891" d="M791 158L777 142Q772 135 750 80L721 59L723 47H696L670 18H635L612 6Q602 6 590 -6Q577 0 563 0Q552 0 537 -6V-18L500 -14L471 -18L444 -14L440 -20L430 -14L412 -20H399Q385 -20 369 -25L348 -18L332
-29L324 -20L309 -29Q283 -14 266 -14Q260 -14 248 -20Q235 -13 213 -11L168 -6Q147 -6 135 -10L131 -2L113 -14Q107 -6 98 -6L92 6Q29 9 29 96L72 102L70 117L80 131L86 119H98V109L117 119Q133 116 133 104Q133 98 127 86L145 84V53L197 45L217 27L223 37L485
53L575 70L580 80L602 84L608 92Q655 101 690 125L696 119L700 131L715 143L717 150L707 164L711 182L688 201L684 217Q668 223 664 229L655 225L635 244H627L618 256H598Q592 272 575 272L561 270Q527 270 500 291H479L453 307L440 299L434 309H420L397 328L336
354L313 375L244 387L242 393L184 434L158 500L137 532L131 627L137 637Q137 677 158 707Q196 729 197 750L211 748Q219 773 249 797L274 819L393 870L453 881L512 899L604 893L608 881H614Q631 881 641 870V852L666 834Q655 786 655 780Q655 762 637 762Q629 762
608 805L553 809L539 805Q507 829 502 829Q496 829 496 823L477 809Q443 809 422 791Q384 784 369 766H346L329 753Q322 748 289 739L281 729L270 723L242 696L223 666Q194 647 193 641L172 557L182 551V545Q182 511 215 487V477L270 444H283L313 414H354L379 393L426
387L440 375L528 348Q528 336 543 336Q568 336 589 324T629 309L631 299L649 289H688L723 266Q729 244 750 229L748 223L758 209L776 205L768 190Q787 174 791 158Z" />
<glyph unicode="t" glyph-name="t" horiz-adv-x="713" d="M287 768L428 762L563 768L596 766L610 768H684Q705 768 705 750Q705 729 672 723Q666 727 655 727Q641 727 629 717L600 723L545 721Q507 700 469 700L430 707L410 688H391V700L356 684H338L332 666Q315
671 272 674Q269 662 262 662Q258 662 250 670L221 666L201 645L195 545L199 485L193 408L195 322L201 281V244L225 193V184Q225 149 266 117L272 100L309 92L336 63L412 49L512 72L541 63L612 96L639 92Q653 78 653 66Q653 51 627 33L612 39L580 12L512 4L489
-10L465 4Q431 -14 393 -14L352 -6H330L256 37L221 86L197 113L160 211L143 303L152 340L135 360L143 383L135 420L156 436L147 455L152 479L143 506L147 545L143 565L152 571V645Q146 672 135 672Q128 672 123 664L100 674L68 666L35 690H18Q-6 690 -6 717L-4
748L-18 758L-10 776L20 772L43 776L76 766H162L166 813V860L152 895L168 907Q172 919 172 922Q172 935 156 944L160 1024L143 1049L147 1067Q127 1071 127 1083L141 1137Q158 1159 160 1165Q221 1135 221 1130V1128L213 1108Q227 1079 227 1063V1057Q221 1041
221 1028Q221 1018 227 1012L225 995L227 973L209 944L221 893L213 831L221 819L209 801L225 750H262L287 768Z" />
<glyph unicode="u" glyph-name="u" horiz-adv-x="1167" d="M1057 98Q1071 100 1090 100Q1112 100 1112 84Q1112 70 1090 53L1075 45L1065 34Q1061 29 1030 12L997 2Q985 -10 930 -10Q925 -10 900 -2T868 12L801 72L786 135L766 154V164Q766 194 752 217L754 266Q762
302 762 309Q762 332 750 354L756 446L733 434L719 412L700 399Q690 393 680 375L662 373Q639 353 639 332Q609 319 601 297T570 250T535 221T516 209L457 137H451L403 80L365 59L348 33Q313 22 264 -2L233 18Q228 16 219 16Q207 16 207 27Q207 35 209 39L188 51Q188
60 195 72L168 98L184 119H162L147 158L162 170L143 197Q143 247 150 250L151 285Q152 303 162 328L145 340Q162 363 162 379Q162 391 152 412Q164 418 164 444Q164 454 162 471L154 539L178 682Q176 719 168 760L160 795Q160 827 195 827L225 819L240 801L231
758L227 655L231 590L217 557L225 537L217 506V479Q209 476 212 467T215 453Q215 441 207 430L221 412L201 387L213 369L207 342L213 309V270L225 256L215 207Q215 195 227 176L221 154L231 125Q248 115 274 86Q296 89 313 106T356 141Q356 143 348 143Q381 158
381 176Q404 179 414 184L418 209L438 217Q461 246 506 256L508 276L545 307Q550 346 588 348L596 375L614 383L641 422H653V434L672 444L684 473Q709 486 733 496L741 518L756 524V537L764 539Q769 588 799 588L793 594L831 707H840V735H842Q849 735 877 809L913
813L909 805L930 766L913 690L883 645L862 569L836 551V506L821 477L825 444L811 430L815 340L807 229L813 217L811 201H817V170Q850 122 850 109L879 102L885 84Q913 72 934 61L961 63L983 57L1015 70Q1030 76 1057 98Z" />
<glyph unicode="v" glyph-name="v" horiz-adv-x="973" d="M973 979L963 958L965 928L944 915L934 873Q932 864 915 846L911 819H889Q899 789 899 782Q899 766 866 758V743L848 674L831 641H819Q831 629 831 616L805 590L758 467L715 393V360Q715 353 701 340T686
319Q686 313 696 303Q679 289 651 289L659 266Q638 235 637 223Q616 207 616 195Q616 186 618 182H602V160L575 143L561 117L520 72L467 -10Q451 -33 422 -33Q381 -33 365 -6L299 98L295 135L283 143L281 190L258 215V262L209 387L211 412L198 435Q193 446 190
477L176 496L166 523Q160 539 151 547L127 569L109 641L88 659Q76 670 69 683L51 717Q43 713 39 713Q18 713 18 766Q18 801 59 815Q95 785 110 771T149 710T193 659Q184 657 184 649Q184 644 190 635V618L215 598L209 580L215 539L238 473L244 467L248 440L258
434V414L283 324L289 289L322 215L348 119L369 102V98Q369 70 412 70H420V80Q420 83 433 87T459 117Q467 113 469 113Q475 113 475 121Q475 125 471 137L518 164Q519 177 523 188T535 207L553 223L590 276L602 313L623 328L631 350Q635 360 651 375L649 397L659
401L666 422L674 414Q670 426 670 430Q670 444 684 446Q690 461 702 461Q717 490 717 518H733L735 545Q750 576 754 602L766 604L795 688L801 696L799 684Q813 700 817 718T825 737Q828 737 834 733L860 827L879 852V864L893 860L889 893Q916 918 927 949T950 981Q956
981 961 979L963 991L973 979Z" />
<glyph unicode="w" glyph-name="w" horiz-adv-x="1343" d="M1311 848L1305 819L1307 799L1282 696L1255 664L1245 618L1225 588L1192 506L1155 436L1096 340L1085 309L1053 250L1020 170L958 47Q944 -11 936 -20Q910 -10 893 0L864 96L827 164V184L799 258L786
274L717 434L659 551Q655 555 645 555Q635 555 627 551L588 485L553 455L506 383L471 340L453 281L406 217L401 193Q369 124 369 119V92L354 66L332 6L336 -2Q332 0 324 0Q317 0 295 -10Q290 -2 274 4V14L258 37L248 92L231 127V154L229 168L201 262L190 332L176
348L178 369L158 426V446L137 506L113 543L117 584L113 604L92 664L88 690Q86 702 73 725T59 764Q59 774 61 780L47 786L20 852L47 860Q49 878 56 879L84 885L96 866H117L125 831L135 823L131 801L137 780L131 758L154 717L150 688L176 590L172 565L184 496L211
426L225 332L244 309V266Q261 206 262 182L283 164L291 137H309L406 309Q422 309 422 346Q446 361 446 377Q446 398 459 420Q471 432 471 446Q488 436 500 436Q494 449 494 461Q494 477 510 477L516 475Q518 475 519 477T519 481T516 485Q516 492 528 500L524 518V528Q527
537 532 537Q537 537 537 528Q550 539 557 539Q563 539 565 537L561 565L575 584L569 612L580 608L584 623L602 631L594 641L602 649L604 659H627Q600 689 600 719Q600 737 612 762L645 766Q663 747 682 721L689 677Q690 670 707 641L702 618L717 569V543L754 477V459L768
446L801 358L805 322L827 291L889 145L926 137L991 274L1016 295L1030 340L1057 354V389Q1100 417 1100 444V477H1110V487L1126 500L1161 569Q1164 595 1192 635L1188 655L1217 696L1241 762Q1217 839 1217 879Q1217 909 1235 915L1255 907Q1257 898 1282 895L1286
874L1311 848Z" />
<glyph unicode="x" glyph-name="x" horiz-adv-x="944" d="M911 -6Q900 -20 887 -20Q878 -20 866 -14L834 -29L813 -18L786 -10L748 22Q739 29 726 31L690 39L641 86L580 170L524 231L520 248L510 258L471 324L461 346L444 365Q423 415 401 420Q391 411 365 408L348
375Q319 329 322 324L295 307L270 262Q243 239 236 233T224 208T217 184L182 170Q180 128 160 109L109 61V53L53 -6L4 -84L-10 -94V-117L-28 -130Q-39 -137 -45 -149L-61 -178L-84 -160L-66 -127L-47 -125L-33 -86Q-10 -75 -6 -66L20 -6L37 4Q64 60 72 66V96L106
104L104 117Q104 132 116 145T129 162Q129 165 119 178L135 176Q131 181 131 184Q131 191 139 197Q166 202 174 213T182 250L193 256L197 270L211 274V279Q211 301 242 315L258 365L281 375V406L295 412L303 436L309 434L324 444Q324 485 358 485H365L358 520L343
541Q336 551 332 575L315 584L283 651L248 715L223 772L193 809L201 827L193 860L219 866L250 860L254 844Q256 838 289 799L283 772L299 762L311 728Q313 721 320 714L340 696H328L346 682V659L383 608L389 580L414 557V563Q414 590 444 604L455 590V618Q474 627
487 659H500V674L520 684H528L524 702Q534 715 541 715Q548 715 553 707V733L580 735V750L598 762L604 786Q632 792 641 827V805Q649 816 649 825Q649 828 645 831L690 850L702 866Q719 869 762 881Q777 853 786 846Q784 824 766 818T735 801L608 684L594 659L561
645Q538 590 518 565L485 551L473 520L440 496V487Q438 483 438 479Q438 465 473 444L471 422Q488 395 487 387L510 375Q526 332 531 322T575 283L588 231L623 201L642 169Q645 164 674 145L678 131Q703 117 711 98L733 92L754 59Q760 39 780 39L801 45L827 29L911
18V-6Z" />
<glyph unicode="y" glyph-name="y" horiz-adv-x="1307" d="M1094 389Q1073 373 1073 352Q1073 344 1075 332L1087 258L1075 178L1079 145L1069 117L1075 27L1069 14V-59L1065 -117L1073 -137L1069 -272L1079 -297L1069 -309L1075 -346L1065 -356L1073 -387H1065L1061
-403V-434L1051 -459L1055 -477L1012 -553L1008 -592L997 -590L979 -614Q953 -643 942 -666L905 -688Q889 -735 846 -735Q848 -737 848 -741Q848 -748 840 -748L831 -756Q802 -770 797 -780H774L768 -788L741 -782L700 -809L676 -805L610 -815L592 -813L582 -815L522
-805H506L485 -786L475 -788L403 -764L352 -756L340 -735L307 -731L293 -696L274 -690L246 -651L217 -637L190 -598Q184 -590 173 -583L141 -565L152 -539L133 -518L135 -506Q135 -485 121 -453Q117 -436 117 -424Q117 -408 125 -383L133 -360V-354L147 -346L152
-336L160 -338L165 -314Q168 -299 213 -258L242 -250L291 -207L348 -211Q362 -190 373 -190Q387 -190 387 -207Q387 -213 385 -217L358 -229L340 -244Q332 -250 293 -262L279 -291H250Q229 -328 193 -362L195 -401Q178 -426 178 -453L168 -459L213 -565L254 -580L260
-604L324 -666L348 -673Q362 -678 374 -688L403 -715H436L461 -739L494 -735L508 -748L625 -743L641 -739V-743Q641 -754 649 -754Q650 -754 654 -750Q675 -729 707 -729H717L782 -702V-711Q795 -701 795 -698H788Q792 -694 801 -694Q807 -694 811 -696Q814 -678
829 -678H836L840 -666Q854 -666 854 -649H856Q867 -649 873 -634T891 -618L897 -623Q900 -597 928 -580Q952 -558 952 -524H963Q994 -458 1008 -420L1004 -414L1008 -362L1018 -356V-309L1026 -295L1008 -272Q1026 -254 1026 -252Q1026 -250 1022 -237T1018 -205V-197L1022
-113V6L1012 29L1022 70L1018 117V225L1014 248L1022 270L1014 289L1022 307L1018 383L999 401L1018 420L1014 436L1018 467L1008 479L1012 504L999 528Q990 518 973 512L963 487L946 477L942 453L909 430L913 420L897 397L883 393L877 383L846 373V346H831L825
322L756 258L709 205L684 197L672 178L625 135L606 131Q605 129 569 98L563 80L545 70H528L518 51L496 47L455 6L418 0L403 -14Q388 -19 362 -29L356 -45Q346 -51 309 -51Q265 -51 254 -33L213 37L209 70L188 145V211L180 231L193 281L184 313L193 322L195 348L209
379L207 426L217 453L207 471L227 565L221 627L227 682L209 758L217 776L209 791L225 831L217 848L231 860V887L254 889Q263 863 281 848L274 834L287 831L281 805L297 776L291 762L297 729L307 721L293 690L305 637L281 604L293 590L281 512V440L272 430L264 324L242
295L246 276V229L256 201L246 178L250 143L242 127L250 109V84L272 61L279 37L293 39L297 27L313 37L356 33L371 66L422 86L424 80Q426 97 440 104T474 128T518 154L516 143Q526 147 526 154Q526 156 522 164Q542 166 588 210T684 262L709 303L713 291V309Q743
315 745 342L768 358Q788 367 788 387V393Q816 413 840 420L844 436Q882 480 895 504Q926 520 938 545L975 623L973 670L989 678V717L979 750L985 780L967 791L965 797Q965 804 975 819T989 846L997 852L999 866Q1011 874 1022 874L1065 831L1067 807L1068 787Q1069
780 1087 748L1075 735L1079 707L1075 684L1092 666L1075 664V635L1065 598L1075 545L1073 506L1079 492L1075 455L1094 389Z" />
<glyph unicode="z" glyph-name="z" horiz-adv-x="1096" d="M981 178Q999 153 999 121Q999 107 997 104L948 45L942 20L913 12L903 -8L872 -14H840L752 -2L727 -14L694 -2L651 -10L635 4Q566 -8 563 -8L526 0L455 4L410 0L385 7Q360 14 348 14Q321 14 281 0L242
14Q169 14 123 -2L119 -25L100 -33L90 -47L72 -53L51 -45L45 -27V0L51 14L78 37Q90 61 99 68T133 84Q137 88 149 100T162 127V131Q185 132 188 150Q230 172 235 177T240 190Q254 204 266 209Q273 234 311 266Q339 268 344 288T362 322H373V336L406 340V344Q406
350 418 379Q440 388 442 408Q462 427 483 430L485 446L508 461L529 493Q541 510 555 520Q579 526 582 553L610 575L621 602L641 616L676 674L709 696Q718 725 733 739V758Q759 764 768 776Q761 801 727 801H719L668 776L639 780L614 772L578 776L553 768L532 778L471
758Q447 764 424 764Q395 764 365 758L344 768L301 762L281 768L242 758L178 772L127 768L35 791L0 782L-27 795L-37 827L-12 846L8 840Q26 853 49 856L76 846H115Q115 825 133 825L143 827H184L213 819L248 825L279 815L307 821H313L338 823L373 819L385 827L565
825L588 819L621 834H641V848H723L756 856L788 848L834 866L864 864L901 870H905Q929 870 934 827L915 815L897 799L868 786L807 723L788 721L741 655Q673 631 666 575L639 551L602 496L582 485L498 375L469 365L442 328L424 322L418 303L377 266L358 231L319 197L272
137L250 131L246 117L231 109Q240 88 256 88Q285 78 301 66L313 70L414 72L436 61L545 70L647 51Q656 57 666 57Q674 57 686 39L723 61L760 47L793 57L829 51L864 53Q881 70 901 70Q918 94 926 97T938 119Q958 131 958 154V164L965 184L981 178Z" />
<glyph unicode="{" glyph-name="braceleft" horiz-adv-x="819" d="M750 1315L739 1266L713 1253L678 1264L651 1257L623 1272L612 1260Q577 1257 545 1241L539 1214L519 1199Q516 1196 514 1193L498 1159L500 1124L485 1087L487 1026L471 965L475 905L465 899L461
846L471 784L461 762L465 739L451 723L467 702Q453 663 434 641L444 623Q405 595 383 588L399 569L420 565Q444 537 444 518V481L436 442L455 412L430 397L434 381L424 340L442 295L436 274L434 243Q432 227 422 209L431 188Q436 176 438 154L442 96L436 72L455
25L449 -4Q449 -21 471 -59H494L500 -84H508L522 -80L550 -100Q558 -106 625 -119L641 -109L655 -119L664 -106L692 -111L713 -102L733 -133Q728 -155 698 -193L684 -178L662 -186L610 -182L582 -174L561 -178L520 -164L506 -137H471L399 -78L385 -18L391 4L385
33L365 45L387 82L380 115Q377 131 362 154L373 197L362 256L373 334L358 358L373 373L377 418L367 446L381 479Q363 518 334 547V555L309 547L301 559L293 545Q265 545 205 561L197 590L219 602Q229 608 266 612L274 598Q300 612 332 612L348 635H358L352 653Q382
663 391 678L387 698L397 731L389 764L410 805L406 829L414 858L406 909L418 922L414 967L430 983L418 993L430 1032L422 1077L436 1102L440 1134Q442 1151 453 1167L438 1182L469 1198L463 1233L487 1239L496 1257L512 1271Q520 1278 535 1307Q560 1315 611 1323L659
1331L690 1323L717 1343L735 1337L750 1315Z" />
<glyph unicode="|" glyph-name="bar" horiz-adv-x="1024" d="M557 -483H467V1565H557V-483Z" />
<glyph unicode="}" glyph-name="braceright" horiz-adv-x="819" d="M633 565Q598 545 563 541L553 557Q530 543 498 541L481 518H471L479 498Q450 488 438 473L444 455L434 422L442 389L422 348L428 322L422 291L430 242L416 229L422 184L406 168L418 158L406
119L414 74L401 47L400 26L398 8Q397 0 385 -18L399 -29L371 -47L377 -84L352 -88L342 -109L327 -123Q319 -129 307 -158Q280 -167 227 -175L180 -182L154 -174L127 -199L104 -190L92 -168L102 -119L127 -106L162 -117L188 -111L217 -123L227 -113Q265 -108 297
-92L301 -66L318 -50Q324 -45 328 -36T340 -10L338 27L352 61L348 125L365 184L358 246L369 250L371 305L362 365L371 389L365 412L381 430L362 446Q379 488 395 512L385 528Q424 555 446 565L428 584L408 588Q383 612 383 631V668L389 711L373 741L395 754L389
772L399 811L381 856L388 906Q389 922 399 942L383 977V1010L377 1055L383 1077L365 1126L369 1157Q369 1172 346 1210H324L317 1235H309L293 1231L266 1250Q261 1254 193 1268L174 1255L160 1266L154 1253L123 1257L102 1249L84 1278L88 1297Q90 1305 117 1339L133
1325L154 1333L207 1331L231 1323L256 1327L295 1313L309 1288H346L416 1231L432 1171L426 1147L432 1120L453 1110L432 1069Q444 1014 459 999L446 954L461 895L451 817L467 795L451 778L449 733L459 707L446 672Q457 637 494 604V596L518 606L528 594L535 608Q563
608 623 594L633 565Z" />
<glyph unicode="~" glyph-name="asciitilde" horiz-adv-x="1706" d="M1530 647Q1320 500 1143 500Q1043 500 854 569Q657 639 565 639Q400 639 178 481V573Q385 719 565 719Q665 719 810 667T1017 598T1143 580Q1305 580 1530 739V647Z" />
</font>
</defs>
</svg>
